STARTFONT 2.1
FONT -FreeType-TeX Gyre Adventor-Medium-R-Normal--32-310-75-75-P-205-ISO10646-1
SIZE 31 75 75
FONTBOUNDINGBOX 76 55 -26 -15
COMMENT "Generated by fontforge, http://fontforge.sourceforge.net"
COMMENT "Copyright 2007-2018 for TeX Gyre extensions by B. Jackowski, J.M. Nowacki, et al. (on behalf of TeX USERS GROUPS). Vietnamese characters were added by Han The Thanh."
STARTPROPERTIES 32
FOUNDRY "FreeType"
FAMILY_NAME "TeX Gyre Adventor"
WEIGHT_NAME "Medium"
SLANT "R"
SETWIDTH_NAME "Normal"
ADD_STYLE_NAME ""
PIXEL_SIZE 32
POINT_SIZE 310
RESOLUTION_X 75
RESOLUTION_Y 75
SPACING "P"
AVERAGE_WIDTH 205
CHARSET_REGISTRY "ISO10646"
CHARSET_ENCODING "1"
FONTNAME_REGISTRY ""
CHARSET_COLLECTIONS "ISO8859-2 ISO8859-9 ISO8859-4 ISO10646-1"
FONT_NAME "TeXGyreAdventorMedium"
FACE_NAME "TeX Gyre Adventor Medium"
COPYRIGHT "Copyright 2007-2018 for TeX Gyre extensions by B. Jackowski, J.M. Nowacki, et al. (on behalf of TeX USERS GROUPS). Vietnamese characters were added by Han The Thanh."
FONT_VERSION "001.000"
FONT_ASCENT 22
FONT_DESCENT 10
UNDERLINE_POSITION -3
UNDERLINE_THICKNESS 2
X_HEIGHT 17
CAP_HEIGHT 23
RAW_ASCENT 703
RAW_DESCENT 297
NORM_SPACE 9
FIGURE_WIDTH 18
AVG_LOWERCASE_WIDTH 183
AVG_UPPERCASE_WIDTH 213
ENDPROPERTIES
CHARS 1199
STARTCHAR $0020
ENCODING 32
SWIDTH 259 0
DWIDTH 9 0
BBX 0 0 0 0
BITMAP
ENDCHAR
STARTCHAR $0021
ENCODING 33
SWIDTH 296 0
DWIDTH 10 0
BBX 2 24 4 0
BITMAP
C0
C0
C0
C0
C0
C0
C0
C0
C0
C0
C0
C0
C0
C0
C0
C0
C0
C0
00
00
C0
C0
C0
C0
ENDCHAR
STARTCHAR $0022
ENCODING 34
SWIDTH 296 0
DWIDTH 10 0
BBX 5 7 2 18
BITMAP
88
88
88
88
88
88
88
ENDCHAR
STARTCHAR $0023
ENCODING 35
SWIDTH 555 0
DWIDTH 18 0
BBX 18 24 0 0
BITMAP
030600
030600
030600
030600
020600
060400
060C00
3FFFC0
7FFFC0
0F0C00
060C00
040C00
0C0800
0C3800
FFFF80
FFFF80
FFFF00
083800
383000
387000
387000
387000
307000
203000
ENDCHAR
STARTCHAR $0024
ENCODING 36
SWIDTH 555 0
DWIDTH 18 0
BBX 13 27 2 0
BITMAP
0200
0200
0700
0780
3FE0
7830
7038
7038
7000
7000
7000
7800
1F00
07C0
00F0
0078
0038
0038
0038
C038
C038
E030
7070
7FC0
0F80
0200
0200
ENDCHAR
STARTCHAR $0025
ENCODING 37
SWIDTH 777 0
DWIDTH 25 0
BBX 24 24 0 0
BITMAP
0F0060
1FC0C0
30C1C0
6061C0
C07380
C07380
C07600
60E600
3FC600
1F8C00
000C00
000C00
001800
00387C
0073FE
00778E
006707
00C603
00C603
018603
018707
01878E
0183FC
0300F8
ENDCHAR
STARTCHAR $0026
ENCODING 38
SWIDTH 740 0
DWIDTH 24 0
BBX 21 24 2 0
BITMAP
03C000
0FF000
1E3000
383800
381800
380800
381800
1C3800
0FF060
0FC0E0
1F81C0
3F81C0
79E3C0
F0F380
E07F80
C01F00
C00E00
C00E00
C00FC0
C019E0
6078F0
307078
1FF038
0F8010
ENDCHAR
STARTCHAR $0027
ENCODING 39
SWIDTH 185 0
DWIDTH 6 0
BBX 1 7 2 18
BITMAP
80
80
80
80
80
80
80
ENDCHAR
STARTCHAR $0028
ENCODING 40
SWIDTH 370 0
DWIDTH 12 0
BBX 8 29 2 -5
BITMAP
03
07
0F
0E
0C
38
78
70
70
70
E0
C0
C0
C0
C0
C0
C0
E0
F0
70
70
70
70
38
18
0C
06
07
01
ENDCHAR
STARTCHAR $0029
ENCODING 41
SWIDTH 370 0
DWIDTH 12 0
BBX 8 30 1 -6
BITMAP
C0
F0
70
78
18
0C
0E
06
06
06
07
07
03
03
03
03
03
03
07
06
06
06
0E
0C
1C
38
70
E0
80
80
ENDCHAR
STARTCHAR $002A
ENCODING 42
SWIDTH 444 0
DWIDTH 15 0
BBX 12 12 1 12
BITMAP
0600
0600
C6C0
E7E0
FFF0
3F80
3F00
FFC0
F6C0
0600
0600
0600
ENDCHAR
STARTCHAR $002B
ENCODING 43
SWIDTH 703 0
DWIDTH 23 0
BBX 18 19 2 0
BITMAP
00C000
00C000
00C000
00C000
00C000
00C000
00C000
00C000
FFFF80
FFFFC0
00F000
00E000
00C000
00C000
00C000
00C000
00C000
00C000
00C000
ENDCHAR
STARTCHAR $002C
ENCODING 44
SWIDTH 259 0
DWIDTH 9 0
BBX 5 6 4 -1
BITMAP
78
70
70
60
C0
C0
ENDCHAR
STARTCHAR $002D
ENCODING 45
SWIDTH 333 0
DWIDTH 11 0
BBX 8 2 1 8
BITMAP
FF
FF
ENDCHAR
STARTCHAR $002E
ENCODING 46
SWIDTH 259 0
DWIDTH 9 0
BBX 2 4 4 0
BITMAP
C0
C0
C0
C0
ENDCHAR
STARTCHAR $002F
ENCODING 47
SWIDTH 518 0
DWIDTH 17 0
BBX 12 26 2 -4
BITMAP
0070
00E0
00C0
00C0
00C0
0180
0180
0180
0300
0300
0700
0700
0600
0600
0E00
0C00
0C00
0C00
3C00
3800
3800
3000
7000
7000
6000
C000
ENDCHAR
STARTCHAR $0030
ENCODING 48
SWIDTH 555 0
DWIDTH 18 0
BBX 15 24 1 0
BITMAP
07C0
1FF8
383C
781C
700E
C006
C006
C006
C006
C006
C006
C006
C006
C006
C006
C006
C006
C006
C006
700E
781C
383C
1FF8
07F0
ENDCHAR
STARTCHAR $0031
ENCODING 49
SWIDTH 555 0
DWIDTH 18 0
BBX 7 24 5 0
BITMAP
FE
FE
0E
06
06
06
06
06
06
06
06
06
06
06
06
06
06
06
06
06
06
06
06
06
ENDCHAR
STARTCHAR $0032
ENCODING 50
SWIDTH 555 0
DWIDTH 18 0
BBX 15 24 1 0
BITMAP
07C0
1FF8
383C
781C
700C
C00E
C006
C006
000E
000C
0018
0038
0078
00F0
01E0
03C0
0380
0700
0C00
1800
7000
7000
FFFE
FFFE
ENDCHAR
STARTCHAR $0033
ENCODING 51
SWIDTH 555 0
DWIDTH 18 0
BBX 15 24 1 0
BITMAP
07C0
0FF0
1870
3838
7038
6038
0038
0038
0038
03F0
03F0
03F0
0018
000C
000C
0006
0006
C006
C00C
F00C
7818
3830
1FF0
07C0
ENDCHAR
STARTCHAR $0034
ENCODING 52
SWIDTH 555 0
DWIDTH 18 0
BBX 17 24 0 0
BITMAP
000C00
001C00
003C00
007C00
007C00
00CC00
01CC00
01CC00
030C00
070C00
060C00
060C00
0C0C00
380C00
780C00
700C00
701C00
FFFF80
FFFF80
000C00
000C00
000C00
000C00
000C00
ENDCHAR
STARTCHAR $0035
ENCODING 53
SWIDTH 555 0
DWIDTH 18 0
BBX 15 24 1 0
BITMAP
3FFC
3FFC
3800
3800
3800
3800
3000
73C0
7FF8
783C
701C
600C
0006
0006
0006
C006
C006
C006
C006
700C
781C
383C
1FF8
07C0
ENDCHAR
STARTCHAR $0036
ENCODING 54
SWIDTH 555 0
DWIDTH 18 0
BBX 15 24 1 0
BITMAP
00C0
0180
0380
0380
0300
0600
0C00
0FC0
3FF8
783C
701C
600C
C006
C006
C006
C006
C006
C006
C006
F00C
781C
383C
1FF8
07C0
ENDCHAR
STARTCHAR $0037
ENCODING 55
SWIDTH 555 0
DWIDTH 18 0
BBX 13 24 2 0
BITMAP
FFF8
FFF8
0038
0038
0070
0070
0070
00E0
00C0
00C0
0180
0180
0300
0300
0600
0600
0600
0E00
0C00
0C00
1800
3800
3000
6000
ENDCHAR
STARTCHAR $0038
ENCODING 56
SWIDTH 555 0
DWIDTH 18 0
BBX 15 24 1 0
BITMAP
07C0
0FF0
1830
3838
701C
700C
700C
781C
3C38
1FF0
1FF0
3FF8
781C
700C
E006
C006
C006
C006
C006
700C
781C
383C
1FF8
07C0
ENDCHAR
STARTCHAR $0039
ENCODING 57
SWIDTH 555 0
DWIDTH 18 0
BBX 15 24 1 0
BITMAP
07C0
1FF8
383C
781C
700E
C006
C006
C006
C006
C006
C006
E006
700C
783C
3FF8
07F0
07F0
00F0
00C0
0180
0380
0380
0700
0600
ENDCHAR
STARTCHAR $003A
ENCODING 58
SWIDTH 259 0
DWIDTH 9 0
BBX 2 15 4 2
BITMAP
C0
C0
C0
C0
00
00
00
00
00
00
00
00
C0
C0
C0
ENDCHAR
STARTCHAR $003B
ENCODING 59
SWIDTH 259 0
DWIDTH 9 0
BBX 5 18 1 -2
BITMAP
38
38
38
18
00
00
00
00
00
00
00
00
38
38
70
70
60
C0
ENDCHAR
STARTCHAR $003C
ENCODING 60
SWIDTH 740 0
DWIDTH 24 0
BBX 19 22 2 -3
BITMAP
000060
0003E0
000FC0
001FC0
003E00
00F800
03E000
0F0000
3E0000
F80000
F00000
F00000
7C0000
3E0000
078000
01E000
00F000
007C00
000F80
0007C0
0001E0
0000E0
ENDCHAR
STARTCHAR $003D
ENCODING 61
SWIDTH 703 0
DWIDTH 23 0
BBX 18 9 2 5
BITMAP
FFFFC0
FFFFC0
000000
000000
000000
000000
000000
FFFFC0
FFFFC0
ENDCHAR
STARTCHAR $003E
ENCODING 62
SWIDTH 740 0
DWIDTH 24 0
BBX 19 23 2 -4
BITMAP
C00000
F00000
7C0000
7C0000
0F0000
03E000
01F800
007C00
000F00
0003C0
0001E0
0001E0
0007C0
003E00
007C00
00F000
01E000
078000
3E0000
F80000
F00000
E00000
800000
ENDCHAR
STARTCHAR $003F
ENCODING 63
SWIDTH 592 0
DWIDTH 19 0
BBX 14 24 2 0
BITMAP
0FC0
1FF0
3070
6038
C00C
C00C
C00C
C00C
000C
001C
0038
0078
00E0
01C0
0180
0380
0300
0300
0000
0000
0300
0300
0300
0300
ENDCHAR
STARTCHAR $0040
ENCODING 64
SWIDTH 851 0
DWIDTH 28 0
BBX 23 24 2 0
BITMAP
00FE00
03E7E0
0F0070
1E0038
30001C
307E0E
70F646
60C3C2
C301C2
830382
870382
860382
860386
86060E
C6060C
460E1C
671E18
73FE70
31F7C0
380010
1E0030
0F0060
03E3C0
00FE00
ENDCHAR
STARTCHAR $0041
ENCODING 65
SWIDTH 740 0
DWIDTH 24 0
BBX 22 24 1 0
BITMAP
007000
00F800
00F800
00F800
018C00
018C00
038C00
030600
030600
070300
060380
060380
0C03C0
0FFFC0
1FFFC0
3800E0
380060
380060
700030
700030
E00038
C0003C
C0001C
C00018
ENDCHAR
STARTCHAR $0042
ENCODING 66
SWIDTH 592 0
DWIDTH 19 0
BBX 15 24 2 0
BITMAP
FF80
FFF0
E070
C038
C038
C01C
C00C
C018
C038
C038
FFF8
FFF0
FFF8
C03C
C00C
C006
C006
C006
C006
C00C
C01C
E03C
FFF8
FFC0
ENDCHAR
STARTCHAR $0043
ENCODING 67
SWIDTH 814 0
DWIDTH 27 0
BBX 23 24 1 0
BITMAP
00FF80
03FFE0
0F00F8
1F007C
3C001E
38000C
700000
700000
F00000
E00000
C00000
C00000
C00000
C00000
700000
700000
700000
780006
3C000C
0E0018
070070
0780E0
03FFC0
00FF00
ENDCHAR
STARTCHAR $0044
ENCODING 68
SWIDTH 740 0
DWIDTH 24 0
BBX 20 24 2 0
BITMAP
FFF000
FFFC00
E01F00
C00F80
C003C0
C001C0
C00060
C00060
C00070
C00030
C00030
C00030
C00030
C00030
C00030
C00060
C00060
C00060
C001C0
C003C0
C00F80
E01F00
FFFC00
FFF000
ENDCHAR
STARTCHAR $0045
ENCODING 69
SWIDTH 518 0
DWIDTH 17 0
BBX 13 24 2 0
BITMAP
FFF8
FFF8
E000
C000
C000
C000
C000
C000
C000
C000
FFF0
FFF8
FFF8
C000
C000
C000
C000
C000
C000
C000
C000
E000
FFF8
FFF8
ENDCHAR
STARTCHAR $0046
ENCODING 70
SWIDTH 481 0
DWIDTH 16 0
BBX 12 24 2 0
BITMAP
FFF0
FFF0
E000
C000
C000
C000
C000
C000
C000
C000
FFE0
FFF0
FFF0
C000
C000
C000
C000
C000
C000
C000
C000
C000
C000
C000
ENDCHAR
STARTCHAR $0047
ENCODING 71
SWIDTH 888 0
DWIDTH 29 0
BBX 25 24 1 0
BITMAP
007F8000
03FFF000
0700F800
07007C00
0E001E00
38000F00
78000700
70000000
70000000
E0000000
C0000000
C0000000
C0000000
C03FFF80
F07FFF80
70000380
70000300
78000300
38000300
0E001E00
07003C00
07807800
03FFF000
003F0000
ENDCHAR
STARTCHAR $0048
ENCODING 72
SWIDTH 666 0
DWIDTH 22 0
BBX 17 24 2 0
BITMAP
C00380
C00380
C00380
C00380
C00380
C00380
C00380
C00380
C00380
C00380
FFFF80
FFFF80
FFFF80
C00380
C00380
C00380
C00380
C00380
C00380
C00380
C00380
C00380
C00380
C00100
ENDCHAR
STARTCHAR $0049
ENCODING 73
SWIDTH 222 0
DWIDTH 8 0
BBX 2 24 2 0
BITMAP
C0
C0
C0
C0
C0
C0
C0
C0
C0
C0
C0
C0
C0
C0
C0
C0
C0
C0
C0
C0
C0
C0
C0
C0
ENDCHAR
STARTCHAR $004A
ENCODING 74
SWIDTH 481 0
DWIDTH 16 0
BBX 13 24 0 0
BITMAP
0038
0038
0038
0038
0038
0038
0038
0038
0038
0038
0038
0038
0038
0038
0038
0038
0038
0038
C038
7078
7870
3860
1FC0
0F80
ENDCHAR
STARTCHAR $004B
ENCODING 75
SWIDTH 592 0
DWIDTH 19 0
BBX 15 24 2 0
BITMAP
C006
C00E
C01E
C03C
C078
C070
C0E0
C0C0
C3C0
C780
C700
C600
EE00
FB00
F980
F1C0
E0E0
C070
C030
C038
C01C
C01E
C00E
C006
ENDCHAR
STARTCHAR $004C
ENCODING 76
SWIDTH 444 0
DWIDTH 15 0
BBX 12 24 2 0
BITMAP
C000
C000
C000
C000
C000
C000
C000
C000
C000
C000
C000
C000
C000
C000
C000
C000
C000
C000
C000
C000
C000
E000
FFF0
FFF0
ENDCHAR
STARTCHAR $004D
ENCODING 77
SWIDTH 925 0
DWIDTH 30 0
BBX 25 24 2 0
BITMAP
F0000F80
F8000F80
F8000F80
F8000F80
CC001D80
CC001980
CC003180
C6003180
C6007180
C7006180
C3006180
C300E180
C181C180
C181C180
C1838180
C0C38180
C0C38180
C0678180
C0760180
C0760180
C07C0180
C03C0180
C03C0180
C0180180
ENDCHAR
STARTCHAR $004E
ENCODING 78
SWIDTH 740 0
DWIDTH 24 0
BBX 19 24 2 0
BITMAP
F00060
F80060
F80060
F80060
CC0060
CE0060
C60060
C30060
C38060
C18060
C0C060
C0E060
C0F060
C07860
C03860
C01C60
C00C60
C00E60
C00660
C003E0
C003E0
C001E0
C000E0
C00060
ENDCHAR
STARTCHAR $004F
ENCODING 79
SWIDTH 851 0
DWIDTH 28 0
BBX 25 24 1 0
BITMAP
007F8000
03FFE000
0700F800
07007C00
0E001E00
38000F00
78000700
70000300
70000380
E0000180
C0000180
C0000180
C0000180
C0000180
70000180
70000380
70000300
78000700
3C000F00
0E001E00
07007C00
0780F000
03FFC000
00FF0000
ENDCHAR
STARTCHAR $0050
ENCODING 80
SWIDTH 592 0
DWIDTH 19 0
BBX 15 24 2 0
BITMAP
FFF0
FFFC
E01C
C00C
C006
C006
C006
C006
C006
C006
C00E
E03C
FFF8
FFC0
E000
C000
C000
C000
C000
C000
C000
C000
C000
C000
ENDCHAR
STARTCHAR $0051
ENCODING 81
SWIDTH 888 0
DWIDTH 29 0
BBX 26 24 1 0
BITMAP
007FC000
03FFF000
0700F800
07007C00
0E001E00
3C000F00
78000780
70000380
70000180
E00001C0
C00001C0
C00000C0
C00000C0
C00000C0
CFF80180
7FFE0180
7FFF0380
7007C380
3801E300
0E007E00
07803E00
07C07E00
03FFFF80
00FF0180
ENDCHAR
STARTCHAR $0052
ENCODING 82
SWIDTH 592 0
DWIDTH 19 0
BBX 17 24 2 0
BITMAP
FFC000
FFF800
E03C00
C01C00
C00600
C00600
C00780
C00380
C00780
C00700
C00600
C00600
C01C00
C7F800
C38000
C18000
C0C000
C0E000
C0F000
C07800
C03800
C01800
C00C00
C00E00
ENDCHAR
STARTCHAR $0053
ENCODING 83
SWIDTH 481 0
DWIDTH 16 0
BBX 14 24 1 0
BITMAP
0F80
1FF0
3870
7838
7038
C018
C000
E000
7800
3E00
1FC0
0FE0
01F0
0078
003C
001C
000C
C00C
C00C
F018
7878
3870
1FF0
0F80
ENDCHAR
STARTCHAR $0054
ENCODING 84
SWIDTH 444 0
DWIDTH 15 0
BBX 13 24 0 0
BITMAP
FFF8
FFF8
0300
0300
0300
0300
0300
0300
0300
0300
0300
0300
0300
0300
0300
0300
0300
0300
0300
0300
0300
0300
0300
0300
ENDCHAR
STARTCHAR $0055
ENCODING 85
SWIDTH 666 0
DWIDTH 22 0
BBX 17 24 2 0
BITMAP
C00380
C00380
C00380
C00380
C00380
C00380
C00380
C00380
C00380
C00380
C00380
C00380
C00380
C00380
C00380
C00380
C00300
E00600
F00600
700600
780C00
381C00
1FF800
07F000
ENDCHAR
STARTCHAR $0056
ENCODING 86
SWIDTH 703 0
DWIDTH 23 0
BBX 22 24 0 0
BITMAP
F0001C
70001C
70001C
700018
380030
380030
0C0060
0C0060
0C00E0
0E01C0
0601C0
0701C0
030380
030380
030780
018700
018600
018600
00CC00
00EC00
00F800
007800
007800
003800
ENDCHAR
STARTCHAR $0057
ENCODING 87
SWIDTH 962 0
DWIDTH 31 0
BBX 30 24 0 0
BITMAP
C003801C
7003801C
7007801C
7007C01C
7007C018
3807C030
380DC030
380CE030
380C6060
180C6060
0C186060
0C187060
0C383060
063830C0
063830C0
063018C0
06701DC0
06701D80
03701D80
03E01D80
03C00F80
01C00F00
01C00F00
01C00F00
ENDCHAR
STARTCHAR $0058
ENCODING 88
SWIDTH 592 0
DWIDTH 19 0
BBX 17 24 1 0
BITMAP
C00380
700780
700700
780600
180E00
0C0C00
0E1800
063800
077000
07E000
03C000
01C000
03E000
03F000
07F000
073800
063800
0C1C00
3C0C00
380600
700700
700780
E00380
C00080
ENDCHAR
STARTCHAR $0059
ENCODING 89
SWIDTH 592 0
DWIDTH 19 0
BBX 19 24 0 0
BITMAP
F001E0
7001C0
7001C0
7803C0
380380
3C0780
0C0600
0E0E00
060E00
071C00
073800
033800
03F000
01F000
00E000
00C000
00C000
00C000
00C000
00C000
00C000
00C000
00C000
00C000
ENDCHAR
STARTCHAR $005A
ENCODING 90
SWIDTH 481 0
DWIDTH 16 0
BBX 15 24 0 0
BITMAP
7FFC
7FFC
001C
001C
0038
0038
0070
00F0
00E0
00C0
01C0
0180
0300
0700
0600
0E00
0E00
0C00
3800
7800
7000
7000
FFFE
FFFE
ENDCHAR
STARTCHAR $005B
ENCODING 91
SWIDTH 333 0
DWIDTH 11 0
BBX 7 31 2 -7
BITMAP
FE
FE
E0
C0
C0
C0
C0
C0
C0
C0
C0
C0
C0
C0
C0
C0
C0
C0
C0
C0
C0
C0
C0
C0
C0
C0
C0
C0
FE
FE
FE
ENDCHAR
STARTCHAR $005C
ENCODING 92
SWIDTH 518 0
DWIDTH 17 0
BBX 12 26 2 -4
BITMAP
C000
F000
7000
7000
7000
3800
3800
3800
1C00
0C00
0C00
0C00
0600
0600
0600
0300
0300
0300
0300
0180
0180
0180
00C0
00C0
00E0
00F0
ENDCHAR
STARTCHAR $005D
ENCODING 93
SWIDTH 333 0
DWIDTH 11 0
BBX 7 31 1 -7
BITMAP
FE
FE
0E
06
06
06
06
06
06
06
06
06
06
06
06
06
06
06
06
06
06
06
06
06
06
06
06
06
FE
FE
FE
ENDCHAR
STARTCHAR $005E
ENCODING 94
SWIDTH 592 0
DWIDTH 19 0
BBX 18 18 1 6
BITMAP
01C000
03C000
03C000
03E000
037000
063000
063800
0C3800
0C3C00
180C00
380C00
380C00
780600
700600
700380
E00380
C00380
C003C0
ENDCHAR
STARTCHAR $005F
ENCODING 95
SWIDTH 518 0
DWIDTH 17 0
BBX 15 2 0 -4
BITMAP
FFFE
FFFE
ENDCHAR
STARTCHAR $0060
ENCODING 96
SWIDTH 370 0
DWIDTH 12 0
BBX 7 5 1 20
BITMAP
F0
78
1E
0E
04
ENDCHAR
STARTCHAR $0061
ENCODING 97
SWIDTH 666 0
DWIDTH 22 0
BBX 19 18 1 0
BITMAP
03F860
0FFE60
1E0FE0
3807E0
7003E0
7001E0
F001E0
E000E0
C00060
C00060
E000E0
F001E0
7001E0
7803E0
3C0660
1FFC60
0FFC60
03F860
ENDCHAR
STARTCHAR $0062
ENCODING 98
SWIDTH 666 0
DWIDTH 22 0
BBX 18 24 2 0
BITMAP
C00000
C00000
C00000
C00000
C00000
C00000
C3F000
CFFC00
FC0E00
F00300
E00380
C003C0
C001C0
C001C0
C001C0
C001C0
C001C0
E001C0
F003C0
F00380
FC0F00
FE1E00
CFFC00
C3F000
ENDCHAR
STARTCHAR $0063
ENCODING 99
SWIDTH 629 0
DWIDTH 21 0
BBX 18 18 1 0
BITMAP
03F800
0FFE00
1E0F00
380780
7003C0
7001C0
F00000
E00000
C00000
C00000
E00000
F00000
7001C0
7803C0
3C0780
1FFF00
0FFE00
03F800
ENDCHAR
STARTCHAR $0064
ENCODING 100
SWIDTH 703 0
DWIDTH 23 0
BBX 19 24 1 0
BITMAP
000060
000060
000060
000060
000060
000060
03F860
0FFE60
3C07E0
7803E0
7001E0
7001E0
F001E0
C00060
C00060
C00060
E00060
F00060
7001E0
7803E0
3C07E0
1E0E60
0FFC60
03F860
ENDCHAR
STARTCHAR $0065
ENCODING 101
SWIDTH 666 0
DWIDTH 22 0
BBX 18 18 1 0
BITMAP
03F800
0FFE00
1E0F00
380780
700380
6001C0
E001C0
FFFFC0
FFFFC0
E00000
C00000
E00000
7001C0
780380
3C0600
1FFC00
0FFC00
03F000
ENDCHAR
STARTCHAR $0066
ENCODING 102
SWIDTH 296 0
DWIDTH 10 0
BBX 9 24 0 0
BITMAP
0180
0780
0F00
0E00
0C00
1C00
FF80
FF80
1C00
0C00
0C00
0C00
0C00
0C00
0C00
0C00
0C00
0C00
0C00
0C00
0C00
0C00
0C00
0C00
ENDCHAR
STARTCHAR $0067
ENCODING 103
SWIDTH 666 0
DWIDTH 22 0
BBX 18 25 1 -7
BITMAP
03F9C0
0FFDC0
1E1FC0
380FC0
7003C0
6001C0
E001C0
C001C0
C001C0
C001C0
E001C0
F001C0
7001C0
7803C0
3C07C0
1FFDC0
0FFDC0
03F1C0
7001C0
7001C0
380380
380380
1F0700
0FFE00
00F800
ENDCHAR
STARTCHAR $0068
ENCODING 104
SWIDTH 592 0
DWIDTH 19 0
BBX 15 24 2 0
BITMAP
C000
C000
C000
C000
C000
C000
C7E0
FFF8
F83C
F00C
E00C
C00C
C006
C006
C006
C006
C006
C006
C006
C006
C006
C006
C006
C006
ENDCHAR
STARTCHAR $0069
ENCODING 105
SWIDTH 185 0
DWIDTH 6 0
BBX 2 24 2 0
BITMAP
C0
C0
C0
C0
00
00
C0
C0
C0
C0
C0
C0
C0
C0
C0
C0
C0
C0
C0
C0
C0
C0
C0
C0
ENDCHAR
STARTCHAR $006A
ENCODING 106
SWIDTH 185 0
DWIDTH 6 0
BBX 6 30 -1 -6
BITMAP
0C
0C
0C
08
00
00
0C
0C
0C
0C
0C
0C
0C
0C
0C
0C
0C
0C
0C
0C
0C
0C
0C
0C
1C
38
38
F0
E0
C0
ENDCHAR
STARTCHAR $006B
ENCODING 107
SWIDTH 518 0
DWIDTH 17 0
BBX 13 24 2 0
BITMAP
C000
C000
C000
C000
C000
C000
C078
C0F0
C0E0
C0C0
C180
C380
C700
C600
CC00
FE00
FF00
FF80
F3C0
E1C0
C0E0
C060
C070
C038
ENDCHAR
STARTCHAR $006C
ENCODING 108
SWIDTH 185 0
DWIDTH 6 0
BBX 2 24 2 0
BITMAP
C0
C0
C0
C0
C0
C0
C0
C0
C0
C0
C0
C0
C0
C0
C0
C0
C0
C0
C0
C0
C0
C0
C0
C0
ENDCHAR
STARTCHAR $006D
ENCODING 109
SWIDTH 925 0
DWIDTH 30 0
BBX 26 18 2 0
BITMAP
CF81FC00
FFF3FF00
F07F0700
E03E0380
C03C0180
C01C0180
C00C00C0
C00C00C0
C00C00C0
C00C00C0
C00C00C0
C00C00C0
C00C00C0
C00C00C0
C00C00C0
C00C00C0
C00C00C0
C00C00C0
ENDCHAR
STARTCHAR $006E
ENCODING 110
SWIDTH 592 0
DWIDTH 19 0
BBX 15 18 2 0
BITMAP
C7C0
FFF8
F83C
F81C
F00C
C00C
C006
C006
C006
C006
C006
C006
C006
C006
C006
C006
C006
C006
ENDCHAR
STARTCHAR $006F
ENCODING 111
SWIDTH 666 0
DWIDTH 22 0
BBX 19 18 1 0
BITMAP
03F800
0FFE00
1E0F00
380780
7003C0
7001C0
F001C0
E001E0
C000E0
C000C0
E001C0
F001C0
7001C0
780380
3C0780
1FFF00
0FFE00
03F800
ENDCHAR
STARTCHAR $0070
ENCODING 112
SWIDTH 666 0
DWIDTH 22 0
BBX 18 24 2 -6
BITMAP
C3F000
CFFC00
FE1E00
F80F00
F00380
C003C0
C001C0
C001C0
C001C0
C001C0
C001C0
C001C0
E003C0
F00380
FC0E00
FFFC00
CFFC00
C3F000
C00000
C00000
C00000
C00000
C00000
C00000
ENDCHAR
STARTCHAR $0071
ENCODING 113
SWIDTH 666 0
DWIDTH 22 0
BBX 19 24 1 -6
BITMAP
03F860
0FFE60
1E0FE0
3807E0
7003E0
7001E0
F001E0
E000E0
C00060
C00060
E00060
F000E0
7001E0
7803E0
3C0660
1FFC60
0FFC60
03F860
000060
000060
000060
000060
000060
000060
ENDCHAR
STARTCHAR $0072
ENCODING 114
SWIDTH 296 0
DWIDTH 10 0
BBX 7 18 2 0
BITMAP
C6
FE
F8
F8
F0
C0
C0
C0
C0
C0
C0
C0
C0
C0
C0
C0
C0
C0
ENDCHAR
STARTCHAR $0073
ENCODING 115
SWIDTH 370 0
DWIDTH 12 0
BBX 12 18 0 0
BITMAP
0F00
1FC0
38C0
78C0
70C0
7000
7800
3E00
0780
01C0
00E0
00F0
E070
7070
7060
3FC0
1FC0
0F00
ENDCHAR
STARTCHAR $0074
ENCODING 116
SWIDTH 333 0
DWIDTH 11 0
BBX 10 24 0 0
BITMAP
0E00
0E00
0E00
0E00
0E00
1E00
FFC0
FFC0
1E00
0E00
0E00
0E00
0E00
0E00
0E00
0E00
0E00
0E00
0E00
0E00
0E00
0E00
0E00
0E00
ENDCHAR
STARTCHAR $0075
ENCODING 117
SWIDTH 592 0
DWIDTH 19 0
BBX 15 18 2 0
BITMAP
C006
C006
C006
C006
C006
C006
C006
C006
C006
C006
C006
C006
E00E
F00E
781E
3FF6
1FE6
0F86
ENDCHAR
STARTCHAR $0076
ENCODING 118
SWIDTH 555 0
DWIDTH 18 0
BBX 18 18 0 0
BITMAP
C003C0
700380
700380
700300
380600
380600
3C0C00
1C0C00
0C0C00
0E1C00
063800
073800
037000
037000
03F000
01E000
01C000
01C000
ENDCHAR
STARTCHAR $0077
ENCODING 119
SWIDTH 814 0
DWIDTH 27 0
BBX 26 18 0 0
BITMAP
C00000C0
700000C0
700C0180
700C0180
780E0180
383E0380
383E0300
1C3B0300
0C338E00
0C338E00
0C718E00
0671CE00
0661DC00
07C1DC00
03C05000
03C07000
03807000
01807000
ENDCHAR
STARTCHAR $0078
ENCODING 120
SWIDTH 481 0
DWIDTH 16 0
BBX 13 18 1 0
BITMAP
C038
F078
7070
7060
38C0
3DC0
0D80
0700
0700
0700
0F80
1D80
39C0
38C0
7070
E078
C038
C018
ENDCHAR
STARTCHAR $0079
ENCODING 121
SWIDTH 518 0
DWIDTH 17 0
BBX 17 24 0 -6
BITMAP
F00380
700780
700700
700600
380600
380C00
3C0C00
1C1800
0C3800
0E3800
067800
077000
077000
03C000
03C000
01C000
018000
018000
038000
030000
030000
070000
060000
060000
ENDCHAR
STARTCHAR $007A
ENCODING 122
SWIDTH 407 0
DWIDTH 14 0
BBX 13 18 0 0
BITMAP
7FF8
7FF8
0070
0060
00C0
01C0
0180
0300
0700
0700
0E00
1C00
3C00
7800
7000
FFF8
FFF8
FFF8
ENDCHAR
STARTCHAR $007B
ENCODING 123
SWIDTH 370 0
DWIDTH 12 0
BBX 9 31 1 -7
BITMAP
0180
0780
0F00
0E00
0C00
0C00
0C00
0C00
0C00
0C00
0C00
0C00
0C00
3C00
F800
F800
F800
1C00
0C00
0C00
0C00
0C00
0C00
0C00
0C00
0C00
0C00
0E00
0780
0780
0380
ENDCHAR
STARTCHAR $007C
ENCODING 124
SWIDTH 222 0
DWIDTH 8 0
BBX 2 26 2 -4
BITMAP
C0
C0
C0
C0
C0
C0
C0
C0
C0
C0
C0
C0
C0
C0
C0
C0
C0
C0
C0
C0
C0
C0
C0
C0
C0
C0
ENDCHAR
STARTCHAR $007D
ENCODING 125
SWIDTH 370 0
DWIDTH 12 0
BBX 9 31 1 -7
BITMAP
C000
F800
3C00
1C00
0C00
0C00
0C00
0C00
0C00
0C00
0C00
0C00
0C00
0E00
0780
0780
0780
0E00
0C00
0C00
0C00
0C00
0C00
0C00
0C00
0C00
0C00
1C00
F800
F000
C000
ENDCHAR
STARTCHAR $007E
ENCODING 126
SWIDTH 592 0
DWIDTH 19 0
BBX 15 5 2 7
BITMAP
3C06
FF8E
E3FE
C3FC
80F8
ENDCHAR
STARTCHAR $00A0
ENCODING 160
SWIDTH 259 0
DWIDTH 9 0
BBX 0 0 0 0
BITMAP
ENDCHAR
STARTCHAR $00A1
ENCODING 161
SWIDTH 296 0
DWIDTH 10 0
BBX 2 24 4 -6
BITMAP
C0
C0
C0
C0
00
00
C0
C0
C0
C0
C0
C0
C0
C0
C0
C0
C0
C0
C0
C0
C0
C0
C0
C0
ENDCHAR
STARTCHAR $00A2
ENCODING 162
SWIDTH 555 0
DWIDTH 18 0
BBX 14 20 1 3
BITMAP
0180
0180
03C0
07E0
0FF8
3C1C
700C
7000
C000
C000
C000
E000
F000
700C
781C
3FF8
1FF8
07C0
0180
0180
ENDCHAR
STARTCHAR $00A3
ENCODING 163
SWIDTH 555 0
DWIDTH 18 0
BBX 19 24 0 0
BITMAP
01F800
07FE00
0F0F00
0E0780
0C0380
3801C0
3801C0
380000
380000
380000
FFFC00
FFFC00
FFFC00
030000
018000
018060
018060
018060
018060
0181E0
0183C0
03C380
3FFF00
3FFC00
ENDCHAR
STARTCHAR $00A4
ENCODING 164
SWIDTH 555 0
DWIDTH 18 0
BBX 15 17 1 1
BITMAP
47C4
FFFE
783E
781C
700C
C006
C006
C006
C006
C006
C006
E006
700C
783C
FFFE
67E4
07C4
ENDCHAR
STARTCHAR $00A5
ENCODING 165
SWIDTH 555 0
DWIDTH 18 0
BBX 19 24 0 0
BITMAP
C00060
7000C0
7001C0
7001C0
380380
380200
0C0600
060C00
7E0F80
7F1FC0
073800
033800
01F000
01F000
7FFFC0
7FFFC0
3FFFC0
00C000
00C000
00C000
00C000
00C000
00C000
00C000
ENDCHAR
STARTCHAR $00A6
ENCODING 166
SWIDTH 592 0
DWIDTH 19 0
BBX 2 27 8 -2
BITMAP
C0
C0
C0
C0
C0
C0
C0
C0
C0
C0
00
00
00
00
00
00
00
C0
C0
C0
C0
C0
C0
C0
C0
C0
C0
ENDCHAR
STARTCHAR $00A7
ENCODING 167
SWIDTH 629 0
DWIDTH 21 0
BBX 14 28 2 -3
BITMAP
07C0
0FF0
1870
3838
3818
3800
3800
3C00
3F00
77C0
60F0
40F8
C01C
C00C
700C
3C0C
1C0C
0F8C
03F8
00F8
0038
0018
700C
700C
7038
3C78
1FF0
03C0
ENDCHAR
STARTCHAR $00A8
ENCODING 168
SWIDTH 370 0
DWIDTH 12 0
BBX 7 4 2 20
BITMAP
C6
C6
C6
C6
ENDCHAR
STARTCHAR $00A9
ENCODING 169
SWIDTH 740 0
DWIDTH 24 0
BBX 23 23 1 0
BITMAP
01FC00
060300
080000
080040
300020
40FC10
43EF88
8701CC
8C000C
8C0000
8C0002
8C0002
8C0002
8C000C
8601CC
C3038C
C38308
41FE10
300030
080060
060380
060300
00FC00
ENDCHAR
STARTCHAR $00AA
ENCODING 170
SWIDTH 370 0
DWIDTH 12 0
BBX 9 13 1 11
BITMAP
3E80
7380
E180
C080
8080
8080
C180
6380
7E80
0000
0000
0000
FF80
ENDCHAR
STARTCHAR $00AB
ENCODING 171
SWIDTH 407 0
DWIDTH 14 0
BBX 10 12 1 4
BITMAP
0CC0
18C0
38C0
7980
7380
C300
F300
7180
3980
38C0
18C0
0CC0
ENDCHAR
STARTCHAR $00AC
ENCODING 172
SWIDTH 740 0
DWIDTH 24 0
BBX 19 9 2 2
BITMAP
FFFFE0
FFFFE0
0000E0
000060
000060
000060
000060
000060
000060
ENDCHAR
STARTCHAR $00AD
ENCODING 173
SWIDTH 333 0
DWIDTH 11 0
BBX 8 2 1 8
BITMAP
FF
FF
ENDCHAR
STARTCHAR $00AE
ENCODING 174
SWIDTH 740 0
DWIDTH 24 0
BBX 23 23 1 0
BITMAP
01FC00
060300
080060
080060
300020
43F810
421E08
82060C
82020C
820200
820602
820E02
827C02
82700C
82380C
C21C0C
C20C08
420610
300030
080060
060380
060300
00FC00
ENDCHAR
STARTCHAR $00AF
ENCODING 175
SWIDTH 481 0
DWIDTH 16 0
BBX 10 2 2 21
BITMAP
FFC0
FFC0
ENDCHAR
STARTCHAR $00B0
ENCODING 176
SWIDTH 407 0
DWIDTH 14 0
BBX 9 10 1 15
BITMAP
0E00
7F80
6180
4080
C080
C080
4080
6080
3F00
0C00
ENDCHAR
STARTCHAR $00B1
ENCODING 177
SWIDTH 703 0
DWIDTH 23 0
BBX 18 24 2 -6
BITMAP
00C000
00C000
00C000
00C000
00C000
00C000
00C000
00C000
FFFF80
FFFFC0
00F000
00E000
00C000
00C000
00C000
00C000
00C000
00C000
00C000
000000
000000
000000
FFFFC0
FFFF80
ENDCHAR
STARTCHAR $00B2
ENCODING 178
SWIDTH 333 0
DWIDTH 11 0
BBX 10 14 0 11
BITMAP
0F00
7F80
7080
60C0
40C0
00C0
0180
0380
0700
0C00
1800
3800
7000
FFC0
ENDCHAR
STARTCHAR $00B3
ENCODING 179
SWIDTH 333 0
DWIDTH 11 0
BBX 10 14 0 11
BITMAP
0E00
1F00
3180
6180
0180
0700
0F00
0180
00C0
C0C0
40C0
6080
7180
3F00
ENDCHAR
STARTCHAR $00B4
ENCODING 180
SWIDTH 370 0
DWIDTH 12 0
BBX 7 5 4 20
BITMAP
0E
1C
F0
E0
40
ENDCHAR
STARTCHAR $00B5
ENCODING 181
SWIDTH 592 0
DWIDTH 19 0
BBX 15 23 2 -5
BITMAP
C006
C006
C006
C006
C006
C006
C006
C006
C006
C006
C006
E00E
F00E
F03E
F87E
FFF6
CFE6
C786
C000
C000
C000
C000
C000
ENDCHAR
STARTCHAR $00B6
ENCODING 182
SWIDTH 555 0
DWIDTH 18 0
BBX 14 28 1 -3
BITMAP
0FFC
7FFC
7F1C
7F0C
FF0C
FF0C
FF0C
FF0C
7F0C
7F0C
3F0C
1F0C
030C
030C
030C
030C
030C
030C
030C
030C
030C
030C
030C
030C
030C
030C
030C
030C
ENDCHAR
STARTCHAR $00B7
ENCODING 183
SWIDTH 222 0
DWIDTH 8 0
BBX 2 4 2 6
BITMAP
C0
C0
C0
C0
ENDCHAR
STARTCHAR $00B8
ENCODING 184
SWIDTH 333 0
DWIDTH 11 0
BBX 7 7 2 -7
BITMAP
30
7C
7C
7C
06
C6
7C
ENDCHAR
STARTCHAR $00B9
ENCODING 185
SWIDTH 333 0
DWIDTH 11 0
BBX 4 14 4 11
BITMAP
F0
30
30
30
30
30
30
30
30
30
30
30
30
30
ENDCHAR
STARTCHAR $00BA
ENCODING 186
SWIDTH 370 0
DWIDTH 12 0
BBX 9 13 1 11
BITMAP
3E00
7300
E180
C080
8080
8080
C180
6300
3E00
0000
0000
0000
FF80
ENDCHAR
STARTCHAR $00BB
ENCODING 187
SWIDTH 407 0
DWIDTH 14 0
BBX 10 12 1 4
BITMAP
C300
7300
7180
71C0
39C0
3CC0
38C0
38C0
7180
7380
E300
C300
ENDCHAR
STARTCHAR $00BC
ENCODING 188
SWIDTH 814 0
DWIDTH 27 0
BBX 22 24 4 0
BITMAP
F00200
300600
300600
300400
300C00
300800
301800
303000
303000
306038
30403C
30403C
30C07C
30C1DC
01819C
01839C
01031C
03061C
020C1C
060C1C
040FFC
0C07FC
08001C
080018
ENDCHAR
STARTCHAR $00BD
ENCODING 189
SWIDTH 814 0
DWIDTH 27 0
BBX 23 24 4 0
BITMAP
F00200
300600
300600
300400
300C00
300800
301800
303000
303000
3063F8
30471C
30C61E
30860E
31840E
01800E
01001C
010018
030030
020060
0601C0
040380
0C0300
080700
0807FC
ENDCHAR
STARTCHAR $00BE
ENCODING 190
SWIDTH 814 0
DWIDTH 27 0
BBX 26 24 0 0
BITMAP
0E003000
1F002000
31806000
61806000
01806000
07004000
0F01C000
01818000
00C18000
C0C30300
40C60380
60860780
71840F80
3F0C1F80
00081180
00183180
00383180
00306180
0031C180
0071C180
0061FFC0
0040FF80
00C00180
00800180
ENDCHAR
STARTCHAR $00BF
ENCODING 191
SWIDTH 592 0
DWIDTH 19 0
BBX 14 25 2 -7
BITMAP
0300
0300
0300
0300
0000
0000
0300
0300
0700
0700
0E00
1C00
3C00
7800
F000
E000
C000
C00C
C00C
C00C
E01C
F03C
7878
3FF0
0780
ENDCHAR
STARTCHAR $00C0
ENCODING 192
SWIDTH 740 0
DWIDTH 24 0
BBX 22 30 1 2
BITMAP
038000
01C000
007000
003800
001000
000000
007000
00F800
00F800
00CC00
018C00
018C00
038C00
030600
030600
070300
060380
060380
0C03C0
0FFFC0
1FFFC0
3FFFC0
380060
380060
700030
700030
C00038
C0001C
C0001C
C00008
ENDCHAR
STARTCHAR $00C1
ENCODING 193
SWIDTH 740 0
DWIDTH 24 0
BBX 22 30 1 2
BITMAP
000E00
001C00
00F000
006000
000000
000000
007000
00F800
00F800
00CC00
018C00
018C00
038C00
030600
030600
070300
060380
060380
0C03C0
0FFFC0
1FFFC0
3FFFC0
380060
380060
700030
700030
C00038
C0001C
C0001C
C00008
ENDCHAR
STARTCHAR $00C2
ENCODING 194
SWIDTH 740 0
DWIDTH 24 0
BBX 22 30 1 1
BITMAP
007000
00F800
00DC00
018C00
070780
000000
007000
00F800
00F800
00CC00
018C00
018C00
038C00
030600
030600
070300
060380
060380
0C03C0
0FFFC0
1FFFC0
3FFFC0
380060
380060
700030
700030
C00038
C0001C
C0001C
C00008
ENDCHAR
STARTCHAR $00C3
ENCODING 195
SWIDTH 740 0
DWIDTH 24 0
BBX 22 30 1 1
BITMAP
008000
03C400
033E00
031E00
000800
000000
007000
00F800
00F800
00CC00
018C00
018C00
038C00
030600
030600
070300
060380
060380
0C03C0
0FFFC0
1FFFC0
3FFFC0
380060
380060
700030
700030
C00038
C0001C
C0001C
C00008
ENDCHAR
STARTCHAR $00C4
ENCODING 196
SWIDTH 740 0
DWIDTH 24 0
BBX 22 30 1 1
BITMAP
018C00
018C00
018C00
008C00
000000
000000
007000
00F800
00F800
00CC00
018C00
018C00
038C00
030600
030600
070300
060380
060380
0C03C0
0FFFC0
1FFFC0
3FFFC0
380060
380060
700030
700030
C00038
C0001C
C0001C
C00008
ENDCHAR
STARTCHAR $00C5
ENCODING 197
SWIDTH 740 0
DWIDTH 24 0
BBX 22 32 1 0
BITMAP
007800
008800
008C00
018C00
018C00
00C800
00F800
000000
003000
007800
00F800
00F800
018C00
018C00
038C00
038600
030600
030600
060380
060380
0C03C0
0E03C0
1FFFC0
3FFFC0
380060
380060
700030
700030
E00038
C0003C
C0001C
C0001C
ENDCHAR
STARTCHAR $00C6
ENCODING 198
SWIDTH 1000 0
DWIDTH 32 0
BBX 28 24 1 0
BITMAP
0001FFF0
0003FFF0
0007F000
0007E000
00066000
000C6000
001C6000
00386000
00386000
00706000
00E07FF0
00E07FF0
01C07FF0
03C06000
07FFE000
07FFE000
07FFE000
0E006000
3C006000
38006000
78006000
70007000
E0007FF0
C0007FF0
ENDCHAR
STARTCHAR $00C7
ENCODING 199
SWIDTH 814 0
DWIDTH 27 0
BBX 23 31 1 -7
BITMAP
00FF80
03FFE0
0F00F8
1F007C
3C001E
38000C
700000
700000
F00000
E00000
C00000
C00000
C00000
C00000
700000
700000
700000
780000
38000E
3C001E
1F007C
0F80F0
03FFC0
00FF80
001800
001E00
003F80
000380
002380
003300
001E00
ENDCHAR
STARTCHAR $00C8
ENCODING 200
SWIDTH 518 0
DWIDTH 17 0
BBX 13 31 2 1
BITMAP
3000
3800
3E00
1F00
0780
0100
0000
FFF8
FFF8
E000
C000
C000
C000
C000
C000
C000
C000
E000
FFF8
FFF8
E000
C000
C000
C000
C000
C000
C000
C000
FFF8
FFF8
FFF8
ENDCHAR
STARTCHAR $00C9
ENCODING 201
SWIDTH 518 0
DWIDTH 17 0
BBX 13 31 2 1
BITMAP
0040
00C0
01C0
07C0
0F00
0400
0000
FFF8
FFF8
E000
C000
C000
C000
C000
C000
C000
C000
E000
FFF8
FFF8
E000
C000
C000
C000
C000
C000
C000
C000
FFF8
FFF8
FFF8
ENDCHAR
STARTCHAR $00CA
ENCODING 202
SWIDTH 518 0
DWIDTH 17 0
BBX 13 30 2 1
BITMAP
0700
0F80
1EC0
3860
7030
0000
FFF8
FFF8
C000
C000
C000
C000
C000
C000
C000
C000
E000
FFF8
FFF8
E000
C000
C000
C000
C000
C000
C000
C000
FFF8
FFF8
FFF0
ENDCHAR
STARTCHAR $00CB
ENCODING 203
SWIDTH 518 0
DWIDTH 17 0
BBX 13 30 2 1
BITMAP
3D80
3D80
3D80
1880
0000
0000
FFF8
FFF8
C000
C000
C000
C000
C000
C000
C000
C000
E000
FFF8
FFF8
E000
C000
C000
C000
C000
C000
C000
C000
FFF8
FFF8
FFF0
ENDCHAR
STARTCHAR $00CC
ENCODING 204
SWIDTH 222 0
DWIDTH 8 0
BBX 7 30 -1 2
BITMAP
F0
78
3E
1E
04
00
0C
0C
0C
0C
0C
0C
0C
0C
0C
0C
0C
0C
0C
0C
0C
0C
0C
0C
0C
0C
0C
0C
0C
0C
ENDCHAR
STARTCHAR $00CD
ENCODING 205
SWIDTH 222 0
DWIDTH 8 0
BBX 7 30 1 2
BITMAP
0E
1C
F8
F8
40
00
70
70
70
70
70
70
70
70
70
70
70
70
70
70
70
70
70
70
70
70
70
70
70
20
ENDCHAR
STARTCHAR $00CE
ENCODING 206
SWIDTH 222 0
DWIDTH 8 0
BBX 12 30 -2 1
BITMAP
0600
0F00
19C0
38E0
F0F0
0000
0600
0600
0600
0600
0600
0600
0600
0600
0600
0600
0600
0600
0600
0600
0600
0600
0600
0600
0600
0600
0600
0600
0600
0600
ENDCHAR
STARTCHAR $00CF
ENCODING 207
SWIDTH 222 0
DWIDTH 8 0
BBX 7 30 0 1
BITMAP
C6
C6
C6
C6
00
00
18
38
38
38
38
38
38
38
38
38
38
38
38
38
38
38
38
38
38
38
38
38
38
10
ENDCHAR
STARTCHAR $00D0
ENCODING 208
SWIDTH 777 0
DWIDTH 25 0
BBX 23 24 1 0
BITMAP
3FFC00
3FFF00
3803E0
3803E0
380070
38003C
38001C
38001C
38000E
38000E
FFE00E
FFF00E
FFF00E
38000E
38000E
38001E
38001C
38001C
38003C
380070
3803E0
3803E0
3FFF00
3FFC00
ENDCHAR
STARTCHAR $00D1
ENCODING 209
SWIDTH 740 0
DWIDTH 24 0
BBX 19 30 2 1
BITMAP
010000
078800
077C00
063C00
001000
000000
F00060
F80060
F80060
F80060
CC0060
CE0060
C60060
C30060
C38060
C18060
C0C060
C0E060
C0F060
C07860
C03860
C01860
C00C60
C00E60
C007E0
C003E0
C003E0
C001E0
C000E0
C00060
ENDCHAR
STARTCHAR $00D2
ENCODING 210
SWIDTH 851 0
DWIDTH 28 0
BBX 25 30 1 1
BITMAP
00C00000
00F80000
003C0000
001C0000
000C0000
00000000
007F8000
03FFE000
0700F800
0F003C00
18001E00
38000F00
78000700
70000380
70000180
E0000180
C0000180
C0000180
C0000180
C0000180
60000180
70000380
70000300
78000700
1C000F00
0E001E00
07007C00
03FFE000
00FF8000
00FF0000
ENDCHAR
STARTCHAR $00D3
ENCODING 211
SWIDTH 851 0
DWIDTH 28 0
BBX 25 30 1 1
BITMAP
00018000
00078000
001F0000
003E0000
00180000
00000000
007F8000
03FFE000
0700F800
0F003C00
18001E00
38000F00
78000700
70000380
70000180
E0000180
C0000180
C0000180
C0000180
C0000180
60000180
70000380
70000300
78000700
1C000F00
0E001E00
07007C00
03FFE000
00FF8000
00FF0000
ENDCHAR
STARTCHAR $00D4
ENCODING 212
SWIDTH 851 0
DWIDTH 28 0
BBX 25 28 1 2
BITMAP
003E0000
00770000
00E38000
0043C000
00000000
007F8000
03FFE000
0700F800
0E001C00
18000E00
38000700
78000700
70000380
70000380
E0000180
C0000180
C0000180
C0000180
C0000180
70000180
70000380
70000300
78000700
3C000F00
0F001C00
07007800
03FFE000
00FF8000
ENDCHAR
STARTCHAR $00D5
ENCODING 213
SWIDTH 851 0
DWIDTH 28 0
BBX 25 28 1 2
BITMAP
00798000
00FF8000
00030000
00020000
00000000
007F8000
03FFE000
0700F800
0E001C00
18000E00
38000700
78000700
70000380
70000380
E0000180
C0000180
C0000180
C0000180
C0000180
70000180
70000380
70000300
78000700
3C000F00
0F001C00
07007800
03FFE000
00FF8000
ENDCHAR
STARTCHAR $00D6
ENCODING 214
SWIDTH 851 0
DWIDTH 28 0
BBX 25 28 1 2
BITMAP
00738000
00738000
00738000
00230000
00000000
007F8000
03FFE000
0700F800
0E001C00
18000E00
38000700
78000700
70000380
70000380
E0000180
C0000180
C0000180
C0000180
C0000180
70000180
70000380
70000300
78000700
3C000F00
0F001C00
07007800
03FFE000
00FF8000
ENDCHAR
STARTCHAR $00D7
ENCODING 215
SWIDTH 592 0
DWIDTH 19 0
BBX 14 14 2 3
BITMAP
4000
F00C
7018
7838
1C70
0EC0
0780
0380
07C0
0CF0
1870
3878
701C
400C
ENDCHAR
STARTCHAR $00D8
ENCODING 216
SWIDTH 851 0
DWIDTH 28 0
BBX 25 28 1 -1
BITMAP
00000200
00000300
00FF0600
00FF8C00
03FFFC00
07007C00
0E003E00
18006F00
7800C700
7003C300
70038380
60030180
C0060180
C00C0180
C01C0180
C0380180
E0780180
70700180
70C00380
79800700
3B800F00
1F801E00
0F003C00
0700F800
1FFFE000
3CFF8000
78000000
30000000
ENDCHAR
STARTCHAR $00D9
ENCODING 217
SWIDTH 666 0
DWIDTH 22 0
BBX 17 30 2 2
BITMAP
0E0000
070000
03C000
03C000
008000
000000
C00380
C00380
C00380
C00380
C00380
C00380
C00380
C00380
C00380
C00380
C00380
C00380
C00380
C00380
C00380
C00380
C00300
C00600
F00600
700600
780C00
3FF800
07F000
07E000
ENDCHAR
STARTCHAR $00DA
ENCODING 218
SWIDTH 666 0
DWIDTH 22 0
BBX 17 30 2 2
BITMAP
007800
01F000
03C000
038000
030000
000000
C00380
C00380
C00380
C00380
C00380
C00380
C00380
C00380
C00380
C00380
C00380
C00380
C00380
C00380
C00380
C00380
C00300
C00600
F00600
700600
780C00
3FF800
07F000
07E000
ENDCHAR
STARTCHAR $00DB
ENCODING 219
SWIDTH 666 0
DWIDTH 22 0
BBX 17 30 2 1
BITMAP
018000
03C000
0F6000
1E3000
1C1800
000000
C00380
C00380
C00380
C00380
C00380
C00380
C00380
C00380
C00380
C00380
C00380
C00380
C00380
C00380
C00380
C00380
C00300
C00600
F00600
700600
780C00
3FF800
07F000
07E000
ENDCHAR
STARTCHAR $00DC
ENCODING 220
SWIDTH 666 0
DWIDTH 22 0
BBX 17 30 2 1
BITMAP
067000
067000
067000
062000
000000
000000
C00380
C00380
C00380
C00380
C00380
C00380
C00380
C00380
C00380
C00380
C00380
C00380
C00380
C00380
C00380
C00380
C00300
C00600
F00600
700600
780C00
3FF800
07F000
07E000
ENDCHAR
STARTCHAR $00DD
ENCODING 221
SWIDTH 592 0
DWIDTH 19 0
BBX 19 30 0 2
BITMAP
003C00
007800
00E000
01C000
018000
000000
F001E0
7001C0
7801C0
380380
380780
1C0700
0C0600
0E0E00
060C00
071800
073800
03B800
03F000
01F000
00E000
00C000
00C000
00C000
00C000
00C000
00C000
00C000
00C000
00C000
ENDCHAR
STARTCHAR $00DE
ENCODING 222
SWIDTH 592 0
DWIDTH 19 0
BBX 15 24 2 0
BITMAP
C000
C000
C000
C000
E000
FFF0
FFFC
E01C
C006
C006
C006
C006
C006
C006
C006
C01C
E03C
FFF8
FFC0
E000
C000
C000
C000
C000
ENDCHAR
STARTCHAR $00DF
ENCODING 223
SWIDTH 555 0
DWIDTH 18 0
BBX 14 24 2 0
BITMAP
0F80
7FC0
70E0
6070
C030
C038
C038
C038
C030
C070
C7E0
C7E0
C7F0
C078
C00C
C00C
E00C
F00C
F00C
F80C
FC18
FE30
CFF0
C7C0
ENDCHAR
STARTCHAR $00E0
ENCODING 224
SWIDTH 666 0
DWIDTH 22 0
BBX 19 24 1 1
BITMAP
060000
038000
01E000
00E000
000000
000000
03F860
0FFE60
3C07E0
7803E0
7001E0
7001E0
F001E0
C00060
C00060
C00060
E000E0
F001E0
7001E0
7803E0
3C07E0
1E0E60
0FFC60
03F860
ENDCHAR
STARTCHAR $00E1
ENCODING 225
SWIDTH 666 0
DWIDTH 22 0
BBX 19 24 1 1
BITMAP
003C00
007800
00E000
01C000
018000
000000
03F860
0FFE60
3C07E0
7803E0
7001E0
7001E0
F001E0
C00060
C00060
C00060
E000E0
F001E0
7001E0
7803E0
3C07E0
1E0E60
0FFC60
03F860
ENDCHAR
STARTCHAR $00E2
ENCODING 226
SWIDTH 666 0
DWIDTH 22 0
BBX 19 24 1 0
BITMAP
00C000
01F000
033000
071800
0E0C00
000000
03F860
0FFE60
3C07E0
7803E0
7001E0
7001E0
F001E0
C00060
C00060
C00060
E000E0
F001E0
7001E0
7803E0
3C07E0
1E0E60
0FFC60
03F860
ENDCHAR
STARTCHAR $00E3
ENCODING 227
SWIDTH 666 0
DWIDTH 22 0
BBX 19 24 1 0
BITMAP
010000
078800
067C00
003C00
001000
000000
03F860
0FFE60
3C07E0
7803E0
7001E0
7001E0
F001E0
C00060
C00060
C00060
E000E0
F001E0
7001E0
7803E0
3C07E0
1E0E60
0FFC60
03F860
ENDCHAR
STARTCHAR $00E4
ENCODING 228
SWIDTH 666 0
DWIDTH 22 0
BBX 19 23 1 0
BITMAP
033800
033800
033800
031800
000000
03F860
0FFE60
1C07E0
7803E0
7001E0
F001E0
E000E0
C00060
C00060
C00060
E000E0
F001E0
7001E0
7803E0
3C0660
1FFC60
0FFC60
03F840
ENDCHAR
STARTCHAR $00E5
ENCODING 229
SWIDTH 666 0
DWIDTH 22 0
BBX 19 26 1 1
BITMAP
01F000
013000
003000
023800
023800
033000
01C000
000000
03F860
0FFE60
1E0FE0
3C07E0
7803E0
7001E0
F001E0
E000E0
C00060
C00060
C00060
F001E0
7001E0
7001E0
7803E0
3C0660
0FFC60
03F860
ENDCHAR
STARTCHAR $00E6
ENCODING 230
SWIDTH 1148 0
DWIDTH 37 0
BBX 34 18 1 0
BITMAP
03F861FC00
0FFE6FFE00
1E0FFE0F00
3807FC0700
7003F00180
7001F000C0
F0006000C0
E0007FFFC0
C0007FFFC0
C000600000
E000E00000
F001E00000
7001F001C0
7803FC0180
3C07FE0F00
1FFCEFFE00
0FFC67FC00
03F861F000
ENDCHAR
STARTCHAR $00E7
ENCODING 231
SWIDTH 629 0
DWIDTH 21 0
BBX 18 25 1 -7
BITMAP
03F800
0FFE00
1E0F00
380780
7003C0
7001C0
F00000
E00000
C00000
C00000
E00000
F00000
700000
7803C0
3C0780
1FFF00
0FFE00
03FC00
00C000
00F000
00F800
00F800
000C00
01C800
00F800
ENDCHAR
STARTCHAR $00E8
ENCODING 232
SWIDTH 666 0
DWIDTH 22 0
BBX 18 24 1 1
BITMAP
060000
038000
01E000
00E000
000000
000000
03F800
0FFE00
3C0700
780380
700180
6001C0
E001C0
FFFFC0
FFFFC0
E00000
C00000
E00000
7001C0
780380
3C0700
1E0E00
0FFC00
03F000
ENDCHAR
STARTCHAR $00E9
ENCODING 233
SWIDTH 666 0
DWIDTH 22 0
BBX 18 24 1 1
BITMAP
003C00
007800
00E000
01C000
018000
000000
03F800
0FFE00
3C0700
780380
700180
6001C0
E001C0
FFFFC0
FFFFC0
E00000
C00000
E00000
7001C0
780380
3C0700
1E0E00
0FFC00
03F000
ENDCHAR
STARTCHAR $00EA
ENCODING 234
SWIDTH 666 0
DWIDTH 22 0
BBX 18 24 1 0
BITMAP
00C000
01F000
073000
071800
0E0C00
000000
03F800
0FFE00
3C0700
780380
700180
6001C0
E001C0
FFFFC0
FFFFC0
E00000
C00000
E00000
7001C0
780380
3C0700
1E0E00
0FFC00
03F000
ENDCHAR
STARTCHAR $00EB
ENCODING 235
SWIDTH 666 0
DWIDTH 22 0
BBX 18 23 1 0
BITMAP
033800
033800
033800
031800
000000
03F800
0FFE00
1C0700
780380
7001C0
E001C0
E001C0
FFFFC0
FFFFC0
E00000
C00000
E00000
7001C0
780380
3C0600
1FFC00
0FFC00
03F000
ENDCHAR
STARTCHAR $00EC
ENCODING 236
SWIDTH 185 0
DWIDTH 6 0
BBX 6 25 -1 1
BITMAP
80
F0
70
78
0C
04
00
0C
0C
0C
0C
0C
0C
0C
0C
0C
0C
0C
0C
0C
0C
0C
0C
0C
0C
ENDCHAR
STARTCHAR $00ED
ENCODING 237
SWIDTH 185 0
DWIDTH 6 0
BBX 7 25 1 1
BITMAP
04
0E
38
78
F0
00
00
20
70
70
70
70
70
70
70
70
70
70
70
70
70
70
70
70
20
ENDCHAR
STARTCHAR $00EE
ENCODING 238
SWIDTH 185 0
DWIDTH 6 0
BBX 9 24 -2 0
BITMAP
0E00
1F00
3180
6080
8000
0000
0600
0600
0600
0600
0600
0600
0600
0600
0600
0600
0600
0600
0600
0600
0600
0600
0600
0600
ENDCHAR
STARTCHAR $00EF
ENCODING 239
SWIDTH 185 0
DWIDTH 6 0
BBX 7 24 0 0
BITMAP
C6
C6
C6
C6
00
00
18
38
38
38
38
38
38
38
38
38
38
38
38
38
38
38
38
38
ENDCHAR
STARTCHAR $00F0
ENCODING 240
SWIDTH 666 0
DWIDTH 22 0
BBX 19 24 1 0
BITMAP
033800
01F800
03F000
03F000
033800
003C00
03FE00
0FFE00
3C0700
7803C0
7001C0
6001C0
C001C0
C001E0
C00060
C000C0
E001C0
F001C0
7001C0
780380
3C0780
1E0F00
0FFE00
03F800
ENDCHAR
STARTCHAR $00F1
ENCODING 241
SWIDTH 592 0
DWIDTH 19 0
BBX 15 24 2 0
BITMAP
0400
1F10
19F0
08E0
00C0
0000
C7E0
FFF8
F83C
F00C
E00C
C00C
C006
C006
C006
C006
C006
C006
C006
C006
C006
C006
C006
C006
ENDCHAR
STARTCHAR $00F2
ENCODING 242
SWIDTH 666 0
DWIDTH 22 0
BBX 19 24 1 1
BITMAP
060000
038000
01E000
00E000
000000
000000
03F800
0FFE00
3C0700
7803C0
7001C0
7001C0
F001C0
C001E0
C00060
C000C0
E001C0
F001C0
7001C0
780380
3C0780
1E0F00
0FFE00
03F800
ENDCHAR
STARTCHAR $00F3
ENCODING 243
SWIDTH 666 0
DWIDTH 22 0
BBX 19 24 1 1
BITMAP
003C00
007800
00E000
01C000
018000
000000
03F800
0FFE00
3C0700
7803C0
7001C0
7001C0
F001C0
C001E0
C00060
C000C0
E001C0
F001C0
7001C0
780380
3C0780
1E0F00
0FFE00
03F800
ENDCHAR
STARTCHAR $00F4
ENCODING 244
SWIDTH 666 0
DWIDTH 22 0
BBX 19 24 1 0
BITMAP
00C000
01F000
033000
071800
0E0C00
000000
03F800
0FFE00
3C0700
7803C0
7001C0
7001C0
F001C0
C001E0
C00060
C000C0
E001C0
F001C0
7001C0
780380
3C0780
1E0F00
0FFE00
03F800
ENDCHAR
STARTCHAR $00F5
ENCODING 245
SWIDTH 666 0
DWIDTH 22 0
BBX 19 24 1 0
BITMAP
010000
078800
06FC00
007C00
001000
000000
03F800
0FFE00
3C0700
7803C0
7001C0
7001C0
F001C0
C001E0
C00060
C000C0
E001C0
F001C0
7001C0
780380
3C0780
1E0F00
0FFE00
03F800
ENDCHAR
STARTCHAR $00F6
ENCODING 246
SWIDTH 666 0
DWIDTH 22 0
BBX 19 23 1 0
BITMAP
033800
033800
033800
031800
000000
03F800
0FFE00
1C0700
780380
7001C0
F001C0
E001C0
C001E0
C00060
C001C0
E001C0
F001C0
7001C0
780380
3C0780
1FFF00
0FFE00
03F800
ENDCHAR
STARTCHAR $00F7
ENCODING 247
SWIDTH 703 0
DWIDTH 23 0
BBX 18 17 2 0
BITMAP
00C000
00C000
00C000
004000
000000
000000
000000
FFFFC0
FFFFC0
000000
000000
000000
000000
00C000
00C000
00C000
004000
ENDCHAR
STARTCHAR $00F8
ENCODING 248
SWIDTH 666 0
DWIDTH 22 0
BBX 18 20 1 0
BITMAP
000180
03FBC0
0FFF80
1FFF80
3C0780
780F80
7019C0
F039C0
C0F1C0
C0E1C0
C0C1C0
C181C0
E301C0
7701C0
7E0380
3C0780
3C0700
3FFE00
73F800
300000
ENDCHAR
STARTCHAR $00F9
ENCODING 249
SWIDTH 592 0
DWIDTH 19 0
BBX 15 25 2 1
BITMAP
0800
1C00
0F00
0780
0380
0000
0000
C006
C006
C006
C006
C006
C006
C006
C006
C006
C006
C006
C006
C00E
E00E
F01E
783E
3FF6
0F86
ENDCHAR
STARTCHAR $00FA
ENCODING 250
SWIDTH 592 0
DWIDTH 19 0
BBX 15 25 2 1
BITMAP
0030
00F0
01E0
07C0
0700
0000
0000
C006
C006
C006
C006
C006
C006
C006
C006
C006
C006
C006
C006
C00E
E00E
F01E
783E
3FF6
0F86
ENDCHAR
STARTCHAR $00FB
ENCODING 251
SWIDTH 592 0
DWIDTH 19 0
BBX 15 24 2 0
BITMAP
0380
07C0
1E60
1820
0000
0000
C006
C006
C006
C006
C006
C006
C006
C006
C006
C006
C006
C006
C00E
F00E
781E
383E
1FF6
0F86
ENDCHAR
STARTCHAR $00FC
ENCODING 252
SWIDTH 592 0
DWIDTH 19 0
BBX 15 24 2 0
BITMAP
0CC0
0CC0
0CC0
0840
0000
0000
C006
C006
C006
C006
C006
C006
C006
C006
C006
C006
C006
C006
C00E
F00E
781E
383E
1FF6
0F86
ENDCHAR
STARTCHAR $00FD
ENCODING 253
SWIDTH 518 0
DWIDTH 17 0
BBX 17 31 0 -6
BITMAP
000800
007800
00F000
01E000
038000
010000
000000
E00300
700780
700700
300600
380600
380C00
3C0C00
0C1800
0C3800
0C3800
067800
067000
077000
03E000
03C000
03C000
018000
018000
038000
030000
030000
070000
060000
060000
ENDCHAR
STARTCHAR $00FE
ENCODING 254
SWIDTH 666 0
DWIDTH 22 0
BBX 18 30 2 -6
BITMAP
C00000
C00000
C00000
C00000
C00000
C00000
C3F000
CFFC00
FC0E00
F00300
E00380
C003C0
C001C0
C001C0
C001C0
C001C0
C001C0
C001C0
C003C0
F00380
FC0F00
FE1E00
CFFC00
C3F000
C00000
C00000
C00000
C00000
C00000
C00000
ENDCHAR
STARTCHAR $00FF
ENCODING 255
SWIDTH 518 0
DWIDTH 17 0
BBX 17 30 0 -6
BITMAP
067000
067000
067000
062000
000000
000000
F00380
700780
700700
300600
380600
380C00
1C0C00
0C3800
0C3800
063800
067800
067000
077000
03E000
03C000
01C000
018000
018000
038000
030000
030000
060000
060000
060000
ENDCHAR
STARTCHAR $0100
ENCODING 256
SWIDTH 740 0
DWIDTH 24 0
BBX 22 28 1 2
BITMAP
07FF80
07FF80
000000
000000
000000
007000
00F800
00F800
01CC00
018C00
018C00
038C00
030600
030600
060380
060380
060380
0C03C0
0FFFC0
1FFFC0
3800E0
380060
300060
700030
600038
C00038
C0001C
C0001C
ENDCHAR
STARTCHAR $0101
ENCODING 257
SWIDTH 666 0
DWIDTH 22 0
BBX 19 23 1 0
BITMAP
0FFC00
0FFC00
000000
000000
000000
03F860
0FFE60
1C07E0
7803E0
7001E0
F001E0
E000E0
C00060
C00060
C00060
E000E0
F001E0
7001E0
7803E0
3C0660
1FFC60
0FFC60
03F840
ENDCHAR
STARTCHAR $0102
ENCODING 258
SWIDTH 740 0
DWIDTH 24 0
BBX 22 30 1 1
BITMAP
030600
030600
01FE00
00FC00
003000
000000
007000
00F800
00F800
00CC00
018C00
018C00
038C00
030600
030600
070300
060380
060380
0C03C0
0FFFC0
1FFFC0
3FFFC0
380060
380060
700030
700030
C00038
C0001C
C0001C
C00008
ENDCHAR
STARTCHAR $0103
ENCODING 259
SWIDTH 666 0
DWIDTH 22 0
BBX 19 24 1 0
BITMAP
060C00
060C00
03F800
03F800
00C000
000000
03F860
0FFE60
3C07E0
7803E0
7001E0
7001E0
F001E0
C00060
C00060
C00060
E000E0
F001E0
7001E0
7803E0
3C07E0
1E0E60
0FFC60
03F860
ENDCHAR
STARTCHAR $0104
ENCODING 260
SWIDTH 740 0
DWIDTH 24 0
BBX 23 32 1 -8
BITMAP
007000
00F800
00F800
00F800
018C00
018C00
038C00
030600
030600
070300
060380
060380
0C03C0
0FFFC0
1FFFC0
3800E0
380060
380060
700030
700030
E00038
C0003C
C0001C
C0001C
000018
000030
000030
000060
000030
000038
00003E
00001E
ENDCHAR
STARTCHAR $0105
ENCODING 261
SWIDTH 666 0
DWIDTH 22 0
BBX 19 25 1 -7
BITMAP
03F860
0FFE60
1E0FE0
3807E0
7003E0
7001E0
F001E0
E000E0
C00060
C00060
E000E0
F001E0
7001E0
7803E0
3C0660
1FFC60
0FFC60
03F860
0001C0
000380
000300
000300
000380
0001E0
0000E0
ENDCHAR
STARTCHAR $0106
ENCODING 262
SWIDTH 814 0
DWIDTH 27 0
BBX 24 30 1 1
BITMAP
000380
000780
001F00
003E00
001800
000000
00FF80
03FFE0
0F00F8
1C003C
38001E
38000E
700000
700000
F00000
E00000
C00000
C00000
C00000
C00000
600000
700000
700000
780007
1C000C
0E0018
070070
03FFE0
00FF80
00FF00
ENDCHAR
STARTCHAR $0107
ENCODING 263
SWIDTH 629 0
DWIDTH 21 0
BBX 18 24 1 1
BITMAP
003C00
007800
00F000
00E000
008000
000000
03F800
0FFE00
3C0700
7803C0
7001C0
7000C0
F00000
C00000
C00000
C00000
E00000
F00000
7001C0
7803C0
3C0780
1E0F00
0FFE00
03F800
ENDCHAR
STARTCHAR $0108
ENCODING 264
SWIDTH 814 0
DWIDTH 27 0
BBX 23 28 1 2
BITMAP
003C00
00F700
00E380
00C3C0
000000
00FF80
03FFE0
0F00F8
3C001C
38000E
300000
700000
700000
F00000
E00000
C00000
C00000
C00000
C00000
700000
700000
700000
780006
3C000C
0F0018
070070
03FFE0
00FF80
ENDCHAR
STARTCHAR $0109
ENCODING 265
SWIDTH 629 0
DWIDTH 21 0
BBX 18 24 1 0
BITMAP
00C000
01F000
033000
071800
0E0E00
000000
03F800
0FFE00
3C0700
7803C0
7001C0
7000C0
F00000
C00000
C00000
C00000
E00000
F00000
7001C0
7803C0
3C0780
1E0F00
0FFE00
03F800
ENDCHAR
STARTCHAR $010A
ENCODING 266
SWIDTH 814 0
DWIDTH 27 0
BBX 23 28 1 2
BITMAP
000C00
000C00
000C00
000C00
000000
00FF80
03FFE0
0F00F8
3C001C
38000E
300000
700000
700000
F00000
E00000
C00000
C00000
C00000
C00000
700000
700000
700000
780006
3C000C
0F0018
070070
03FFE0
00FF80
ENDCHAR
STARTCHAR $010B
ENCODING 267
SWIDTH 629 0
DWIDTH 21 0
BBX 18 23 1 0
BITMAP
00C000
00C000
00C000
004000
000000
03F800
0FFE00
1C0700
780380
7001C0
F00000
E00000
C00000
C00000
C00000
E00000
F00000
7001C0
7803C0
3C0780
1FFF00
0FFE00
03F800
ENDCHAR
STARTCHAR $010C
ENCODING 268
SWIDTH 814 0
DWIDTH 27 0
BBX 23 28 1 2
BITMAP
01C3C0
007700
003E00
001C00
000000
00FF80
03FFE0
0F00F8
3C001C
38000E
300000
700000
700000
F00000
E00000
C00000
C00000
C00000
C00000
700000
700000
700000
780006
3C000C
0F0018
070070
03FFE0
00FF80
ENDCHAR
STARTCHAR $010D
ENCODING 269
SWIDTH 629 0
DWIDTH 21 0
BBX 18 24 1 0
BITMAP
0E0E00
031800
01F000
00E000
00C000
000000
03F800
0FFE00
3C0700
7803C0
7001C0
7000C0
F00000
C00000
C00000
C00000
E00000
F00000
7001C0
7803C0
3C0780
1E0F00
0FFE00
03F800
ENDCHAR
STARTCHAR $010E
ENCODING 270
SWIDTH 740 0
DWIDTH 24 0
BBX 20 30 2 1
BITMAP
387800
0CE000
0FC000
078000
030000
000000
FFF000
FFFC00
C00F00
C003C0
C001C0
C000C0
C00060
C00060
C00030
C00030
C00030
C00030
C00030
C00030
C00030
C00060
C00060
C000E0
C001C0
C003C0
C00F80
FFFC00
FFF000
FFE000
ENDCHAR
STARTCHAR $010F
ENCODING 271
SWIDTH 703 0
DWIDTH 23 0
BBX 25 24 1 0
BITMAP
00006180
00006300
00006300
00006300
00006300
00006300
03F86000
0FFE6000
3C07E000
7803E000
7001E000
7001E000
F001E000
C0006000
C0006000
C0006000
E0006000
F0006000
7001E000
7803E000
3C07E000
1E0E6000
0FFC6000
03F86000
ENDCHAR
STARTCHAR $0110
ENCODING 272
SWIDTH 777 0
DWIDTH 25 0
BBX 23 24 1 0
BITMAP
3FFC00
3FFF00
3803E0
3803E0
380070
38003C
38001C
38001C
38000E
38000E
FFE00E
FFF00E
FFF00E
38000E
38000E
38001E
38001C
38001C
38003C
380070
3803E0
3803E0
3FFF00
3FFC00
ENDCHAR
STARTCHAR $0111
ENCODING 273
SWIDTH 703 0
DWIDTH 23 0
BBX 20 24 1 0
BITMAP
000060
000060
000FF0
000FF0
000FF0
000060
03F860
0FFE60
3C07E0
7803E0
7001E0
7001E0
F001E0
C00060
C00060
C00060
E00060
F00060
7001E0
7803E0
3C07E0
1E0E60
0FFC60
03F860
ENDCHAR
STARTCHAR $0112
ENCODING 274
SWIDTH 518 0
DWIDTH 17 0
BBX 13 28 2 2
BITMAP
7FF0
7FF0
0000
0000
0000
FFF8
FFF8
E000
C000
C000
C000
C000
C000
C000
C000
FFF8
FFF8
FFF8
C000
C000
C000
C000
C000
C000
C000
E000
FFF8
FFF8
ENDCHAR
STARTCHAR $0113
ENCODING 275
SWIDTH 666 0
DWIDTH 22 0
BBX 18 23 1 0
BITMAP
0FFC00
0FFC00
000000
000000
000000
03F800
0FFE00
1C0700
780380
7001C0
E001C0
E001C0
FFFFC0
FFFFC0
E00000
C00000
E00000
7001C0
780380
3C0600
1FFC00
0FFC00
03F000
ENDCHAR
STARTCHAR $0114
ENCODING 276
SWIDTH 518 0
DWIDTH 17 0
BBX 13 30 2 1
BITMAP
7070
38E0
3FC0
1FC0
0200
0000
FFF8
FFF8
C000
C000
C000
C000
C000
C000
C000
C000
E000
FFF8
FFF8
E000
C000
C000
C000
C000
C000
C000
C000
FFF8
FFF8
FFF0
ENDCHAR
STARTCHAR $0115
ENCODING 277
SWIDTH 666 0
DWIDTH 22 0
BBX 18 24 1 0
BITMAP
040C00
060C00
03F800
03F800
008000
000000
03F800
0FFE00
3C0700
780380
700180
6001C0
E001C0
FFFFC0
FFFFC0
E00000
C00000
E00000
7001C0
780380
3C0700
1E0E00
0FFC00
03F000
ENDCHAR
STARTCHAR $0116
ENCODING 278
SWIDTH 518 0
DWIDTH 17 0
BBX 13 30 2 1
BITMAP
0700
0700
0700
0700
0000
0000
FFF8
FFF8
C000
C000
C000
C000
C000
C000
C000
C000
E000
FFF8
FFF8
E000
C000
C000
C000
C000
C000
C000
C000
FFF8
FFF8
FFF0
ENDCHAR
STARTCHAR $0117
ENCODING 279
SWIDTH 666 0
DWIDTH 22 0
BBX 18 23 1 0
BITMAP
00C000
00C000
00C000
004000
000000
03F800
0FFE00
1C0700
780380
7001C0
E001C0
E001C0
FFFFC0
FFFFC0
E00000
C00000
E00000
7001C0
780380
3C0600
1FFC00
0FFC00
03F000
ENDCHAR
STARTCHAR $0118
ENCODING 280
SWIDTH 518 0
DWIDTH 17 0
BBX 13 32 2 -8
BITMAP
FFF8
FFF8
E000
C000
C000
C000
C000
C000
C000
C000
FFF0
FFF8
FFF8
C000
C000
C000
C000
C000
C000
C000
C000
E000
FFF8
FFF8
0060
00E0
00C0
00C0
00C0
00E0
00F8
0078
ENDCHAR
STARTCHAR $0119
ENCODING 281
SWIDTH 666 0
DWIDTH 22 0
BBX 18 25 1 -7
BITMAP
03F800
0FFE00
1E0F00
380780
700380
6001C0
E001C0
FFFFC0
FFFFC0
E00000
C00000
E00000
7001C0
780380
3C0600
1FFC00
0FFC00
03F800
004000
00C000
00C000
01C000
00E000
00F800
003800
ENDCHAR
STARTCHAR $011A
ENCODING 282
SWIDTH 518 0
DWIDTH 17 0
BBX 13 30 2 1
BITMAP
7070
3DE0
1FC0
0F80
0700
0000
FFF8
FFF8
C000
C000
C000
C000
C000
C000
C000
C000
E000
FFF8
FFF8
E000
C000
C000
C000
C000
C000
C000
C000
FFF8
FFF8
FFF0
ENDCHAR
STARTCHAR $011B
ENCODING 283
SWIDTH 666 0
DWIDTH 22 0
BBX 18 24 1 0
BITMAP
0E0C00
071800
03F000
03E000
00C000
000000
03F800
0FFE00
3C0700
780380
700180
6001C0
E001C0
FFFFC0
FFFFC0
E00000
C00000
E00000
7001C0
780380
3C0700
1E0E00
0FFC00
03F000
ENDCHAR
STARTCHAR $011C
ENCODING 284
SWIDTH 888 0
DWIDTH 29 0
BBX 25 28 1 2
BITMAP
003E0000
00770000
00E18000
0040C000
00000000
007F8000
03FFF000
0700F800
0E001C00
18000E00
38000700
78000300
70000000
70000000
E0000000
C0000000
C0000000
C0000000
C07FFF80
F07FFF80
70000380
70000300
78000300
38000700
0F001C00
07003800
03FFF000
007F8000
ENDCHAR
STARTCHAR $011D
ENCODING 285
SWIDTH 666 0
DWIDTH 22 0
BBX 18 31 1 -7
BITMAP
00C000
03F000
073000
071800
0E0C00
000000
03F9C0
0FFDC0
3C0FC0
7803C0
7001C0
6001C0
C001C0
C001C0
C001C0
C001C0
E001C0
F001C0
7001C0
7803C0
3C07C0
1E0FC0
0FFDC0
03F1C0
7001C0
7001C0
380380
3E0780
1FFF00
0FFE00
01F800
ENDCHAR
STARTCHAR $011E
ENCODING 286
SWIDTH 888 0
DWIDTH 29 0
BBX 25 28 1 2
BITMAP
00C1C000
00FF8000
007F0000
003E0000
00000000
007F8000
03FFF000
0700F800
0E001C00
18000E00
38000700
78000300
70000000
70000000
E0000000
C0000000
C0000000
C0000000
C07FFF80
F07FFF80
70000380
70000300
78000300
38000700
0F001C00
07003800
03FFF000
007F8000
ENDCHAR
STARTCHAR $011F
ENCODING 287
SWIDTH 666 0
DWIDTH 22 0
BBX 18 31 1 -7
BITMAP
040C00
061800
03F800
03F800
008000
000000
03F9C0
0FFDC0
3C0FC0
7803C0
7001C0
6001C0
C001C0
C001C0
C001C0
C001C0
E001C0
F001C0
7001C0
7803C0
3C07C0
1E0FC0
0FFDC0
03F1C0
7001C0
7001C0
380380
3E0780
1FFF00
0FFE00
01F800
ENDCHAR
STARTCHAR $0120
ENCODING 288
SWIDTH 888 0
DWIDTH 29 0
BBX 25 28 1 2
BITMAP
000C0000
000C0000
000C0000
000C0000
00000000
007F8000
03FFF000
0700F800
0E001C00
18000E00
38000700
78000300
70000000
70000000
E0000000
C0000000
C0000000
C0000000
C07FFF80
F07FFF80
70000380
70000300
78000300
38000700
0F001C00
07003800
03FFF000
007F8000
ENDCHAR
STARTCHAR $0121
ENCODING 289
SWIDTH 666 0
DWIDTH 22 0
BBX 18 30 1 -7
BITMAP
00C000
00C000
00C000
004000
000000
03F9C0
0FFDC0
1C1FC0
7803C0
7001C0
E001C0
C001C0
C001C0
C001C0
C001C0
E001C0
F001C0
7001C0
7803C0
3C07C0
1FFDC0
0FFDC0
03F1C0
7001C0
7001C0
380380
3E0780
0FFE00
01F800
00F000
ENDCHAR
STARTCHAR $0122
ENCODING 290
SWIDTH 888 0
DWIDTH 29 0
BBX 25 31 1 -7
BITMAP
007F8000
03FFF000
0700F800
07007C00
0E001E00
38000F00
78000700
70000000
70000000
E0000000
C0000000
C0000000
C0000000
C03FFF80
F07FFF80
70000380
70000300
78000300
38000300
0E001E00
07003C00
07807800
03FFF000
003F0000
00000000
000C0000
000C0000
00180000
00380000
00380000
00180000
ENDCHAR
STARTCHAR $0123
ENCODING 291
SWIDTH 666 0
DWIDTH 22 0
BBX 18 32 1 -7
BITMAP
00C000
00C000
00C000
00C000
018000
018000
000000
03F8C0
0FFDC0
1C0FC0
3803C0
7803C0
7001C0
C001C0
C001C0
C001C0
C001C0
E001C0
F001C0
7001C0
7803C0
3803C0
1C07C0
0FFDC0
03E1C0
7001C0
7001C0
300380
3E0780
1F0F00
0FFE00
01F800
ENDCHAR
STARTCHAR $0124
ENCODING 292
SWIDTH 666 0
DWIDTH 22 0
BBX 17 30 2 1
BITMAP
018000
03F000
077000
063800
0C1C00
000000
C00380
C00380
C00380
C00380
C00380
C00380
C00380
C00380
C00380
C00380
E00380
FFFF80
FFFF80
E00380
C00380
C00380
C00380
C00380
C00380
C00380
C00380
C00380
C00380
C00100
ENDCHAR
STARTCHAR $0125
ENCODING 293
SWIDTH 592 0
DWIDTH 19 0
BBX 15 30 2 1
BITMAP
0300
07C0
0EE0
1870
1038
0000
C000
C000
C000
C000
C000
C000
E7E0
FFF8
F83C
F01C
E00C
C00C
C006
C006
C006
C006
C006
C006
C006
C006
C006
C006
C006
C006
ENDCHAR
STARTCHAR $0126
ENCODING 294
SWIDTH 666 0
DWIDTH 22 0
BBX 22 24 0 0
BITMAP
380060
380060
380060
3800E0
FFFFFC
FFFFF8
380060
380060
380060
380060
3FFFE0
3FFFE0
3FFFE0
380060
380060
380060
380060
380060
380060
380060
380060
380060
380060
380060
ENDCHAR
STARTCHAR $0127
ENCODING 295
SWIDTH 592 0
DWIDTH 19 0
BBX 18 24 0 0
BITMAP
380000
380000
FE0000
FE0000
FE0000
380000
39F800
3FFE00
3E0700
3C0380
380380
3803C0
3801C0
3801C0
3801C0
3801C0
3801C0
3801C0
3801C0
3801C0
3801C0
3801C0
3801C0
380080
ENDCHAR
STARTCHAR $0128
ENCODING 296
SWIDTH 222 0
DWIDTH 8 0
BBX 9 30 -1 1
BITMAP
3000
F880
6780
4780
0200
0000
0C00
0C00
0C00
0C00
0C00
0C00
0C00
0C00
0C00
0C00
0C00
0C00
0C00
0C00
0C00
0C00
0C00
0C00
0C00
0C00
0C00
0C00
0C00
0C00
ENDCHAR
STARTCHAR $0129
ENCODING 297
SWIDTH 185 0
DWIDTH 6 0
BBX 9 24 -1 0
BITMAP
7000
FF80
DF00
8F00
0000
0000
0C00
0C00
0C00
0C00
0C00
0C00
0C00
0C00
0C00
0C00
0C00
0C00
0C00
0C00
0C00
0C00
0C00
0C00
ENDCHAR
STARTCHAR $012A
ENCODING 298
SWIDTH 222 0
DWIDTH 8 0
BBX 12 28 -2 2
BITMAP
FFF0
FFF0
0000
0000
0000
0600
0600
0600
0600
0600
0600
0600
0600
0600
0600
0600
0600
0600
0600
0600
0600
0600
0600
0600
0600
0600
0600
0600
ENDCHAR
STARTCHAR $012B
ENCODING 299
SWIDTH 185 0
DWIDTH 6 0
BBX 10 23 -2 0
BITMAP
FFC0
FFC0
0000
0000
0000
0600
0600
0600
0600
0600
0600
0600
0600
0600
0600
0600
0600
0600
0600
0600
0600
0600
0600
ENDCHAR
STARTCHAR $012C
ENCODING 300
SWIDTH 222 0
DWIDTH 8 0
BBX 9 30 -1 1
BITMAP
C180
C180
7F00
7F00
0C00
0000
0C00
0C00
0C00
0C00
0C00
0C00
0C00
0C00
0C00
0C00
0C00
0C00
0C00
0C00
0C00
0C00
0C00
0C00
0C00
0C00
0C00
0C00
0C00
0C00
ENDCHAR
STARTCHAR $012D
ENCODING 301
SWIDTH 185 0
DWIDTH 6 0
BBX 9 24 -1 0
BITMAP
8180
C300
7F00
7F00
0000
0000
0C00
0C00
0C00
0C00
0C00
0C00
0C00
0C00
0C00
0C00
0C00
0C00
0C00
0C00
0C00
0C00
0C00
0C00
ENDCHAR
STARTCHAR $012E
ENCODING 302
SWIDTH 222 0
DWIDTH 8 0
BBX 5 32 0 -8
BITMAP
38
38
38
38
38
38
38
38
38
38
38
38
38
38
38
38
38
38
38
38
38
38
38
38
38
70
C0
C0
C0
E0
F8
78
ENDCHAR
STARTCHAR $012F
ENCODING 303
SWIDTH 185 0
DWIDTH 6 0
BBX 6 32 -1 -8
BITMAP
0C
0C
0C
08
00
00
0C
0C
0C
0C
0C
0C
0C
0C
0C
0C
0C
0C
0C
0C
0C
0C
0C
1C
38
70
70
E0
60
70
7C
3C
ENDCHAR
STARTCHAR $0130
ENCODING 304
SWIDTH 222 0
DWIDTH 8 0
BBX 2 30 2 1
BITMAP
C0
C0
C0
C0
00
00
C0
C0
C0
C0
C0
C0
C0
C0
C0
C0
C0
C0
C0
C0
C0
C0
C0
C0
C0
C0
C0
C0
C0
C0
ENDCHAR
STARTCHAR $0131
ENCODING 305
SWIDTH 185 0
DWIDTH 6 0
BBX 2 18 2 0
BITMAP
C0
C0
C0
C0
C0
C0
C0
C0
C0
C0
C0
C0
C0
C0
C0
C0
C0
C0
ENDCHAR
STARTCHAR $0132
ENCODING 306
SWIDTH 666 0
DWIDTH 22 0
BBX 17 24 2 0
BITMAP
C00380
C00380
C00380
C00380
C00380
C00380
C00380
C00380
C00380
C00380
C00380
C00380
C00380
C00380
C00380
C00380
C00380
C00380
C60380
C60380
C70780
C78F00
C3FE00
C1F800
ENDCHAR
STARTCHAR $0133
ENCODING 307
SWIDTH 407 0
DWIDTH 14 0
BBX 8 30 2 -6
BITMAP
C3
C3
C3
C3
00
00
C3
C3
C3
C3
C3
C3
C3
C3
C3
C3
C3
C3
C3
C3
C3
C3
C3
C3
03
03
07
1E
38
10
ENDCHAR
STARTCHAR $0134
ENCODING 308
SWIDTH 481 0
DWIDTH 16 0
BBX 18 30 0 1
BITMAP
003800
007C00
00EE00
00C700
0383C0
000000
001800
003800
003800
003800
003800
003800
003800
003800
003800
003800
003800
003800
003800
003800
003800
003800
003800
003800
E03800
707800
787000
3FE000
1FC000
0F8000
ENDCHAR
STARTCHAR $0135
ENCODING 309
SWIDTH 185 0
DWIDTH 6 0
BBX 9 30 -1 -6
BITMAP
3C00
7E00
F380
E380
0000
0000
0C00
0C00
0C00
0C00
0C00
0C00
0C00
0C00
0C00
0C00
0C00
0C00
0C00
0C00
0C00
0C00
0C00
0C00
1C00
3800
3800
F000
E000
C000
ENDCHAR
STARTCHAR $0136
ENCODING 310
SWIDTH 592 0
DWIDTH 19 0
BBX 15 31 2 -7
BITMAP
C006
C00E
C01E
C03C
C078
C070
C0E0
C0C0
C3C0
C780
C700
C600
EE00
FB00
F980
F1C0
E0E0
C070
C030
C038
C01C
C01E
C00E
C006
0000
0180
0180
0300
0300
0300
0300
ENDCHAR
STARTCHAR $0137
ENCODING 311
SWIDTH 518 0
DWIDTH 17 0
BBX 13 31 2 -7
BITMAP
C000
C000
C000
C000
C000
C000
C078
C0F0
C0E0
C0C0
C180
C380
C700
C600
CC00
FE00
FF00
FF80
F3C0
E1C0
C0E0
C060
C070
C038
0000
0300
0600
0600
0600
0E00
0C00
ENDCHAR
STARTCHAR $0139
ENCODING 313
SWIDTH 444 0
DWIDTH 15 0
BBX 13 30 1 2
BITMAP
0E00
1C00
F800
F800
4000
0000
7000
7000
7000
7000
7000
7000
7000
7000
7000
7000
7000
7000
7000
7000
7000
7000
7000
7000
7000
7000
7000
7FF8
7FF8
3FF0
ENDCHAR
STARTCHAR $013A
ENCODING 314
SWIDTH 185 0
DWIDTH 6 0
BBX 7 30 1 2
BITMAP
0E
7C
F0
E0
C0
00
70
70
70
70
70
70
70
70
70
70
70
70
70
70
70
70
70
70
70
70
70
70
70
20
ENDCHAR
STARTCHAR $013B
ENCODING 315
SWIDTH 444 0
DWIDTH 15 0
BBX 12 31 2 -7
BITMAP
C000
C000
C000
C000
C000
C000
C000
C000
C000
C000
C000
C000
C000
C000
C000
C000
C000
C000
C000
C000
C000
E000
FFF0
FFF0
0000
0600
0600
0600
0600
0E00
0C00
ENDCHAR
STARTCHAR $013C
ENCODING 316
SWIDTH 185 0
DWIDTH 6 0
BBX 4 31 1 -7
BITMAP
70
70
70
70
70
70
70
70
70
70
70
70
70
70
70
70
70
70
70
70
70
70
70
60
00
70
70
E0
C0
C0
C0
ENDCHAR
STARTCHAR $013D
ENCODING 317
SWIDTH 444 0
DWIDTH 15 0
BBX 12 24 2 0
BITMAP
C300
C300
C700
C600
C600
C600
C000
C000
C000
C000
C000
C000
C000
C000
C000
C000
C000
C000
C000
C000
C000
E000
FFF0
FFF0
ENDCHAR
STARTCHAR $013E
ENCODING 318
SWIDTH 185 0
DWIDTH 6 0
BBX 8 24 2 0
BITMAP
C3
C7
C6
C6
CE
CC
C0
C0
C0
C0
C0
C0
C0
C0
C0
C0
C0
C0
C0
C0
C0
C0
C0
C0
ENDCHAR
STARTCHAR $013F
ENCODING 319
SWIDTH 444 0
DWIDTH 15 0
BBX 12 24 2 0
BITMAP
C000
C000
C000
C000
C000
C000
C000
C000
C000
C080
C180
C180
C180
C000
C000
C000
C000
C000
C000
C000
C000
E000
FFF0
FFF0
ENDCHAR
STARTCHAR $0140
ENCODING 320
SWIDTH 259 0
DWIDTH 9 0
BBX 6 24 2 0
BITMAP
C0
C0
C0
C0
C0
C0
C0
C0
C0
C8
CC
CC
CC
C0
C0
C0
C0
C0
C0
C0
C0
C0
C0
C0
ENDCHAR
STARTCHAR $0141
ENCODING 321
SWIDTH 518 0
DWIDTH 17 0
BBX 15 24 1 0
BITMAP
3800
3800
3800
3800
3800
3800
3840
38C0
3BC0
3F80
3E00
3C00
7800
F800
B800
3800
3800
3800
3800
3800
3800
3800
3FFE
3FFE
ENDCHAR
STARTCHAR $0142
ENCODING 322
SWIDTH 296 0
DWIDTH 10 0
BBX 7 24 1 0
BITMAP
38
38
38
38
38
38
38
38
3A
3E
38
78
F8
B8
38
38
38
38
38
38
38
38
38
38
ENDCHAR
STARTCHAR $0143
ENCODING 323
SWIDTH 740 0
DWIDTH 24 0
BBX 19 30 2 2
BITMAP
003C00
007800
00E000
00C000
008000
000000
F00060
F80060
F80060
F80060
CC0060
CE0060
C60060
C30060
C38060
C18060
C0C060
C0E060
C0F060
C07860
C03860
C01860
C00C60
C00E60
C007E0
C003E0
C003E0
C001E0
C000E0
C00060
ENDCHAR
STARTCHAR $0144
ENCODING 324
SWIDTH 592 0
DWIDTH 19 0
BBX 15 25 2 1
BITMAP
0030
00F0
01E0
07C0
0700
0000
0000
C7C0
FFF8
F83C
F01C
E00C
C00C
C006
C006
C006
C006
C006
C006
C006
C006
C006
C006
C006
C006
ENDCHAR
STARTCHAR $0145
ENCODING 325
SWIDTH 740 0
DWIDTH 24 0
BBX 19 31 2 -7
BITMAP
F00060
F80060
F80060
F80060
CC0060
CE0060
C60060
C30060
C38060
C18060
C0C060
C0E060
C0F060
C07860
C03860
C01C60
C00C60
C00E60
C00660
C003E0
C003E0
C001E0
C000E0
C00060
000000
00C000
00C000
00C000
00C000
018000
008000
ENDCHAR
STARTCHAR $0146
ENCODING 326
SWIDTH 592 0
DWIDTH 19 0
BBX 15 25 2 -7
BITMAP
C7C0
FFF8
F83C
F81C
F00C
C00C
C006
C006
C006
C006
C006
C006
C006
C006
C006
C006
C006
C006
0000
0380
0300
0300
0300
0300
0600
ENDCHAR
STARTCHAR $0147
ENCODING 327
SWIDTH 740 0
DWIDTH 24 0
BBX 19 30 2 1
BITMAP
0E0C00
031800
01F000
00E000
00C000
000000
F00060
F80060
F80060
F80060
CC0060
CE0060
C60060
C30060
C38060
C18060
C0C060
C0E060
C0F060
C07860
C03860
C01860
C00C60
C00E60
C007E0
C003E0
C003E0
C001E0
C000E0
C00060
ENDCHAR
STARTCHAR $0148
ENCODING 328
SWIDTH 592 0
DWIDTH 19 0
BBX 15 24 2 0
BITMAP
3870
0EE0
0FC0
0780
0000
0000
C7E0
FFF8
F83C
F00C
E00C
C00C
C006
C006
C006
C006
C006
C006
C006
C006
C006
C006
C006
C006
ENDCHAR
STARTCHAR $014A
ENCODING 330
SWIDTH 740 0
DWIDTH 24 0
BBX 19 32 2 -8
BITMAP
F00060
F80060
F80060
F80060
CC0060
CE0060
C60060
C30060
C38060
C18060
C0C060
C0E060
C0F060
C07860
C03860
C01C60
C00C60
C00E60
C00660
C003E0
C003E0
C001E0
C000E0
C00060
000060
000060
030060
0181C0
01C3C0
00E380
00FF00
007C00
ENDCHAR
STARTCHAR $014B
ENCODING 331
SWIDTH 592 0
DWIDTH 19 0
BBX 15 24 2 -6
BITMAP
C7C0
FFF8
F83C
F81C
F00C
C00C
C006
C006
C006
C006
C006
C006
C006
C006
C006
C006
C006
C006
0006
000C
000C
001C
0078
0030
ENDCHAR
STARTCHAR $014C
ENCODING 332
SWIDTH 851 0
DWIDTH 28 0
BBX 25 28 1 2
BITMAP
01FFC000
01FFC000
00000000
00000000
00000000
007F8000
03FFE000
0700F800
0E001C00
18000E00
38000700
78000700
70000380
70000380
E0000180
C0000180
C0000180
C0000180
C0000180
70000180
70000380
70000300
78000700
3C000F00
0F001C00
07007800
03FFE000
00FF8000
ENDCHAR
STARTCHAR $014D
ENCODING 333
SWIDTH 666 0
DWIDTH 22 0
BBX 19 23 1 0
BITMAP
0FFC00
0FFC00
000000
000000
000000
03F800
0FFE00
1C0700
780380
7001C0
F001C0
E001C0
C001E0
C00060
C001C0
E001C0
F001C0
7001C0
780380
3C0780
1FFF00
0FFE00
03F800
ENDCHAR
STARTCHAR $014E
ENCODING 334
SWIDTH 851 0
DWIDTH 28 0
BBX 25 28 1 2
BITMAP
00C1C000
00FF8000
007F0000
003E0000
00000000
007F8000
03FFE000
0700F800
0E001C00
18000E00
38000700
78000700
70000380
70000380
E0000180
C0000180
C0000180
C0000180
C0000180
70000180
70000380
70000300
78000700
3C000F00
0F001C00
07007800
03FFE000
00FF8000
ENDCHAR
STARTCHAR $014F
ENCODING 335
SWIDTH 666 0
DWIDTH 22 0
BBX 19 24 1 0
BITMAP
060C00
060C00
03F800
03F800
008000
000000
03F800
0FFE00
3C0700
7803C0
7001C0
7001C0
F001C0
C001E0
C00060
C000C0
E001C0
F001C0
7001C0
780380
3C0780
1E0F00
0FFE00
03F800
ENDCHAR
STARTCHAR $0150
ENCODING 336
SWIDTH 851 0
DWIDTH 28 0
BBX 25 30 1 1
BITMAP
00041C00
001C3000
0038F000
0079E000
00C1C000
00000000
007F8000
03FFE000
0700F800
0F003C00
18001E00
38000F00
78000700
70000380
70000180
E0000180
C0000180
C0000180
C0000180
C0000180
60000180
70000380
70000300
78000700
1C000F00
0E001E00
07007C00
03FFE000
00FF8000
00FF0000
ENDCHAR
STARTCHAR $0151
ENCODING 337
SWIDTH 666 0
DWIDTH 22 0
BBX 19 24 1 0
BITMAP
0071C0
01E3C0
03CF00
038E00
020C00
000000
03F800
0FFE00
3C0700
7803C0
7001C0
7001C0
F001C0
C001E0
C00060
C000C0
E001C0
F001C0
7001C0
780380
3C0780
1E0F00
0FFE00
03F800
ENDCHAR
STARTCHAR $0152
ENCODING 338
SWIDTH 1185 0
DWIDTH 38 0
BBX 36 24 1 0
BITMAP
00FF81FFF0
03FFE1FFF0
0700F98000
07007F8000
0C001F8000
38000F8000
7800078000
7000038000
7000038000
E000018000
C00001FFC0
C00001FFC0
C00001FFC0
C000018000
7000018000
7000038000
7000038000
7800078000
38000F8000
0E001F8000
07007D8000
0780F1C000
03FFC1FFF0
00FF01FFE0
ENDCHAR
STARTCHAR $0153
ENCODING 339
SWIDTH 1148 0
DWIDTH 37 0
BBX 34 18 1 0
BITMAP
03F803F000
0FFC1FFE00
1E0E3C0F00
3807380700
7003B00380
6001E00180
E001E00080
C001FFFFC0
C001FFFFC0
C001C00000
E001E00000
F001E00000
7001E00180
7803B00380
3C063E0F00
1FFC0FFE00
0FFC07FC00
03F803F000
ENDCHAR
STARTCHAR $0154
ENCODING 340
SWIDTH 592 0
DWIDTH 19 0
BBX 17 30 2 2
BITMAP
00F000
01E000
07C000
078000
020000
000000
FFE000
FFF800
C03C00
C00600
C00600
C00700
C00780
C00380
C00780
C00700
C00600
C00600
C03C00
C7F800
C38000
C18000
C0C000
C0E000
C0F000
C07800
C03800
C00C00
C00E00
C00E00
ENDCHAR
STARTCHAR $0155
ENCODING 341
SWIDTH 296 0
DWIDTH 10 0
BBX 7 24 2 1
BITMAP
0E
7C
F0
E0
80
00
C6
FE
F8
F0
E0
C0
C0
C0
C0
C0
C0
C0
C0
C0
C0
C0
C0
C0
ENDCHAR
STARTCHAR $0156
ENCODING 342
SWIDTH 592 0
DWIDTH 19 0
BBX 17 31 2 -7
BITMAP
FFC000
FFF800
E03C00
C01C00
C00600
C00600
C00780
C00380
C00780
C00700
C00600
C00600
C01C00
C7F800
C38000
C18000
C0C000
C0E000
C0F000
C07800
C03800
C01800
C00C00
C00E00
000000
030000
030000
030000
030000
030000
060000
ENDCHAR
STARTCHAR $0157
ENCODING 343
SWIDTH 296 0
DWIDTH 10 0
BBX 8 25 1 -7
BITMAP
73
7F
7E
78
70
70
70
70
70
70
70
70
70
70
70
70
70
70
00
70
70
60
C0
C0
C0
ENDCHAR
STARTCHAR $0158
ENCODING 344
SWIDTH 592 0
DWIDTH 19 0
BBX 17 30 2 1
BITMAP
387800
0CF000
0FC000
078000
030000
000000
FFE000
FFF800
C03C00
C00600
C00600
C00700
C00780
C00380
C00780
C00700
C00600
C00600
C03C00
C7F800
C38000
C18000
C0C000
C0E000
C0F000
C07800
C03800
C00C00
C00E00
C00E00
ENDCHAR
STARTCHAR $0159
ENCODING 345
SWIDTH 296 0
DWIDTH 10 0
BBX 10 24 -1 0
BITMAP
F0C0
7B80
3F00
1F00
0600
0000
0CC0
0FC0
0F00
0F00
0E00
0C00
0C00
0C00
0C00
0C00
0C00
0C00
0C00
0C00
0C00
0C00
0C00
0C00
ENDCHAR
STARTCHAR $015A
ENCODING 346
SWIDTH 481 0
DWIDTH 16 0
BBX 14 30 1 1
BITMAP
0040
01C0
07C0
0780
0600
0000
0F80
1FE0
7878
7038
E038
C018
E000
F000
7800
3E00
1F00
0FE0
01F0
0078
003C
001C
000C
C00C
E01C
F018
7838
3FF0
1FC0
0F80
ENDCHAR
STARTCHAR $015B
ENCODING 347
SWIDTH 370 0
DWIDTH 12 0
BBX 12 24 0 1
BITMAP
00C0
0380
0F00
0F00
0400
0000
0F00
1FC0
78C0
70C0
7000
7000
7800
3E00
0780
01C0
00E0
0070
C070
7070
70E0
30C0
1FC0
0F00
ENDCHAR
STARTCHAR $015C
ENCODING 348
SWIDTH 481 0
DWIDTH 16 0
BBX 14 28 1 2
BITMAP
0780
0DC0
1860
1820
0000
1FC0
3FF0
7878
7038
E038
C000
E000
F000
7800
3E00
1FC0
0FE0
01F0
0038
001C
000C
000C
C00C
C00C
F038
7878
3FF0
0FC0
ENDCHAR
STARTCHAR $015D
ENCODING 349
SWIDTH 370 0
DWIDTH 12 0
BBX 12 24 0 0
BITMAP
0600
0F00
19C0
38E0
70F0
0000
0F00
1FC0
78C0
70C0
7000
7000
7800
3E00
0780
01C0
00E0
0070
C070
7070
70E0
30C0
1FC0
0F00
ENDCHAR
STARTCHAR $015E
ENCODING 350
SWIDTH 481 0
DWIDTH 16 0
BBX 14 31 1 -7
BITMAP
0F80
1FF0
3870
7838
7038
C018
C000
E000
7800
3E00
1FC0
0FE0
01F0
0078
003C
001C
000C
C00C
C00C
C018
6078
7070
7FF0
0FC0
0300
0780
07C0
0040
0040
06C0
0780
ENDCHAR
STARTCHAR $015F
ENCODING 351
SWIDTH 370 0
DWIDTH 12 0
BBX 10 25 1 -7
BITMAP
3E00
7F80
F180
E180
C180
C000
F000
7C00
3F00
0780
03C0
00C0
00C0
C0C0
C180
FF80
FF80
7F00
0400
0F00
0F00
0F80
0180
3980
0F00
ENDCHAR
STARTCHAR $0160
ENCODING 352
SWIDTH 481 0
DWIDTH 16 0
BBX 14 28 1 2
BITMAP
38F0
0F80
0F00
0700
0000
1FC0
3FF0
7878
7038
E038
C000
E000
F000
7800
3E00
1FC0
0FE0
01F0
0038
001C
000C
000C
C00C
C00C
F038
7878
3FF0
0FC0
ENDCHAR
STARTCHAR $0161
ENCODING 353
SWIDTH 370 0
DWIDTH 12 0
BBX 12 24 0 0
BITMAP
70F0
39E0
1F00
0F00
0600
0000
0F00
1FC0
78C0
70C0
7000
7000
7800
3E00
0780
01C0
00E0
0070
C070
7070
70E0
30C0
1FC0
0F00
ENDCHAR
STARTCHAR $0162
ENCODING 354
SWIDTH 444 0
DWIDTH 15 0
BBX 13 31 0 -7
BITMAP
FFF8
FFF8
0300
0300
0300
0300
0300
0300
0300
0300
0300
0300
0300
0300
0300
0300
0300
0300
0300
0300
0300
0300
0300
0300
0300
0780
0780
00C0
08C0
0EC0
0780
ENDCHAR
STARTCHAR $0163
ENCODING 355
SWIDTH 333 0
DWIDTH 11 0
BBX 10 31 0 -7
BITMAP
0E00
0E00
0E00
0E00
0E00
1E00
FFC0
FFC0
1E00
0E00
0E00
0E00
0E00
0E00
0E00
0E00
0E00
0E00
0E00
0E00
0E00
0E00
0E00
0E00
0C00
0E00
3F00
0180
1980
1900
0F00
ENDCHAR
STARTCHAR $0164
ENCODING 356
SWIDTH 444 0
DWIDTH 15 0
BBX 13 30 0 1
BITMAP
7870
3CE0
0FC0
0780
0300
0000
FFF8
FFF8
0300
0300
0300
0300
0300
0300
0300
0300
0300
0300
0300
0300
0300
0300
0300
0300
0300
0300
0300
0300
0300
0100
ENDCHAR
STARTCHAR $0165
ENCODING 357
SWIDTH 333 0
DWIDTH 11 0
BBX 10 24 0 0
BITMAP
0EC0
0EC0
0EC0
0EC0
0EC0
1E00
FFC0
FFC0
1E00
0E00
0E00
0E00
0E00
0E00
0E00
0E00
0E00
0E00
0E00
0E00
0E00
0E00
0E00
0E00
ENDCHAR
STARTCHAR $0168
ENCODING 360
SWIDTH 666 0
DWIDTH 22 0
BBX 17 30 2 1
BITMAP
020000
0F1000
09F000
08F800
000000
000000
C00380
C00380
C00380
C00380
C00380
C00380
C00380
C00380
C00380
C00380
C00380
C00380
C00380
C00380
C00380
C00380
C00300
C00600
F00600
700600
780C00
3FF800
07F000
07E000
ENDCHAR
STARTCHAR $0169
ENCODING 361
SWIDTH 592 0
DWIDTH 19 0
BBX 15 24 2 0
BITMAP
0400
1FF0
19E0
08C0
0000
0000
C006
C006
C006
C006
C006
C006
C006
C006
C006
C006
C006
C006
C00E
F00E
781E
383E
1FF6
0F86
ENDCHAR
STARTCHAR $016A
ENCODING 362
SWIDTH 666 0
DWIDTH 22 0
BBX 17 28 2 2
BITMAP
3FF800
3FF800
000000
000000
000000
C00380
C00380
C00380
C00380
C00380
C00380
C00380
C00380
C00380
C00380
C00380
C00380
C00380
C00380
C00380
C00380
C00300
E00600
F00600
700600
780C00
3FF800
0FF000
ENDCHAR
STARTCHAR $016B
ENCODING 363
SWIDTH 592 0
DWIDTH 19 0
BBX 15 23 2 0
BITMAP
3FF8
3FF8
0000
0000
0000
C006
C006
C006
C006
C006
C006
C006
C006
C006
C006
C006
C006
E00E
F00E
781E
3FF6
1FE6
0F82
ENDCHAR
STARTCHAR $016C
ENCODING 364
SWIDTH 666 0
DWIDTH 22 0
BBX 17 30 2 1
BITMAP
0C3800
0C3800
0FF000
07E000
010000
000000
C00380
C00380
C00380
C00380
C00380
C00380
C00380
C00380
C00380
C00380
C00380
C00380
C00380
C00380
C00380
C00380
C00300
C00600
F00600
700600
780C00
3FF800
07F000
07E000
ENDCHAR
STARTCHAR $016D
ENCODING 365
SWIDTH 592 0
DWIDTH 19 0
BBX 15 24 2 0
BITMAP
3830
3870
1FE0
0FC0
0300
0000
C006
C006
C006
C006
C006
C006
C006
C006
C006
C006
C006
C006
C00E
F00E
781E
383E
1FF6
0F86
ENDCHAR
STARTCHAR $016E
ENCODING 366
SWIDTH 666 0
DWIDTH 22 0
BBX 17 32 2 0
BITMAP
038000
024000
046000
047000
047000
064000
038000
000000
C00100
C00380
C00380
C00380
C00380
C00380
C00380
C00380
C00380
C00380
C00380
C00380
C00380
C00380
C00380
C00380
C00300
E00600
E00600
700600
780C00
381C00
1FF800
07F000
ENDCHAR
STARTCHAR $016F
ENCODING 367
SWIDTH 592 0
DWIDTH 19 0
BBX 15 26 2 1
BITMAP
0380
04C0
0C40
0C40
04C0
0780
0000
0000
C006
C006
C006
C006
C006
C006
C006
C006
C006
C006
C006
C006
C00E
E00E
F00E
783E
1FE6
0F86
ENDCHAR
STARTCHAR $0170
ENCODING 368
SWIDTH 666 0
DWIDTH 22 0
BBX 17 30 2 2
BITMAP
01C380
038F00
071E00
063C00
041000
000000
C00380
C00380
C00380
C00380
C00380
C00380
C00380
C00380
C00380
C00380
C00380
C00380
C00380
C00380
C00380
C00380
C00300
C00600
F00600
700600
780C00
3FF800
07F000
07E000
ENDCHAR
STARTCHAR $0171
ENCODING 369
SWIDTH 592 0
DWIDTH 19 0
BBX 15 25 2 1
BITMAP
0002
0186
070E
071C
0E38
0810
0000
C006
C006
C006
C006
C006
C006
C006
C006
C006
C006
C006
C006
C00E
E00E
F01E
783E
3FF6
0F86
ENDCHAR
STARTCHAR $0172
ENCODING 370
SWIDTH 666 0
DWIDTH 22 0
BBX 17 31 2 -7
BITMAP
C00380
C00380
C00380
C00380
C00380
C00380
C00380
C00380
C00380
C00380
C00380
C00380
C00380
C00380
C00380
C00380
C00300
E00600
F00600
700600
780C00
381C00
1FF800
07F000
008000
018000
030000
038000
01E000
00F000
00F000
ENDCHAR
STARTCHAR $0173
ENCODING 371
SWIDTH 592 0
DWIDTH 19 0
BBX 15 25 2 -7
BITMAP
C006
C006
C006
C006
C006
C006
C006
C006
C006
C006
C006
C006
E00E
F00E
781E
3FF6
1FE6
0F86
000C
0018
0030
0038
003C
001E
000E
ENDCHAR
STARTCHAR $0174
ENCODING 372
SWIDTH 962 0
DWIDTH 31 0
BBX 30 30 0 1
BITMAP
00038000
0007C000
000EE000
001C6000
00383800
00000000
C0038018
6003801C
7007801C
7007C01C
3007C018
3807C030
380DC030
380C6030
380C6060
1C0C6060
0C1C6060
0C387060
0C383060
063830C0
063830C0
063038C0
06701DC0
06701D80
03601D80
03E01D80
03C00F80
01C00F00
01C00F00
00C00700
ENDCHAR
STARTCHAR $0175
ENCODING 373
SWIDTH 814 0
DWIDTH 27 0
BBX 26 24 0 0
BITMAP
000E0000
001F0000
00F18000
0060C000
00000000
00000000
C00000C0
600000C0
700C0180
700E0180
381E0180
381E0100
183E0300
0C3B8300
0C338E00
0C338E00
0C738E00
0671CE00
0641DC00
07C1D800
03C0D000
03C05000
03807000
01807000
ENDCHAR
STARTCHAR $0176
ENCODING 374
SWIDTH 592 0
DWIDTH 19 0
BBX 19 30 0 1
BITMAP
00C000
01F000
033000
071800
0E0E00
000000
F001E0
7001C0
7801C0
380380
380780
1C0700
0C0600
0E0E00
060C00
071800
073800
03B800
03F000
01F000
00E000
00C000
00C000
00C000
00C000
00C000
00C000
00C000
00C000
00C000
ENDCHAR
STARTCHAR $0177
ENCODING 375
SWIDTH 518 0
DWIDTH 17 0
BBX 17 30 0 -6
BITMAP
01C000
03F000
0F3000
0E1800
000000
000000
F00380
700780
700700
300600
380600
380C00
1C0C00
0C3800
0C3800
063800
067800
067000
077000
03E000
03C000
01C000
018000
018000
038000
030000
030000
060000
060000
060000
ENDCHAR
STARTCHAR $0178
ENCODING 376
SWIDTH 592 0
DWIDTH 19 0
BBX 19 30 0 1
BITMAP
033800
033800
033800
031800
000000
000000
F001E0
7001C0
7801C0
380380
380780
1C0700
0C0600
0E0E00
060C00
071800
073800
03B800
03F000
01F000
00E000
00C000
00C000
00C000
00C000
00C000
00C000
00C000
00C000
00C000
ENDCHAR
STARTCHAR $0179
ENCODING 377
SWIDTH 481 0
DWIDTH 16 0
BBX 15 30 0 2
BITMAP
0070
01F0
03C0
0380
0200
0000
7FFC
7FFC
000C
001C
0038
0038
0070
00F0
00E0
00C0
01C0
0180
0300
0700
0700
0E00
0E00
1C00
3800
7800
7000
FFFE
FFFE
FFFE
ENDCHAR
STARTCHAR $017A
ENCODING 378
SWIDTH 407 0
DWIDTH 14 0
BBX 13 25 0 1
BITMAP
0040
01F0
03C0
0780
0700
0400
0000
3FF8
7FF8
0070
0060
00E0
01C0
01C0
0380
0700
0700
0600
0C00
1C00
7800
7000
7000
FFF8
FFF8
ENDCHAR
STARTCHAR $017B
ENCODING 379
SWIDTH 481 0
DWIDTH 16 0
BBX 15 30 0 1
BITMAP
0180
0180
0180
0080
0000
0000
7FFC
7FFC
000C
001C
0038
0038
0070
00F0
00E0
00C0
01C0
0180
0300
0700
0700
0E00
0E00
1C00
3800
7800
7000
FFFE
FFFE
FFFE
ENDCHAR
STARTCHAR $017C
ENCODING 380
SWIDTH 407 0
DWIDTH 14 0
BBX 13 24 0 0
BITMAP
0300
0300
0300
0300
0000
0000
7FF8
7FF8
0070
0060
00C0
01C0
0180
0300
0700
0700
0600
0C00
3C00
7800
7000
7000
FFF8
FFF8
ENDCHAR
STARTCHAR $017D
ENCODING 381
SWIDTH 481 0
DWIDTH 16 0
BBX 15 30 0 1
BITMAP
3C38
0EF0
0FE0
07C0
0180
0000
7FFC
7FFC
000C
001C
0038
0038
0070
00F0
00E0
00C0
01C0
0180
0300
0700
0700
0E00
0E00
1C00
3800
7800
7000
FFFE
FFFE
FFFE
ENDCHAR
STARTCHAR $017E
ENCODING 382
SWIDTH 407 0
DWIDTH 14 0
BBX 13 24 0 0
BITMAP
78F0
0DE0
0FC0
0780
0000
0000
7FF8
7FF8
0070
0060
00C0
01C0
0180
0300
0700
0700
0600
0C00
3C00
7800
7000
7000
FFF8
FFF8
ENDCHAR
STARTCHAR $017F
ENCODING 383
SWIDTH 296 0
DWIDTH 10 0
BBX 9 24 0 0
BITMAP
0180
0780
0F00
0E00
0C00
1C00
FC00
FC00
1C00
0C00
0C00
0C00
0C00
0C00
0C00
0C00
0C00
0C00
0C00
0C00
0C00
0C00
0C00
0C00
ENDCHAR
STARTCHAR $018E
ENCODING 398
SWIDTH 518 0
DWIDTH 17 0
BBX 13 24 2 0
BITMAP
FFF8
FFF8
0038
0038
0038
0038
0038
0038
0038
0038
FFF8
FFF8
FFF8
0038
0038
0038
0038
0038
0038
0038
0038
0038
FFF8
FFF8
ENDCHAR
STARTCHAR $0192
ENCODING 402
SWIDTH 555 0
DWIDTH 18 0
BBX 17 31 1 -4
BITMAP
000780
000F80
001800
003800
007000
007000
007000
03FE00
07FE00
00E000
00C000
00C000
00C000
00C000
008000
008000
018000
018000
018000
018000
010000
030000
030000
030000
030000
030000
060000
060000
FC0000
FC0000
F80000
ENDCHAR
STARTCHAR $01A0
ENCODING 416
SWIDTH 851 0
DWIDTH 28 0
BBX 25 24 1 0
BITMAP
007F8180
03FFE180
0700F980
07007F00
0E001F00
38000F00
78000700
70000300
70000380
E0000180
C0000180
C0000180
C0000180
C0000180
70000180
70000380
70000300
78000600
3C000E00
0E001E00
07007C00
0780F000
03FFC000
00FF0000
ENDCHAR
STARTCHAR $01A1
ENCODING 417
SWIDTH 666 0
DWIDTH 22 0
BBX 20 18 1 0
BITMAP
03F830
0FFE20
1E0FE0
3807E0
7003C0
7001C0
F001C0
E001E0
C000E0
C000C0
E001C0
F001C0
7001C0
780380
3C0780
1FFF00
0FFE00
03F800
ENDCHAR
STARTCHAR $01AF
ENCODING 431
SWIDTH 703 0
DWIDTH 23 0
BBX 20 24 2 0
BITMAP
C003B0
C003A0
C003E0
C003E0
C003C0
C00380
C00380
C00380
C00380
C00380
C00380
C00380
C00380
C00380
C00380
C00380
C00300
E00600
F00600
700600
781C00
383C00
1FF800
07C000
ENDCHAR
STARTCHAR $01B0
ENCODING 432
SWIDTH 666 0
DWIDTH 22 0
BBX 19 18 2 0
BITMAP
C00660
C00660
C007C0
C007C0
C007C0
C00780
C00600
C00600
C00600
C00600
C00600
C00600
E00E00
F00E00
781E00
3FF600
1FE600
0F8600
ENDCHAR
STARTCHAR $01CD
ENCODING 461
SWIDTH 740 0
DWIDTH 24 0
BBX 22 30 1 1
BITMAP
070600
018C00
00F800
007800
003000
000000
007000
00F800
00F800
00CC00
018C00
018C00
038C00
030600
030600
070300
060380
060380
0C03C0
0FFFC0
1FFFC0
3FFFC0
380060
380060
700030
700030
C00038
C0001C
C0001C
C00008
ENDCHAR
STARTCHAR $01CE
ENCODING 462
SWIDTH 666 0
DWIDTH 22 0
BBX 19 24 1 0
BITMAP
0E0E00
071800
01F000
00E000
00C000
000000
03F860
0FFE60
3C07E0
7803E0
7001E0
7001E0
F001E0
C00060
C00060
C00060
E000E0
F001E0
7001E0
7803E0
3C07E0
1E0E60
0FFC60
03F860
ENDCHAR
STARTCHAR $01CF
ENCODING 463
SWIDTH 222 0
DWIDTH 8 0
BBX 10 30 -1 1
BITMAP
C1C0
7300
3F00
1E00
0C00
0000
0C00
0C00
0C00
0C00
0C00
0C00
0C00
0C00
0C00
0C00
0C00
0C00
0C00
0C00
0C00
0C00
0C00
0C00
0C00
0C00
0C00
0C00
0C00
0C00
ENDCHAR
STARTCHAR $01D0
ENCODING 464
SWIDTH 185 0
DWIDTH 6 0
BBX 10 24 -2 0
BITMAP
F1C0
3B80
1F00
0F00
0000
0000
0600
0600
0600
0600
0600
0600
0600
0600
0600
0600
0600
0600
0600
0600
0600
0600
0600
0600
ENDCHAR
STARTCHAR $01D1
ENCODING 465
SWIDTH 851 0
DWIDTH 28 0
BBX 25 28 1 2
BITMAP
00C3C000
007F0000
003E0000
001C0000
00000000
007F8000
03FFE000
0700F800
0E001C00
18000E00
38000700
78000700
70000380
70000380
E0000180
C0000180
C0000180
C0000180
C0000180
70000180
70000380
70000300
78000700
3C000F00
0F001C00
07007800
03FFE000
00FF8000
ENDCHAR
STARTCHAR $01D2
ENCODING 466
SWIDTH 666 0
DWIDTH 22 0
BBX 19 24 1 0
BITMAP
0E0E00
071800
01F000
00E000
00C000
000000
03F800
0FFE00
3C0700
7803C0
7001C0
7001C0
F001C0
C001E0
C00060
C000C0
E001C0
F001C0
7001C0
780380
3C0780
1E0F00
0FFE00
03F800
ENDCHAR
STARTCHAR $01D3
ENCODING 467
SWIDTH 666 0
DWIDTH 22 0
BBX 17 30 2 1
BITMAP
3C3800
0E7000
03E000
03C000
018000
000000
C00380
C00380
C00380
C00380
C00380
C00380
C00380
C00380
C00380
C00380
C00380
C00380
C00380
C00380
C00380
C00380
C00300
C00600
F00600
700600
780C00
3FF800
07F000
07E000
ENDCHAR
STARTCHAR $01D4
ENCODING 468
SWIDTH 592 0
DWIDTH 19 0
BBX 15 24 2 0
BITMAP
3870
0EE0
0FC0
0780
0000
0000
C006
C006
C006
C006
C006
C006
C006
C006
C006
C006
C006
C006
C00E
F00E
781E
383E
1FF6
0F86
ENDCHAR
STARTCHAR $01D7
ENCODING 471
SWIDTH 666 0
DWIDTH 22 0
BBX 17 36 2 1
BITMAP
007800
01F000
03C000
038000
030000
000000
067000
067000
067000
000000
000000
000000
C00380
C00380
C00380
C00380
C00380
C00380
C00380
C00380
C00380
C00380
C00380
C00380
C00380
C00380
C00380
C00380
C00700
E00600
F00600
700600
780C00
3FF800
0FF000
07E000
ENDCHAR
STARTCHAR $01D8
ENCODING 472
SWIDTH 592 0
DWIDTH 19 0
BBX 15 31 2 1
BITMAP
0070
00F0
01E0
07C0
0700
0000
0000
0CC0
0CC0
0CC0
0000
0000
0000
C006
C006
C006
C006
C006
C006
C006
C006
C006
C006
C006
C006
E00E
E00E
701E
3FF6
1FE6
0F86
ENDCHAR
STARTCHAR $01D9
ENCODING 473
SWIDTH 666 0
DWIDTH 22 0
BBX 17 36 2 0
BITMAP
3C3800
0E7000
03E000
03C000
018000
000000
067000
067000
067000
000000
000000
000000
C00380
C00380
C00380
C00380
C00380
C00380
C00380
C00380
C00380
C00380
C00380
C00380
C00380
C00380
C00380
C00380
C00700
E00600
F00600
700600
780C00
3FF800
0FF000
07E000
ENDCHAR
STARTCHAR $01DA
ENCODING 474
SWIDTH 592 0
DWIDTH 19 0
BBX 15 30 2 1
BITMAP
3C70
0EE0
0FC0
0780
0000
0000
0CC0
0CC0
0CC0
0000
0000
0000
C006
C006
C006
C006
C006
C006
C006
C006
C006
C006
C006
C006
E00E
F00E
781E
3FF6
1FC6
0F86
ENDCHAR
STARTCHAR $01DB
ENCODING 475
SWIDTH 666 0
DWIDTH 22 0
BBX 17 36 2 1
BITMAP
0E0000
070000
03C000
03C000
008000
000000
067000
067000
067000
000000
000000
000000
C00380
C00380
C00380
C00380
C00380
C00380
C00380
C00380
C00380
C00380
C00380
C00380
C00380
C00380
C00380
C00380
C00700
E00600
F00600
700600
780C00
3FF800
0FF000
07E000
ENDCHAR
STARTCHAR $01DC
ENCODING 476
SWIDTH 592 0
DWIDTH 19 0
BBX 15 31 2 1
BITMAP
0800
1E00
0F00
0780
0380
0000
0000
0CC0
0CC0
0CC0
0000
0000
0000
C006
C006
C006
C006
C006
C006
C006
C006
C006
C006
C006
C006
E00E
E00E
701E
3FF6
1FE6
0F86
ENDCHAR
STARTCHAR $01DD
ENCODING 477
SWIDTH 666 0
DWIDTH 22 0
BBX 18 18 1 0
BITMAP
03F800
0FFC00
1E1F00
380F80
700380
6001C0
0001C0
0001C0
FFFFC0
FFFFC0
E001C0
E001C0
7001C0
780380
3C0780
1FFC00
0FFC00
03F800
ENDCHAR
STARTCHAR $01E6
ENCODING 486
SWIDTH 888 0
DWIDTH 29 0
BBX 25 28 1 2
BITMAP
00C3C000
007F0000
003E0000
001C0000
00000000
007F8000
03FFF000
0700F800
0E001C00
18000E00
38000700
78000300
70000000
70000000
E0000000
C0000000
C0000000
C0000000
C07FFF80
F07FFF80
70000380
70000300
78000300
38000700
0F001C00
07003800
03FFF000
007F8000
ENDCHAR
STARTCHAR $01E7
ENCODING 487
SWIDTH 666 0
DWIDTH 22 0
BBX 18 31 1 -7
BITMAP
0E0C00
071800
03F000
03E000
01C000
000000
03F9C0
0FFDC0
3C0FC0
7803C0
7001C0
6001C0
C001C0
C001C0
C001C0
C001C0
E001C0
F001C0
7001C0
7803C0
3C07C0
1E0FC0
0FFDC0
03F1C0
7001C0
7001C0
380380
3E0780
1FFF00
0FFE00
01F800
ENDCHAR
STARTCHAR $01EA
ENCODING 490
SWIDTH 851 0
DWIDTH 28 0
BBX 25 31 1 -7
BITMAP
007F8000
03FFE000
0700F800
07007C00
0E001E00
38000F00
78000700
70000300
70000380
E0000180
C0000180
C0000180
C0000180
C0000180
70000180
70000380
70000300
78000600
3C000E00
0E001E00
07007C00
0780F000
03FFC000
00FF0000
00060000
000C0000
00180000
003C0000
001F0000
000F8000
00070000
ENDCHAR
STARTCHAR $01EB
ENCODING 491
SWIDTH 666 0
DWIDTH 22 0
BBX 19 25 1 -7
BITMAP
03F800
0FFE00
1E0F00
380780
7003C0
7001C0
F001C0
E001E0
C000E0
C000C0
E001C0
F001C0
7001C0
780380
3C0780
1FFF00
0FFE00
03F800
007000
00E000
00C000
00C000
00E000
00F800
003800
ENDCHAR
STARTCHAR $01F0
ENCODING 496
SWIDTH 185 0
DWIDTH 6 0
BBX 9 30 -1 -6
BITMAP
C380
7700
3F00
1E00
0000
0000
0C00
0C00
0C00
0C00
0C00
0C00
0C00
0C00
0C00
0C00
0C00
0C00
0C00
0C00
0C00
0C00
0C00
0C00
1C00
3800
3800
F000
E000
C000
ENDCHAR
STARTCHAR $01F4
ENCODING 500
SWIDTH 888 0
DWIDTH 29 0
BBX 25 30 1 1
BITMAP
00018000
0007C000
001F0000
003E0000
00180000
00000000
007F8000
03FFF000
0700F800
0F003C00
18001E00
38000F00
78000700
70000000
70000000
E0000000
C0000000
C0000000
C0000000
C07FFF80
E07FFF80
F03FFF80
70000300
78000300
18000700
0E001E00
07003C00
03FFF000
007F8000
003F0000
ENDCHAR
STARTCHAR $01F5
ENCODING 501
SWIDTH 666 0
DWIDTH 22 0
BBX 18 31 1 -6
BITMAP
003800
00F800
00E000
01C000
018000
000000
03F9C0
0FFDC0
3C0FC0
7803C0
7001C0
6001C0
C001C0
C001C0
C001C0
C001C0
E001C0
F001C0
7001C0
7803C0
3C07C0
1E0FC0
0FFDC0
03F1C0
7001C0
7001C0
380380
3E0780
1FFF00
0FFE00
01F800
ENDCHAR
STARTCHAR $01FA
ENCODING 506
SWIDTH 740 0
DWIDTH 24 0
BBX 22 38 1 1
BITMAP
000600
001E00
003800
007800
00C000
000000
007800
009800
018C00
018C00
008800
009800
00F800
000000
007000
007800
00F800
00F800
018C00
018C00
038C00
038600
030600
030700
060380
060380
0C03C0
0FFFC0
1FFFC0
3FFFC0
380060
380060
700030
700030
E00038
C0003C
C0001C
C00018
ENDCHAR
STARTCHAR $01FB
ENCODING 507
SWIDTH 666 0
DWIDTH 22 0
BBX 19 31 1 1
BITMAP
000C00
007800
00F000
01E000
018000
000000
01F000
033000
023800
033000
03C000
00C000
000000
03F860
0FFE60
1C07E0
3C07E0
7803E0
7001E0
F001E0
E000E0
C00060
C00060
C000E0
F001E0
7001E0
7803E0
3C0660
1FFC60
0FFC60
03F860
ENDCHAR
STARTCHAR $01FC
ENCODING 508
SWIDTH 1000 0
DWIDTH 32 0
BBX 28 30 1 2
BITMAP
00001C00
00007C00
0000F000
0001E000
00018000
00000000
0001FFF0
0003FFF0
0007E000
0007E000
00066000
000C6000
001C6000
00386000
00786000
00706000
00E06000
00C07FF0
01C07FF0
03806000
07FFE000
07FFE000
0FFFE000
1E006000
3C006000
38006000
78006000
F0007FF0
E0007FF0
C0007FF0
ENDCHAR
STARTCHAR $01FD
ENCODING 509
SWIDTH 1148 0
DWIDTH 37 0
BBX 34 24 1 1
BITMAP
00001C0000
00007C0000
0000F00000
0001E00000
0001800000
0000000000
03F861FC00
0FFE67FE00
3C07FE0F00
7803F00180
7001F000C0
7000F000C0
F0006000C0
C0007FFFC0
C0007FFFC0
C000600000
E000E00000
F001E00000
7001F001C0
7803F80180
3C07FE0700
1E0FFE0F00
0FFC6FFE00
03F861F000
ENDCHAR
STARTCHAR $01FE
ENCODING 510
SWIDTH 851 0
DWIDTH 28 0
BBX 25 32 1 -2
BITMAP
00018000
00078000
001F0000
003E0000
00180200
00000700
00FF8E00
03FFFC00
0700FC00
0F003C00
18007E00
3800EF00
7801C700
7003C380
70038180
E0070180
C0060180
C00C0180
C03C0180
C0780180
60700180
70600380
70C00300
79800700
1B800F00
0F001E00
07007C00
0FFFE000
1CFF8000
3CFF0000
78000000
30000000
ENDCHAR
STARTCHAR $01FF
ENCODING 511
SWIDTH 666 0
DWIDTH 22 0
BBX 18 24 1 2
BITMAP
003C00
007800
00E000
01C000
018000
000180
03FBC0
0FFF80
3C0780
780F80
701980
7039C0
F079C0
C0F1C0
C0E1C0
C0C1C0
C181C0
E301C0
7701C0
7E0380
3C0780
3E0F00
3FFE00
73F800
ENDCHAR
STARTCHAR $0200
ENCODING 512
SWIDTH 740 0
DWIDTH 24 0
BBX 22 30 1 2
BITMAP
38C000
0E7800
0F3C00
071C00
010400
000000
007000
00F800
00F800
00CC00
018C00
018C00
038C00
030600
030600
070300
060380
060380
0C03C0
0FFFC0
1FFFC0
3FFFC0
380060
380060
700030
700030
C00038
C0001C
C0001C
C00008
ENDCHAR
STARTCHAR $0201
ENCODING 513
SWIDTH 666 0
DWIDTH 22 0
BBX 19 24 1 0
BITMAP
718000
79C000
1C7000
0C3800
061800
000000
03F860
0FFE60
3C07E0
7803E0
7001E0
7001E0
F001E0
C00060
C00060
C00060
E000E0
F001E0
7001E0
7803E0
3C07E0
1E0E60
0FFC60
03F860
ENDCHAR
STARTCHAR $0204
ENCODING 516
SWIDTH 518 0
DWIDTH 17 0
BBX 15 31 0 1
BITMAP
0100
F180
70C0
7860
0C38
0410
0000
1FFE
3FFE
3800
3800
3800
3800
3800
3800
3800
3800
3800
3FFE
3FFE
3800
3800
3800
3800
3800
3800
3800
3800
3FFE
3FFE
1FFE
ENDCHAR
STARTCHAR $0205
ENCODING 517
SWIDTH 666 0
DWIDTH 22 0
BBX 18 24 1 0
BITMAP
718000
79C000
3C7000
1C3800
061800
000000
03F800
0FFE00
3C0700
780380
700180
6001C0
E001C0
FFFFC0
FFFFC0
E00000
C00000
E00000
7001C0
780380
3C0700
1E0E00
0FFC00
03F000
ENDCHAR
STARTCHAR $0208
ENCODING 520
SWIDTH 222 0
DWIDTH 8 0
BBX 12 30 -5 2
BITMAP
C380
79C0
3C60
1C30
0410
0000
0180
0180
0180
0180
0180
0180
0180
0180
0180
0180
0180
0180
0180
0180
0180
0180
0180
0180
0180
0180
0180
0180
0180
0080
ENDCHAR
STARTCHAR $0209
ENCODING 521
SWIDTH 185 0
DWIDTH 6 0
BBX 13 25 -6 1
BITMAP
4000
F080
70E0
7870
0E38
0408
0000
00C0
00C0
00C0
00C0
00C0
00C0
00C0
00C0
00C0
00C0
00C0
00C0
00C0
00C0
00C0
00C0
00C0
00C0
ENDCHAR
STARTCHAR $020C
ENCODING 524
SWIDTH 851 0
DWIDTH 28 0
BBX 25 30 1 1
BITMAP
04380000
073C0000
038F0000
03C78000
00C38000
00000000
007F8000
03FFE000
0700F800
0F003C00
18001E00
38000F00
78000700
70000380
70000180
E0000180
C0000180
C0000180
C0000180
C0000180
60000180
70000380
70000300
78000700
1C000F00
0E001E00
07007C00
03FFE000
00FF8000
00FF0000
ENDCHAR
STARTCHAR $020D
ENCODING 525
SWIDTH 666 0
DWIDTH 22 0
BBX 19 24 1 0
BITMAP
718000
79C000
1C7000
0C3800
061800
000000
03F800
0FFE00
3C0700
7803C0
7001C0
7001C0
F001C0
C001E0
C00060
C000C0
E001C0
F001C0
7001C0
780380
3C0780
1E0F00
0FFE00
03F800
ENDCHAR
STARTCHAR $0210
ENCODING 528
SWIDTH 592 0
DWIDTH 19 0
BBX 18 30 1 2
BITMAP
C38000
79C000
3C6000
1C3000
041000
000000
7FF000
7FFC00
700E00
700300
700380
700380
7003C0
7001C0
7003C0
700380
700380
700380
700E00
73FC00
71E000
70C000
706000
707000
703800
701C00
700C00
700600
700700
200700
ENDCHAR
STARTCHAR $0211
ENCODING 529
SWIDTH 296 0
DWIDTH 10 0
BBX 13 24 -4 0
BITMAP
C300
F380
30E0
1870
0C30
0000
0318
03F8
03E0
03C0
0380
0300
0300
0300
0300
0300
0300
0300
0300
0300
0300
0300
0300
0300
ENDCHAR
STARTCHAR $0214
ENCODING 532
SWIDTH 666 0
DWIDTH 22 0
BBX 17 31 2 1
BITMAP
800000
C30000
61C000
70E000
1CF000
0C1000
000000
C00300
C00380
C00380
C00380
C00380
C00380
C00380
C00380
C00380
C00380
C00380
C00380
C00380
C00380
C00380
C00380
C00300
E00600
F00600
700600
700C00
3FF800
1FF000
07F000
ENDCHAR
STARTCHAR $0215
ENCODING 533
SWIDTH 592 0
DWIDTH 19 0
BBX 17 24 1 1
BITMAP
C38000
79C000
3C6000
1C3000
041000
000000
700380
700380
700380
700380
700380
700380
700380
700380
700380
700380
700380
700380
700780
780780
3C0F80
1E1F80
0FFB80
07C100
ENDCHAR
STARTCHAR $0218
ENCODING 536
SWIDTH 481 0
DWIDTH 16 0
BBX 14 31 1 -7
BITMAP
0F80
1FF0
3870
7838
7038
C018
C000
E000
7800
3E00
1FC0
0FE0
01F0
0078
003C
001C
000C
C00C
C00C
F018
7878
3870
1FF0
0F80
0000
0300
0300
0600
0600
0600
0600
ENDCHAR
STARTCHAR $0219
ENCODING 537
SWIDTH 370 0
DWIDTH 12 0
BBX 12 25 0 -7
BITMAP
0F00
1FC0
38C0
78C0
70C0
7000
7800
3E00
0780
01C0
00E0
00F0
E070
7070
7060
3FC0
1FC0
0F00
0000
0600
0600
0600
0600
0600
0C00
ENDCHAR
STARTCHAR $021A
ENCODING 538
SWIDTH 444 0
DWIDTH 15 0
BBX 13 31 0 -7
BITMAP
FFF8
FFF8
0300
0300
0300
0300
0300
0300
0300
0300
0300
0300
0300
0300
0300
0300
0300
0300
0300
0300
0300
0300
0300
0300
0000
0300
0300
0600
0600
0600
0600
ENDCHAR
STARTCHAR $021B
ENCODING 539
SWIDTH 333 0
DWIDTH 11 0
BBX 10 31 0 -7
BITMAP
0E00
0E00
0E00
0E00
0E00
1E00
FFC0
FFC0
1E00
0E00
0E00
0E00
0E00
0E00
0E00
0E00
0E00
0E00
0E00
0E00
0E00
0E00
0E00
0E00
0000
0600
0400
0C00
0C00
0C00
0C00
ENDCHAR
STARTCHAR $0237
ENCODING 567
SWIDTH 185 0
DWIDTH 6 0
BBX 6 24 -1 -6
BITMAP
0C
0C
0C
0C
0C
0C
0C
0C
0C
0C
0C
0C
0C
0C
0C
0C
0C
0C
0C
18
38
30
E0
C0
ENDCHAR
STARTCHAR $0258
ENCODING 600
SWIDTH 666 0
DWIDTH 22 0
BBX 18 18 1 0
BITMAP
03F800
0FFE00
1E0F00
380780
700380
6001C0
E001C0
FFFFC0
FFFFC0
0001C0
0001C0
0001C0
7001C0
780380
3C0E00
1FFC00
0FFC00
03F000
ENDCHAR
STARTCHAR $0259
ENCODING 601
SWIDTH 666 0
DWIDTH 22 0
BBX 18 18 1 0
BITMAP
03F800
0FFC00
1E1F00
380F80
700380
6001C0
0001C0
0001C0
FFFFC0
FFFFC0
E001C0
E001C0
7001C0
780380
3C0780
1FFC00
0FFC00
03F800
ENDCHAR
STARTCHAR $02BE
ENCODING 702
SWIDTH 518 0
DWIDTH 17 0
BBX 12 13 2 10
BITMAP
3F00
7FC0
E0E0
C070
C070
0030
0030
0030
C070
E060
7FC0
7F80
0E00
ENDCHAR
STARTCHAR $02BF
ENCODING 703
SWIDTH 518 0
DWIDTH 17 0
BBX 12 13 2 10
BITMAP
0F80
7FC0
70E0
6070
C030
C000
8000
C000
C030
6070
3FE0
1FC0
0700
ENDCHAR
STARTCHAR $02C6
ENCODING 710
SWIDTH 518 0
DWIDTH 17 0
BBX 9 4 4 20
BITMAP
3C00
7E00
F380
E380
ENDCHAR
STARTCHAR $02C7
ENCODING 711
SWIDTH 518 0
DWIDTH 17 0
BBX 9 4 4 20
BITMAP
C380
7700
3F00
1E00
ENDCHAR
STARTCHAR $02D8
ENCODING 728
SWIDTH 444 0
DWIDTH 15 0
BBX 9 5 2 19
BITMAP
C180
C180
7F00
7F00
0C00
ENDCHAR
STARTCHAR $02D9
ENCODING 729
SWIDTH 222 0
DWIDTH 8 0
BBX 2 4 2 20
BITMAP
C0
C0
C0
C0
ENDCHAR
STARTCHAR $02DA
ENCODING 730
SWIDTH 333 0
DWIDTH 11 0
BBX 6 6 2 20
BITMAP
78
EC
CC
84
84
78
ENDCHAR
STARTCHAR $02DB
ENCODING 731
SWIDTH 296 0
DWIDTH 10 0
BBX 5 8 2 -7
BITMAP
70
E0
C0
C0
C0
C0
F8
78
ENDCHAR
STARTCHAR $02DC
ENCODING 732
SWIDTH 444 0
DWIDTH 15 0
BBX 9 5 2 19
BITMAP
3000
F900
C780
8780
0200
ENDCHAR
STARTCHAR $02DD
ENCODING 733
SWIDTH 555 0
DWIDTH 18 0
BBX 13 6 5 20
BITMAP
0400
0C78
18F0
38E0
F380
C100
ENDCHAR
STARTCHAR $0300
ENCODING 768
SWIDTH 0 0
DWIDTH 0 0
BBX 7 5 -15 20
BITMAP
F0
78
3E
1E
04
ENDCHAR
STARTCHAR $0301
ENCODING 769
SWIDTH 0 0
DWIDTH 0 0
BBX 7 5 -13 20
BITMAP
0E
7C
F0
E0
C0
ENDCHAR
STARTCHAR $0302
ENCODING 770
SWIDTH 0 0
DWIDTH 0 0
BBX 9 4 -15 20
BITMAP
3C00
7E00
F380
E380
ENDCHAR
STARTCHAR $0303
ENCODING 771
SWIDTH 0 0
DWIDTH 0 0
BBX 9 5 -15 19
BITMAP
7000
F900
DF80
8F80
0200
ENDCHAR
STARTCHAR $0304
ENCODING 772
SWIDTH 0 0
DWIDTH 0 0
BBX 10 2 -17 21
BITMAP
FFC0
FFC0
ENDCHAR
STARTCHAR $0305
ENCODING 773
SWIDTH 0 0
DWIDTH 0 0
BBX 9 2 -12 23
BITMAP
FF80
FF80
ENDCHAR
STARTCHAR $0306
ENCODING 774
SWIDTH 0 0
DWIDTH 0 0
BBX 9 4 -15 20
BITMAP
8180
C180
7F00
7F00
ENDCHAR
STARTCHAR $0307
ENCODING 775
SWIDTH 0 0
DWIDTH 0 0
BBX 2 4 -12 20
BITMAP
C0
C0
C0
C0
ENDCHAR
STARTCHAR $0308
ENCODING 776
SWIDTH 0 0
DWIDTH 0 0
BBX 7 4 -14 20
BITMAP
C6
C6
C6
C6
ENDCHAR
STARTCHAR $0309
ENCODING 777
SWIDTH 0 0
DWIDTH 0 0
BBX 6 6 -14 20
BITMAP
7C
E4
0C
0C
0C
38
ENDCHAR
STARTCHAR $030A
ENCODING 778
SWIDTH 0 0
DWIDTH 0 0
BBX 7 6 -14 20
BITMAP
78
EC
CE
86
EC
7C
ENDCHAR
STARTCHAR $030B
ENCODING 779
SWIDTH 0 0
DWIDTH 0 0
BBX 12 5 -14 20
BITMAP
3C70
79E0
E3C0
C380
8200
ENDCHAR
STARTCHAR $030C
ENCODING 780
SWIDTH 0 0
DWIDTH 0 0
BBX 9 4 -15 20
BITMAP
C180
7700
3F00
1E00
ENDCHAR
STARTCHAR $030F
ENCODING 783
SWIDTH 0 0
DWIDTH 0 0
BBX 12 6 -19 20
BITMAP
8000
C300
61C0
70E0
1CF0
0810
ENDCHAR
STARTCHAR $0311
ENCODING 785
SWIDTH 0 0
DWIDTH 0 0
BBX 9 5 -15 19
BITMAP
0800
7F00
E380
C380
8180
ENDCHAR
STARTCHAR $0323
ENCODING 803
SWIDTH 0 0
DWIDTH 0 0
BBX 2 4 -12 -6
BITMAP
C0
C0
C0
C0
ENDCHAR
STARTCHAR $0326
ENCODING 806
SWIDTH 0 0
DWIDTH 0 0
BBX 4 6 -13 -6
BITMAP
70
70
E0
C0
C0
C0
ENDCHAR
STARTCHAR $0327
ENCODING 807
SWIDTH 0 0
DWIDTH 0 0
BBX 6 7 -13 -7
BITMAP
40
F8
FC
FC
0C
9C
F8
ENDCHAR
STARTCHAR $0328
ENCODING 808
SWIDTH 0 0
DWIDTH 0 0
BBX 6 8 -14 -7
BITMAP
38
70
70
60
E0
70
7C
3C
ENDCHAR
STARTCHAR $032C
ENCODING 812
SWIDTH 0 0
DWIDTH 0 0
BBX 9 4 -15 -6
BITMAP
C380
7E00
3C00
1800
ENDCHAR
STARTCHAR $032D
ENCODING 813
SWIDTH 0 0
DWIDTH 0 0
BBX 9 4 -15 -6
BITMAP
3E00
7700
E180
C080
ENDCHAR
STARTCHAR $032E
ENCODING 814
SWIDTH 0 0
DWIDTH 0 0
BBX 9 4 -15 -6
BITMAP
C180
FF00
7F00
7E00
ENDCHAR
STARTCHAR $032F
ENCODING 815
SWIDTH 0 0
DWIDTH 0 0
BBX 9 5 -15 -6
BITMAP
0800
7F00
E180
C180
8180
ENDCHAR
STARTCHAR $0330
ENCODING 816
SWIDTH 0 0
DWIDTH 0 0
BBX 9 3 -15 -5
BITMAP
7900
FF80
0300
ENDCHAR
STARTCHAR $0331
ENCODING 817
SWIDTH 0 0
DWIDTH 0 0
BBX 10 2 -17 -4
BITMAP
FFC0
FFC0
ENDCHAR
STARTCHAR $0332
ENCODING 818
SWIDTH 0 0
DWIDTH 0 0
BBX 9 2 -12 -4
BITMAP
FF80
FF80
ENDCHAR
STARTCHAR $0333
ENCODING 819
SWIDTH 0 0
DWIDTH 0 0
BBX 9 7 -12 -8
BITMAP
FF80
FF80
0000
0000
0000
FF80
FF80
ENDCHAR
STARTCHAR $0338
ENCODING 824
SWIDTH 0 0
DWIDTH 0 0
BBX 10 26 -12 -4
BITMAP
00C0
00C0
00C0
0180
0180
0180
0300
0300
0700
0700
0600
0600
0E00
0C00
0C00
1C00
3C00
3800
3800
7000
7000
7000
6000
C000
C000
C000
ENDCHAR
STARTCHAR $033F
ENCODING 831
SWIDTH 0 0
DWIDTH 0 0
BBX 9 7 -12 23
BITMAP
FF80
FF80
0000
0000
0000
FF80
FF80
ENDCHAR
STARTCHAR $034D
ENCODING 845
SWIDTH 0 0
DWIDTH 0 0
BBX 19 9 -17 -9
BITMAP
030C00
0F0E00
3E0380
7C03C0
FFFFE0
FFFFE0
3C07C0
070F00
030800
ENDCHAR
STARTCHAR $0361
ENCODING 865
SWIDTH 259 0
DWIDTH 9 0
BBX 9 4 4 22
BITMAP
3F00
FF80
E180
C080
ENDCHAR
STARTCHAR $0391
ENCODING 913
SWIDTH 740 0
DWIDTH 24 0
BBX 22 24 1 0
BITMAP
007000
00F800
00F800
00F800
018C00
018C00
038C00
030600
030600
070300
060380
060380
0C03C0
0FFFC0
1FFFC0
3800E0
380060
380060
700030
700030
E00038
C0003C
C0001C
C00018
ENDCHAR
STARTCHAR $0392
ENCODING 914
SWIDTH 592 0
DWIDTH 19 0
BBX 15 24 2 0
BITMAP
FF80
FFF0
E070
C038
C038
C01C
C00C
C018
C038
C038
FFF8
FFF0
FFF8
C03C
C00C
C006
C006
C006
C006
C00C
C01C
E03C
FFF8
FFC0
ENDCHAR
STARTCHAR $0393
ENCODING 915
SWIDTH 481 0
DWIDTH 16 0
BBX 12 24 2 0
BITMAP
FFF0
FFF0
E000
C000
C000
C000
C000
C000
C000
C000
C000
C000
C000
C000
C000
C000
C000
C000
C000
C000
C000
C000
C000
C000
ENDCHAR
STARTCHAR $0394
ENCODING 916
SWIDTH 629 0
DWIDTH 21 0
BBX 20 22 0 0
BITMAP
00F000
00F000
00F000
01F800
01B800
019C00
030C00
030E00
070600
070600
060300
060380
0C0380
0C03C0
1C01C0
3801E0
3800E0
780060
700060
7FFFF0
FFFFF0
FFFFE0
ENDCHAR
STARTCHAR $0395
ENCODING 917
SWIDTH 518 0
DWIDTH 17 0
BBX 13 24 2 0
BITMAP
FFF8
FFF8
E000
C000
C000
C000
C000
C000
C000
C000
FFF0
FFF8
FFF8
C000
C000
C000
C000
C000
C000
C000
C000
E000
FFF8
FFF8
ENDCHAR
STARTCHAR $0396
ENCODING 918
SWIDTH 481 0
DWIDTH 16 0
BBX 15 24 0 0
BITMAP
7FFC
7FFC
001C
001C
0038
0038
0070
00F0
00E0
00C0
01C0
0180
0300
0700
0600
0E00
0E00
0C00
3800
7800
7000
7000
FFFE
FFFE
ENDCHAR
STARTCHAR $0397
ENCODING 919
SWIDTH 666 0
DWIDTH 22 0
BBX 17 24 2 0
BITMAP
C00380
C00380
C00380
C00380
C00380
C00380
C00380
C00380
C00380
C00380
FFFF80
FFFF80
FFFF80
C00380
C00380
C00380
C00380
C00380
C00380
C00380
C00380
C00380
C00380
C00100
ENDCHAR
STARTCHAR $0398
ENCODING 920
SWIDTH 851 0
DWIDTH 28 0
BBX 25 24 1 0
BITMAP
007F8000
03FFE000
0700F800
07007C00
0E001E00
38000F00
78000700
70000300
70000380
E0000180
C07F8180
C0FFC180
C0FFC180
C0000180
70000180
70000380
70000300
78000700
3C000F00
0E001E00
07007C00
0780F000
03FFC000
00FF0000
ENDCHAR
STARTCHAR $0399
ENCODING 921
SWIDTH 222 0
DWIDTH 8 0
BBX 2 24 2 0
BITMAP
C0
C0
C0
C0
C0
C0
C0
C0
C0
C0
C0
C0
C0
C0
C0
C0
C0
C0
C0
C0
C0
C0
C0
C0
ENDCHAR
STARTCHAR $039A
ENCODING 922
SWIDTH 592 0
DWIDTH 19 0
BBX 15 24 2 0
BITMAP
C006
C00E
C01E
C03C
C078
C070
C0E0
C0C0
C3C0
C780
C700
C600
EE00
FB00
F980
F1C0
E0E0
C070
C030
C038
C01C
C01E
C00E
C006
ENDCHAR
STARTCHAR $039B
ENCODING 923
SWIDTH 740 0
DWIDTH 24 0
BBX 22 24 1 0
BITMAP
007000
00F800
00F800
00F800
019C00
018C00
038C00
030600
030600
070300
060380
060380
0C03C0
0C01C0
1C01C0
3800E0
380060
380060
700030
700030
E00038
C0003C
C0001C
C00018
ENDCHAR
STARTCHAR $039C
ENCODING 924
SWIDTH 925 0
DWIDTH 30 0
BBX 25 24 2 0
BITMAP
F0000F80
F8000F80
F8000F80
F8000F80
CC001D80
CC001980
CC003180
C6003180
C6007180
C7006180
C3006180
C300E180
C181C180
C181C180
C1838180
C0C38180
C0C38180
C0678180
C0760180
C0760180
C07C0180
C03C0180
C03C0180
C0180180
ENDCHAR
STARTCHAR $039D
ENCODING 925
SWIDTH 740 0
DWIDTH 24 0
BBX 19 24 2 0
BITMAP
F00060
F80060
F80060
F80060
CC0060
CE0060
C60060
C30060
C38060
C18060
C0C060
C0E060
C0F060
C07860
C03860
C01C60
C00C60
C00E60
C00660
C003E0
C003E0
C001E0
C000E0
C00060
ENDCHAR
STARTCHAR $039E
ENCODING 926
SWIDTH 666 0
DWIDTH 22 0
BBX 19 24 1 0
BITMAP
FFFFE0
FFFFE0
000000
000000
000000
000000
000000
000000
000000
000000
1FFF00
3FFF80
1FFF80
000000
000000
000000
000000
000000
000000
000000
000000
000000
FFFFE0
FFFFE0
ENDCHAR
STARTCHAR $039F
ENCODING 927
SWIDTH 851 0
DWIDTH 28 0
BBX 25 24 1 0
BITMAP
007F8000
03FFE000
0700F800
07007C00
0E001E00
38000F00
78000700
70000300
70000380
E0000180
C0000180
C0000180
C0000180
C0000180
70000180
70000380
70000300
78000700
3C000F00
0E001E00
07007C00
0780F000
03FFC000
00FF0000
ENDCHAR
STARTCHAR $03A0
ENCODING 928
SWIDTH 629 0
DWIDTH 21 0
BBX 17 22 2 0
BITMAP
FFFF80
FFFF80
E00380
C00380
C00380
C00380
C00380
C00380
C00380
C00380
C00380
C00380
C00380
C00380
C00380
C00380
C00380
C00380
C00380
C00380
C00380
C00100
ENDCHAR
STARTCHAR $03A1
ENCODING 929
SWIDTH 592 0
DWIDTH 19 0
BBX 15 24 2 0
BITMAP
FFF0
FFFC
E01C
C00C
C006
C006
C006
C006
C006
C006
C00E
E03C
FFF8
FFC0
E000
C000
C000
C000
C000
C000
C000
C000
C000
C000
ENDCHAR
STARTCHAR $03A3
ENCODING 931
SWIDTH 444 0
DWIDTH 15 0
BBX 14 22 0 0
BITMAP
FFFC
FFFC
7000
7000
7800
3C00
0C00
0E00
0600
0700
0700
0700
0600
0E00
0C00
1800
3800
7800
7000
FFFC
FFFC
FFFC
ENDCHAR
STARTCHAR $03A4
ENCODING 932
SWIDTH 444 0
DWIDTH 15 0
BBX 13 24 0 0
BITMAP
FFF8
FFF8
0300
0300
0300
0300
0300
0300
0300
0300
0300
0300
0300
0300
0300
0300
0300
0300
0300
0300
0300
0300
0300
0300
ENDCHAR
STARTCHAR $03A5
ENCODING 933
SWIDTH 592 0
DWIDTH 19 0
BBX 19 24 0 0
BITMAP
F001E0
7001C0
7001C0
7803C0
380380
3C0780
0C0600
0E0E00
060E00
071C00
073800
033800
03F000
01F000
00E000
00C000
00C000
00C000
00C000
00C000
00C000
00C000
00C000
00C000
ENDCHAR
STARTCHAR $03A6
ENCODING 934
SWIDTH 814 0
DWIDTH 27 0
BBX 22 24 2 0
BITMAP
007000
007000
007000
007000
007000
03FE00
0FFFC0
3C71F0
F07070
E07038
C0701C
C0701C
C0701C
C0701C
F07030
7C70F0
3C71F0
1FFFC0
03FE00
007000
007000
007000
007000
003000
ENDCHAR
STARTCHAR $03A7
ENCODING 935
SWIDTH 592 0
DWIDTH 19 0
BBX 17 24 1 0
BITMAP
C00380
700780
700700
780600
180E00
0C0C00
0E1800
063800
077000
07E000
03C000
01C000
03E000
03F000
07F000
073800
063800
0C1C00
3C0C00
380600
700700
700780
E00380
C00080
ENDCHAR
STARTCHAR $03A8
ENCODING 936
SWIDTH 777 0
DWIDTH 25 0
BBX 22 24 2 0
BITMAP
C0701C
C0701C
C0701C
C0701C
C0701C
C0701C
C0701C
C0701C
C0703C
E07030
707070
7070F0
7871E0
3E73C0
07FF80
03FC00
03FC00
007000
007000
007000
007000
007000
007000
003000
ENDCHAR
STARTCHAR $03A9
ENCODING 937
SWIDTH 814 0
DWIDTH 27 0
BBX 24 23 1 0
BITMAP
00FE00
03FFC0
0FC3E0
1F83E0
3C0070
38003C
70001E
70000E
C0000E
C0000E
C0000F
C0000F
C0000F
C0000E
F0000E
70001E
70001C
78001C
3C003C
0F01F0
7F83F8
7F83FC
7F83F8
ENDCHAR
STARTCHAR $03B1
ENCODING 945
SWIDTH 703 0
DWIDTH 23 0
BBX 18 18 2 0
BITMAP
07C1C0
0FF9C0
1E3980
381B80
700F80
E00F80
E00780
C00700
C00600
C00600
C00600
C00E00
E00E00
700F80
7C1B80
1FF1C0
0FE0C0
07C040
ENDCHAR
STARTCHAR $03B2
ENCODING 946
SWIDTH 481 0
DWIDTH 16 0
BBX 12 31 1 -6
BITMAP
0780
1FC0
38C0
3860
7070
7070
7070
7070
70F0
70E0
77C0
7780
7780
71C0
70F0
7070
7070
7070
7070
7070
7070
7070
78F0
7FC0
7F80
7000
7000
7000
E000
C000
C000
ENDCHAR
STARTCHAR $03B3
ENCODING 947
SWIDTH 481 0
DWIDTH 16 0
BBX 17 23 0 -5
BITMAP
F00380
780380
3C0700
1C0600
0C0600
0E0E00
060C00
070C00
031800
033800
03F800
03F800
01F000
01F000
01E000
01C000
01C000
018000
018000
018000
018000
018000
008000
ENDCHAR
STARTCHAR $03B4
ENCODING 948
SWIDTH 703 0
DWIDTH 23 0
BBX 18 24 2 0
BITMAP
3FFE00
3FFE00
1F0000
0F0000
07C000
01E000
07F800
0FFC00
380E00
700300
E00380
C003C0
C001C0
C001C0
C001C0
C001C0
C001C0
E001C0
F003C0
700380
3C0F00
1E1E00
0FFC00
03F000
ENDCHAR
STARTCHAR $03B5
ENCODING 949
SWIDTH 481 0
DWIDTH 16 0
BBX 12 20 2 0
BITMAP
0F80
7FF0
7070
6020
C000
C000
C000
6000
7F00
7F00
F000
E000
C000
C000
C000
C000
E000
7870
7FF0
0F80
ENDCHAR
STARTCHAR $03B6
ENCODING 950
SWIDTH 407 0
DWIDTH 14 0
BBX 9 30 2 -6
BITMAP
FF80
FF80
0F00
0600
0C00
3800
3800
7000
7000
E000
C000
C000
C000
C000
C000
C000
C000
C000
C000
C000
6000
7000
7F00
3F00
0300
0180
0180
0180
0180
0080
ENDCHAR
STARTCHAR $03B7
ENCODING 951
SWIDTH 592 0
DWIDTH 19 0
BBX 15 24 2 -6
BITMAP
C7C0
FFF8
F83C
F81C
F00C
C00C
C006
C006
C006
C006
C006
C006
C006
C006
C006
C006
C006
C006
0006
0006
0006
0006
0006
0006
ENDCHAR
STARTCHAR $03B8
ENCODING 952
SWIDTH 555 0
DWIDTH 18 0
BBX 13 24 2 0
BITMAP
0F80
1FC0
38E0
7870
7070
C030
C038
C038
C038
C038
FFF8
FFF8
FFF8
C038
C038
C038
C038
C038
C070
7070
78E0
38C0
1FC0
0F00
ENDCHAR
STARTCHAR $03B9
ENCODING 953
SWIDTH 333 0
DWIDTH 11 0
BBX 5 18 4 0
BITMAP
C0
C0
C0
C0
C0
C0
C0
C0
C0
C0
C0
C0
60
70
70
78
38
18
ENDCHAR
STARTCHAR $03BA
ENCODING 954
SWIDTH 518 0
DWIDTH 17 0
BBX 13 18 2 0
BITMAP
C078
C0F0
C0E0
C0C0
C180
C380
C700
C700
CC00
FE00
FF00
FF00
F380
C1C0
C0C0
C060
C070
C078
ENDCHAR
STARTCHAR $03BB
ENCODING 955
SWIDTH 592 0
DWIDTH 19 0
BBX 15 24 2 0
BITMAP
3800
3E00
0F00
0700
0300
0180
0180
0180
01C0
03C0
03C0
03E0
0770
0670
0E70
0C38
1C38
3C38
3838
781C
700C
700C
E00C
C00E
ENDCHAR
STARTCHAR $03BC
ENCODING 956
SWIDTH 592 0
DWIDTH 19 0
BBX 15 24 2 -6
BITMAP
C006
C006
C006
C006
C006
C006
C006
C006
C006
C006
C006
C006
E00E
F00E
F81E
FFF6
CFE6
C7C6
C000
C000
C000
C000
C000
C000
ENDCHAR
STARTCHAR $03BD
ENCODING 957
SWIDTH 481 0
DWIDTH 16 0
BBX 13 18 1 0
BITMAP
C070
C070
E030
F038
7038
7038
7038
3838
3830
3870
3870
1C70
0CE0
0DC0
0F80
0780
0700
0600
ENDCHAR
STARTCHAR $03BE
ENCODING 958
SWIDTH 407 0
DWIDTH 14 0
BBX 8 30 2 -6
BITMAP
FF
FF
70
60
C0
C0
C0
E0
78
3E
3E
3E
78
F0
E0
C0
C0
C0
C0
C0
E0
F0
7E
3E
03
03
03
03
03
01
ENDCHAR
STARTCHAR $03BF
ENCODING 959
SWIDTH 666 0
DWIDTH 22 0
BBX 19 18 1 0
BITMAP
03F800
0FFE00
1E0F00
380780
7003C0
7001C0
F001C0
E001E0
C000E0
C000C0
E001C0
F001C0
7001C0
780380
3C0780
1FFF00
0FFE00
03F800
ENDCHAR
STARTCHAR $03C0
ENCODING 960
SWIDTH 666 0
DWIDTH 22 0
BBX 17 18 2 0
BITMAP
FFFF80
FFFF80
381E00
380C00
380C00
380C00
380C00
380C00
380C00
380C00
380C00
380C00
380C00
380C00
380C00
380600
380600
180200
ENDCHAR
STARTCHAR $03C1
ENCODING 961
SWIDTH 592 0
DWIDTH 19 0
BBX 15 23 2 -5
BITMAP
07C0
1FF0
3870
7838
701C
C00C
C00C
C006
C006
C006
C006
C00C
C00C
C03C
F878
FFF0
FFE0
C780
C000
C000
C000
C000
C000
ENDCHAR
STARTCHAR $03C2
ENCODING 962
SWIDTH 555 0
DWIDTH 18 0
BBX 13 24 2 -6
BITMAP
0780
1FC0
3860
7830
7038
C010
C000
C000
C000
C000
C000
C000
E000
7000
7800
3FC0
1FE0
07F0
0038
0038
0038
0038
0038
0018
ENDCHAR
STARTCHAR $03C3
ENCODING 963
SWIDTH 740 0
DWIDTH 24 0
BBX 20 19 2 1
BITMAP
000070
03FFF0
0FFF00
1FFE00
3C0E00
700780
F003C0
E001C0
C001C0
C001C0
C001C0
C001C0
E001C0
F003C0
700380
3C0F00
1C1E00
0FFC00
03F000
ENDCHAR
STARTCHAR $03C4
ENCODING 964
SWIDTH 481 0
DWIDTH 16 0
BBX 10 18 2 0
BITMAP
FFC0
FFC0
1E00
0C00
0C00
0C00
0C00
0C00
0C00
0C00
0C00
0E00
0600
0600
0300
03C0
03C0
0040
ENDCHAR
STARTCHAR $03C5
ENCODING 965
SWIDTH 555 0
DWIDTH 18 0
BBX 13 18 2 0
BITMAP
C070
C078
C038
C038
C038
C038
C038
C038
C038
C038
C038
C038
C078
C070
F070
7FE0
3FC0
0F00
ENDCHAR
STARTCHAR $03C6
ENCODING 966
SWIDTH 703 0
DWIDTH 23 0
BBX 18 23 2 -5
BITMAP
083E00
187F00
38F380
78E380
70C1C0
C0C1C0
C0C1C0
C0C1C0
C0C1C0
C0C1C0
C1C1C0
E1C1C0
F1C3C0
79C380
3DCE00
1FFC00
0FFC00
07F000
01C000
01C000
01C000
01C000
00C000
ENDCHAR
STARTCHAR $03C7
ENCODING 967
SWIDTH 555 0
DWIDTH 18 0
BBX 13 23 2 -5
BITMAP
C038
F078
7070
7070
7870
38C0
3CC0
1CC0
0F80
0F80
0700
0700
0700
0780
0D80
0DC0
1CC0
38E0
38F0
7070
7078
6038
C018
ENDCHAR
STARTCHAR $03C8
ENCODING 968
SWIDTH 703 0
DWIDTH 23 0
BBX 18 28 2 -3
BITMAP
00C000
00C000
00C000
00C000
00C000
00C000
C0C1C0
C0C1C0
C0C1C0
C0C1C0
C0C1C0
C0C1C0
C0C1C0
C0C1C0
C0C1C0
C0C1C0
C0C1C0
C0C1C0
C0C1C0
C0C1C0
78E780
38FF00
1FFE00
07F800
00C000
00C000
00C000
00C000
ENDCHAR
STARTCHAR $03C9
ENCODING 969
SWIDTH 703 0
DWIDTH 23 0
BBX 19 18 2 0
BITMAP
C001C0
C001C0
C001C0
C000C0
C00060
C00060
C0C060
C0C060
C0C060
C0C060
C0C060
C0C060
C0C040
C1C1C0
71F1C0
7FFF80
3F3F00
1E1E00
ENDCHAR
STARTCHAR $03D1
ENCODING 977
SWIDTH 592 0
DWIDTH 19 0
BBX 14 25 2 1
BITMAP
0F80
1FC0
30E0
6070
C030
C038
C038
E038
7C38
3FFC
03FC
00FC
0038
C038
C038
C038
C038
C038
C038
C038
E070
F070
78F0
3FC0
0F80
ENDCHAR
STARTCHAR $03D5
ENCODING 981
SWIDTH 666 0
DWIDTH 22 0
BBX 19 28 1 -3
BITMAP
00C000
00C000
00C000
00C000
00C000
00E000
03F800
0FFE00
3CE700
78C380
70C180
60C1C0
C0C1C0
C0C1E0
C0C060
C0C0C0
E0C1C0
F0C1C0
70C1C0
78C3C0
3CE780
1EFF00
0FFE00
03F800
00C000
00C000
00C000
00C000
ENDCHAR
STARTCHAR $03D6
ENCODING 982
SWIDTH 703 0
DWIDTH 23 0
BBX 19 24 2 0
BITMAP
03F000
1FFC00
3E1E00
180F00
000380
000380
C001C0
C001C0
C001C0
C001C0
C000E0
C00060
C0C060
C0C060
C0C060
C0C060
C0C060
C0C060
C0C040
C1E1C0
61F1C0
73F980
7F3F00
3E1E00
ENDCHAR
STARTCHAR $03F0
ENCODING 1008
SWIDTH 592 0
DWIDTH 19 0
BBX 17 18 1 0
BITMAP
400200
780700
380780
380700
1C0E00
0C0E00
0C1C00
0CFC00
0FF800
0FB800
1E3800
3C1800
380C00
780C00
780E00
F00700
F00780
700380
ENDCHAR
STARTCHAR $03F1
ENCODING 1009
SWIDTH 703 0
DWIDTH 23 0
BBX 18 25 2 -7
BITMAP
03F000
0FFC00
1E1E00
380F00
700780
E003C0
E001C0
C001C0
C001C0
C001C0
C001C0
E001C0
F003C0
F00380
FC0E00
7FFC00
7FFC00
7BF000
3C0000
0E0000
07F000
07F800
00FF00
000780
0000C0
ENDCHAR
STARTCHAR $03F4
ENCODING 1012
SWIDTH 814 0
DWIDTH 27 0
BBX 25 24 1 0
BITMAP
007F8000
03FFE000
0700F800
07007C00
0E001E00
38000F00
78000700
70000300
70000380
E0000180
FFFFFF80
FFFFFF80
FFFFFF80
C0000380
70000180
70000380
70000300
78000700
3C000F00
0E001E00
07007C00
0780F000
03FFC000
00FF0000
ENDCHAR
STARTCHAR $03F5
ENCODING 1013
SWIDTH 629 0
DWIDTH 21 0
BBX 18 18 1 0
BITMAP
03F800
0FFE00
1E0F00
380780
7003C0
600000
E00000
FFF800
FFF800
E00000
E00000
F00000
700000
7803C0
3C0780
1FFF00
0FFE00
03F800
ENDCHAR
STARTCHAR $0E3F
ENCODING 3647
SWIDTH 592 0
DWIDTH 19 0
BBX 15 28 2 -1
BITMAP
0300
0300
FF80
FFC0
FFF0
C038
C038
C03C
C00C
C01C
C038
C038
E078
FFF0
FFF8
E03C
C01C
C00C
C006
C006
C006
C00E
C00C
C03C
FFF8
FFE0
0300
0300
ENDCHAR
STARTCHAR $1E0C
ENCODING 7692
SWIDTH 740 0
DWIDTH 24 0
BBX 20 30 2 -6
BITMAP
FFF000
FFFC00
E01F00
C00F80
C003C0
C001C0
C00060
C00060
C00070
C00030
C00030
C00030
C00030
C00030
C00030
C00060
C00060
C00060
C001C0
C003C0
C00F80
E01F00
FFFC00
FFF000
000000
000000
030000
030000
030000
010000
ENDCHAR
STARTCHAR $1E0D
ENCODING 7693
SWIDTH 703 0
DWIDTH 23 0
BBX 19 28 1 -3
BITMAP
000060
000060
000060
000060
000060
000060
03F860
0FFE60
3C07E0
7803E0
7001E0
7001E0
F001E0
C00060
C00060
C00060
E00060
F00060
7001E0
7803E0
3C07E0
1E0E60
0FFC60
03F860
000000
00C000
00C000
00C000
ENDCHAR
STARTCHAR $1E0E
ENCODING 7694
SWIDTH 740 0
DWIDTH 24 0
BBX 20 28 2 -3
BITMAP
FFF000
FFFC00
E01F00
C00F80
C003C0
C001C0
C00060
C00060
C00070
C00030
C00030
C00030
C00030
C00030
C00030
C00060
C00060
C00060
C001C0
C003C0
C00F80
E01F00
FFFC00
FFF000
000000
000000
7FF800
7FF800
ENDCHAR
STARTCHAR $1E0F
ENCODING 7695
SWIDTH 703 0
DWIDTH 23 0
BBX 19 28 1 -3
BITMAP
000060
000060
000060
000060
000060
000060
03F860
0FFE60
3C07E0
7803E0
7001E0
7001E0
F001E0
C00060
C00060
C00060
E00060
F00060
7001E0
7803E0
3C07E0
1E0E60
0FFC60
03F860
000000
000000
07FE00
07FE00
ENDCHAR
STARTCHAR $1E24
ENCODING 7716
SWIDTH 666 0
DWIDTH 22 0
BBX 17 30 2 -6
BITMAP
C00380
C00380
C00380
C00380
C00380
C00380
C00380
C00380
C00380
C00380
FFFF80
FFFF80
FFFF80
C00380
C00380
C00380
C00380
C00380
C00380
C00380
C00380
C00380
C00380
C00100
000000
000000
018000
018000
018000
008000
ENDCHAR
STARTCHAR $1E25
ENCODING 7717
SWIDTH 592 0
DWIDTH 19 0
BBX 15 30 2 -6
BITMAP
C000
C000
C000
C000
C000
C000
C7E0
FFF8
F83C
F00C
E00C
C00C
C006
C006
C006
C006
C006
C006
C006
C006
C006
C006
C006
C006
0000
0000
0300
0300
0300
0100
ENDCHAR
STARTCHAR $1E26
ENCODING 7718
SWIDTH 666 0
DWIDTH 22 0
BBX 17 30 2 1
BITMAP
067000
067000
067000
062000
000000
000000
C00380
C00380
C00380
C00380
C00380
C00380
C00380
C00380
C00380
C00380
E00380
FFFF80
FFFF80
E00380
C00380
C00380
C00380
C00380
C00380
C00380
C00380
C00380
C00380
C00100
ENDCHAR
STARTCHAR $1E27
ENCODING 7719
SWIDTH 592 0
DWIDTH 19 0
BBX 15 30 2 1
BITMAP
0CC0
0CC0
0CC0
0840
0000
0000
C000
C000
C000
C000
C000
C000
E7E0
FFF8
F83C
F01C
E00C
C00C
C006
C006
C006
C006
C006
C006
C006
C006
C006
C006
C006
C006
ENDCHAR
STARTCHAR $1E2A
ENCODING 7722
SWIDTH 666 0
DWIDTH 22 0
BBX 17 30 2 -6
BITMAP
C00380
C00380
C00380
C00380
C00380
C00380
C00380
C00380
C00380
C00380
FFFF80
FFFF80
FFFF80
C00380
C00380
C00380
C00380
C00380
C00380
C00380
C00380
C00380
C00380
C00100
000000
000000
0C1800
0FF800
07F000
01E000
ENDCHAR
STARTCHAR $1E2B
ENCODING 7723
SWIDTH 592 0
DWIDTH 19 0
BBX 15 30 2 -6
BITMAP
C000
C000
C000
C000
C000
C000
C7E0
FFF8
F83C
F00C
E00C
C00C
C006
C006
C006
C006
C006
C006
C006
C006
C006
C006
C006
C006
0000
0000
3830
0FF0
07E0
07C0
ENDCHAR
STARTCHAR $1E2E
ENCODING 7726
SWIDTH 222 0
DWIDTH 8 0
BBX 8 36 0 1
BITMAP
07
0E
38
78
10
00
C6
C6
C6
00
00
00
38
38
38
38
38
38
38
38
38
38
38
38
38
38
38
38
38
38
38
38
38
38
38
18
ENDCHAR
STARTCHAR $1E2F
ENCODING 7727
SWIDTH 185 0
DWIDTH 6 0
BBX 8 31 0 1
BITMAP
02
0F
1E
38
70
40
00
C6
C6
C6
00
00
00
38
38
38
38
38
38
38
38
38
38
38
38
38
38
38
38
38
18
ENDCHAR
STARTCHAR $1E36
ENCODING 7734
SWIDTH 444 0
DWIDTH 15 0
BBX 12 30 2 -6
BITMAP
C000
C000
C000
C000
C000
C000
C000
C000
C000
C000
C000
C000
C000
C000
C000
C000
C000
C000
C000
C000
C000
E000
FFF0
FFF0
0000
0000
0600
0600
0600
0600
ENDCHAR
STARTCHAR $1E37
ENCODING 7735
SWIDTH 185 0
DWIDTH 6 0
BBX 2 30 2 -6
BITMAP
C0
C0
C0
C0
C0
C0
C0
C0
C0
C0
C0
C0
C0
C0
C0
C0
C0
C0
C0
C0
C0
C0
C0
C0
00
00
C0
C0
C0
C0
ENDCHAR
STARTCHAR $1E38
ENCODING 7736
SWIDTH 444 0
DWIDTH 15 0
BBX 17 34 -2 -5
BITMAP
FFF000
FFF000
000000
000000
000000
060000
060000
060000
060000
060000
060000
060000
060000
060000
060000
060000
060000
060000
060000
060000
060000
060000
060000
060000
060000
060000
07FF80
07FF80
000000
000000
000000
007000
007000
007000
ENDCHAR
STARTCHAR $1E39
ENCODING 7737
SWIDTH 185 0
DWIDTH 6 0
BBX 10 34 -2 -5
BITMAP
FFC0
FFC0
0000
0000
0000
0600
0600
0600
0600
0600
0600
0600
0600
0600
0600
0600
0600
0600
0600
0600
0600
0600
0600
0600
0600
0600
0600
0600
0000
0000
0000
0600
0600
0600
ENDCHAR
STARTCHAR $1E42
ENCODING 7746
SWIDTH 925 0
DWIDTH 30 0
BBX 25 30 2 -6
BITMAP
F0000F80
F8000F80
F8000F80
F8000F80
CC001D80
CC001980
CC003180
C6003180
C6007180
C7006180
C3006180
C300E180
C181C180
C181C180
C1838180
C0C38180
C0C38180
C0678180
C0760180
C0760180
C07C0180
C03C0180
C03C0180
C0180180
00000000
00000000
00180000
00380000
00380000
00100000
ENDCHAR
STARTCHAR $1E43
ENCODING 7747
SWIDTH 925 0
DWIDTH 30 0
BBX 26 24 2 -6
BITMAP
CF81FC00
FFF3FF00
F07F0700
E03E0380
C03C0180
C01C0180
C00C00C0
C00C00C0
C00C00C0
C00C00C0
C00C00C0
C00C00C0
C00C00C0
C00C00C0
C00C00C0
C00C00C0
C00C00C0
C00C00C0
00000000
00000000
000C0000
000C0000
000C0000
000C0000
ENDCHAR
STARTCHAR $1E44
ENCODING 7748
SWIDTH 740 0
DWIDTH 24 0
BBX 19 30 2 1
BITMAP
00C000
00C000
00C000
004000
000000
000000
F00060
F80060
F80060
F80060
CC0060
CE0060
C60060
C30060
C38060
C18060
C0C060
C0E060
C0F060
C07860
C03860
C01860
C00C60
C00E60
C007E0
C003E0
C003E0
C001E0
C000E0
C00060
ENDCHAR
STARTCHAR $1E45
ENCODING 7749
SWIDTH 592 0
DWIDTH 19 0
BBX 15 23 2 0
BITMAP
0300
0300
0300
0300
0000
C7E0
FFF8
F83C
F00C
E00C
C00E
C006
C006
C006
C006
C006
C006
C006
C006
C006
C006
C006
C002
ENDCHAR
STARTCHAR $1E46
ENCODING 7750
SWIDTH 740 0
DWIDTH 24 0
BBX 19 30 2 -6
BITMAP
F00060
F80060
F80060
F80060
CC0060
CE0060
C60060
C30060
C38060
C18060
C0C060
C0E060
C0F060
C07860
C03860
C01C60
C00C60
C00E60
C00660
C003E0
C003E0
C001E0
C000E0
C00060
000000
000000
00C000
00C000
00C000
00C000
ENDCHAR
STARTCHAR $1E47
ENCODING 7751
SWIDTH 592 0
DWIDTH 19 0
BBX 15 24 2 -6
BITMAP
C7C0
FFF8
F83C
F81C
F00C
C00C
C006
C006
C006
C006
C006
C006
C006
C006
C006
C006
C006
C006
0000
0000
0300
0300
0300
0300
ENDCHAR
STARTCHAR $1E58
ENCODING 7768
SWIDTH 592 0
DWIDTH 19 0
BBX 17 30 2 1
BITMAP
030000
030000
030000
030000
000000
000000
FFE000
FFF800
C03C00
C00600
C00600
C00700
C00780
C00380
C00780
C00700
C00600
C00600
C03C00
C7F800
C38000
C18000
C0C000
C0E000
C0F000
C07800
C03800
C00C00
C00E00
C00E00
ENDCHAR
STARTCHAR $1E59
ENCODING 7769
SWIDTH 296 0
DWIDTH 10 0
BBX 7 23 2 0
BITMAP
70
70
70
60
00
C6
FE
F8
F0
E0
C0
C0
C0
C0
C0
C0
C0
C0
C0
C0
C0
C0
C0
ENDCHAR
STARTCHAR $1E5A
ENCODING 7770
SWIDTH 592 0
DWIDTH 19 0
BBX 17 30 2 -6
BITMAP
FFC000
FFF800
E03C00
C01C00
C00600
C00600
C00780
C00380
C00780
C00700
C00600
C00600
C01C00
C7F800
C38000
C18000
C0C000
C0E000
C0F000
C07800
C03800
C01800
C00C00
C00E00
000000
000000
030000
030000
030000
010000
ENDCHAR
STARTCHAR $1E5B
ENCODING 7771
SWIDTH 296 0
DWIDTH 10 0
BBX 7 24 2 -6
BITMAP
C6
FE
F8
F8
F0
C0
C0
C0
C0
C0
C0
C0
C0
C0
C0
C0
C0
C0
00
00
C0
C0
C0
C0
ENDCHAR
STARTCHAR $1E5C
ENCODING 7772
SWIDTH 592 0
DWIDTH 19 0
BBX 17 34 2 -5
BITMAP
3FF800
3FF800
000000
000000
000000
FFE000
FFF800
E03C00
C00600
C00600
C00700
C00780
C00380
C00780
C00600
C00600
C00600
C03C00
C7F800
C38000
C18000
C0C000
C0E000
C0F000
C03800
C01800
C00C00
C00E00
000000
000000
000000
030000
030000
030000
ENDCHAR
STARTCHAR $1E5D
ENCODING 7773
SWIDTH 296 0
DWIDTH 10 0
BBX 10 28 -1 -5
BITMAP
FFC0
FFC0
0000
0000
0000
0CC0
0FC0
0F00
0E00
0C00
0C00
0C00
0C00
0C00
0C00
0C00
0C00
0C00
0C00
0C00
0C00
0C00
0800
0000
0000
0C00
0C00
0C00
ENDCHAR
STARTCHAR $1E62
ENCODING 7778
SWIDTH 481 0
DWIDTH 16 0
BBX 14 28 1 -3
BITMAP
0F80
1FF0
3870
7838
7038
C018
C000
E000
7800
3E00
1FC0
0FE0
01F0
0078
003C
001C
000C
C00C
C00C
F018
7878
3870
1FF0
0F80
0000
0300
0300
0300
ENDCHAR
STARTCHAR $1E63
ENCODING 7779
SWIDTH 370 0
DWIDTH 12 0
BBX 12 23 0 -5
BITMAP
0F00
1FC0
38C0
78C0
70C0
7000
7800
3E00
0780
01C0
00E0
00F0
E070
7070
7060
3FC0
1FC0
0F00
0000
0600
0600
0600
0600
ENDCHAR
STARTCHAR $1E6C
ENCODING 7788
SWIDTH 444 0
DWIDTH 15 0
BBX 13 30 0 -6
BITMAP
FFF8
FFF8
0300
0300
0300
0300
0300
0300
0300
0300
0300
0300
0300
0300
0300
0300
0300
0300
0300
0300
0300
0300
0300
0300
0000
0000
0300
0300
0300
0100
ENDCHAR
STARTCHAR $1E6D
ENCODING 7789
SWIDTH 333 0
DWIDTH 11 0
BBX 10 30 0 -6
BITMAP
0E00
0E00
0E00
0E00
0E00
1E00
FFC0
FFC0
1E00
0E00
0E00
0E00
0E00
0E00
0E00
0E00
0E00
0E00
0E00
0E00
0E00
0E00
0E00
0E00
0000
0000
0E00
0E00
0E00
0E00
ENDCHAR
STARTCHAR $1E6E
ENCODING 7790
SWIDTH 444 0
DWIDTH 15 0
BBX 13 28 0 -3
BITMAP
FFF8
FFF8
0300
0300
0300
0300
0300
0300
0300
0300
0300
0300
0300
0300
0300
0300
0300
0300
0300
0300
0300
0300
0300
0300
0000
0000
7FF0
7FF0
ENDCHAR
STARTCHAR $1E6F
ENCODING 7791
SWIDTH 333 0
DWIDTH 11 0
BBX 10 28 0 -3
BITMAP
0E00
0E00
0E00
0E00
0E00
1E00
FFC0
FFC0
1E00
0E00
0E00
0E00
0E00
0E00
0E00
0E00
0E00
0E00
0E00
0E00
0E00
0E00
0E00
0E00
0000
0000
FFC0
FFC0
ENDCHAR
STARTCHAR $1E80
ENCODING 7808
SWIDTH 962 0
DWIDTH 31 0
BBX 30 30 0 2
BITMAP
003C0000
000E0000
000F8000
0007C000
00018000
00000000
C0038018
6003801C
7007801C
7007C01C
3007C018
3807C030
380DC030
380C6030
380C6060
1C0C6060
0C1C6060
0C387060
0C383060
063830C0
063830C0
063038C0
06701DC0
06701D80
03601D80
03E01D80
03C00F80
01C00F00
01C00F00
00C00700
ENDCHAR
STARTCHAR $1E81
ENCODING 7809
SWIDTH 814 0
DWIDTH 27 0
BBX 26 25 0 1
BITMAP
00400000
00F00000
003C0000
001C0000
000E0000
00000000
00000000
C00000C0
600000C0
700C0180
700E0180
780E0180
381E0180
383E0300
0C3B8300
0C338600
0C338E00
0C738E00
0671CC00
0661DC00
07C1D800
07C0D800
03C07000
03807000
00807000
ENDCHAR
STARTCHAR $1E82
ENCODING 7810
SWIDTH 962 0
DWIDTH 31 0
BBX 30 30 0 2
BITMAP
00007000
0000E000
00078000
00070000
00060000
00000000
C0038018
6003801C
7007801C
7007C01C
3007C018
3807C030
380DC030
380C6030
380C6060
1C0C6060
0C1C6060
0C387060
0C383060
063830C0
063830C0
063038C0
06701DC0
06701D80
03601D80
03E01D80
03C00F80
01C00F00
01C00F00
00C00700
ENDCHAR
STARTCHAR $1E83
ENCODING 7811
SWIDTH 814 0
DWIDTH 27 0
BBX 26 25 0 1
BITMAP
00004000
0003C000
000F8000
001F0000
001C0000
00000000
00000000
C00000C0
600000C0
700C0180
700E0180
780E0180
381E0180
383E0300
0C3B8300
0C338600
0C338E00
0C738E00
0671CC00
0661DC00
07C1D800
07C0D800
03C07000
03807000
00807000
ENDCHAR
STARTCHAR $1E84
ENCODING 7812
SWIDTH 962 0
DWIDTH 31 0
BBX 30 30 0 1
BITMAP
000C6000
000C6000
000C6000
000C6000
00000000
00000000
C0038018
6003801C
7007801C
7007C01C
3007C018
3807C030
380DC030
380C6030
380C6060
1C0C6060
0C1C6060
0C387060
0C383060
063830C0
063830C0
063038C0
06701DC0
06701D80
03601D80
03E01D80
03C00F80
01C00F00
01C00F00
00C00700
ENDCHAR
STARTCHAR $1E85
ENCODING 7813
SWIDTH 814 0
DWIDTH 27 0
BBX 26 24 0 0
BITMAP
00738000
00738000
00738000
00230000
00000000
00000000
C00000C0
600000C0
700C0180
700E0180
381E0180
381E0100
183E0300
0C3B8300
0C338E00
0C338E00
0C738E00
0671CE00
0641DC00
07C1D800
03C0D000
03C05000
03807000
01807000
ENDCHAR
STARTCHAR $1E92
ENCODING 7826
SWIDTH 481 0
DWIDTH 16 0
BBX 15 30 0 -6
BITMAP
7FFC
7FFC
001C
001C
0038
0038
0070
00F0
00E0
00C0
01C0
0180
0300
0700
0600
0E00
0E00
0C00
3800
7800
7000
7000
FFFE
FFFE
0000
0000
0180
0180
0180
0080
ENDCHAR
STARTCHAR $1E93
ENCODING 7827
SWIDTH 407 0
DWIDTH 14 0
BBX 13 24 0 -6
BITMAP
7FF8
7FF8
0070
0060
00C0
01C0
0180
0300
0700
0700
0E00
1C00
3C00
7800
7000
FFF8
FFF8
FFF8
0000
0000
0300
0300
0300
0300
ENDCHAR
STARTCHAR $1E97
ENCODING 7831
SWIDTH 333 0
DWIDTH 11 0
BBX 10 30 0 1
BITMAP
7B00
7B00
7B00
7B00
0000
0000
0E00
0E00
0E00
0E00
0E00
1F00
FFC0
FFC0
0E00
0E00
0E00
0E00
0E00
0E00
0E00
0E00
0E00
0E00
0E00
0E00
0E00
0E00
0E00
0E00
ENDCHAR
STARTCHAR $1EA0
ENCODING 7840
SWIDTH 740 0
DWIDTH 24 0
BBX 22 30 1 -6
BITMAP
007000
00F800
00F800
00F800
018C00
018C00
038C00
030600
030600
070300
060380
060380
0C03C0
0FFFC0
1FFFC0
3800E0
380060
380060
700030
700030
E00038
C0003C
C0001C
C00018
000000
000000
003000
007000
007000
002000
ENDCHAR
STARTCHAR $1EA1
ENCODING 7841
SWIDTH 666 0
DWIDTH 22 0
BBX 19 23 1 -5
BITMAP
03F860
0FFE60
1E0FE0
3807E0
7003E0
7001E0
F001E0
E000E0
C00060
C00060
E000E0
F001E0
7001E0
7803E0
3C0660
1FFC60
0FFC60
03F860
000000
00C000
00C000
00C000
004000
ENDCHAR
STARTCHAR $1EA2
ENCODING 7842
SWIDTH 740 0
DWIDTH 24 0
BBX 22 31 1 1
BITMAP
00F800
008C00
000C00
001C00
003800
003000
000000
002000
00F800
00F800
00DC00
018C00
018C00
038C00
038600
030600
030700
060380
060380
0C03C0
0FFFC0
1FFFC0
3FFFC0
380060
380060
700030
700030
E00038
C0001C
C0001C
C00018
ENDCHAR
STARTCHAR $1EA3
ENCODING 7843
SWIDTH 666 0
DWIDTH 22 0
BBX 19 25 1 1
BITMAP
01F000
033800
003800
003800
007000
00C000
000000
03F860
0FFE60
1C07E0
3803E0
7803E0
7001E0
F001E0
E00060
C00060
C00060
E00060
F001E0
7001E0
7803E0
3803E0
1C0660
0FFC60
03F860
ENDCHAR
STARTCHAR $1EA4
ENCODING 7844
SWIDTH 740 0
DWIDTH 24 0
BBX 22 36 1 0
BITMAP
000400
000E00
003E00
007C00
00F000
000000
007000
00F800
01CC00
078700
000000
000000
007000
00F800
00F800
00DC00
018C00
018C00
038C00
030600
030600
070700
060380
060380
0C03C0
0FFFC0
3FFFC0
380060
380060
300070
700030
700030
C0003C
C0001C
C0001C
C00018
ENDCHAR
STARTCHAR $1EA5
ENCODING 7845
SWIDTH 666 0
DWIDTH 22 0
BBX 19 28 1 3
BITMAP
003C00
007800
00E000
01C000
018000
000000
01F000
033800
060C00
000000
01F060
03F860
0FFE60
3C07E0
7803E0
7001E0
7001E0
F001E0
C00060
C00060
C00060
E000E0
F001E0
7001E0
7803E0
3C0660
1FFC60
03F860
ENDCHAR
STARTCHAR $1EA6
ENCODING 7846
SWIDTH 740 0
DWIDTH 24 0
BBX 22 36 1 0
BITMAP
010000
038000
01E000
00F000
003800
000000
007000
00F800
01CC00
078700
000000
000000
007000
00F800
00F800
00DC00
018C00
018C00
038C00
030600
030600
070700
060380
060380
0C03C0
0FFFC0
3FFFC0
380060
380060
300070
700030
700030
C0003C
C0001C
C0001C
C00018
ENDCHAR
STARTCHAR $1EA7
ENCODING 7847
SWIDTH 666 0
DWIDTH 22 0
BBX 19 28 1 3
BITMAP
070000
038000
01E000
00E000
000000
000000
01F000
033800
060C00
000000
01F060
03F860
0FFE60
3C07E0
7803E0
7001E0
7001E0
F001E0
C00060
C00060
C00060
E000E0
F001E0
7001E0
7803E0
3C0660
1FFC60
03F860
ENDCHAR
STARTCHAR $1EA8
ENCODING 7848
SWIDTH 740 0
DWIDTH 24 0
BBX 22 37 1 0
BITMAP
003E00
003B00
003380
002300
000600
000400
000000
002000
00F800
00CC00
078F00
070700
000000
003000
007800
00F800
00F800
018C00
018C00
038C00
030600
030600
070300
060380
060380
0C03C0
0FFFC0
1FFFC0
3800E0
380060
380060
700030
700030
E00038
C0001C
C0001C
C00018
ENDCHAR
STARTCHAR $1EA9
ENCODING 7849
SWIDTH 666 0
DWIDTH 22 0
BBX 19 30 1 1
BITMAP
007C00
00E600
000600
000600
000C00
001800
000000
00E000
037800
070C00
000000
000000
03F860
0FFE60
1C07E0
3803E0
7803E0
7001E0
F001E0
E00060
C00060
C00060
E000E0
F001E0
7001E0
7803E0
3C0660
0FFC60
07F860
01F060
ENDCHAR
STARTCHAR $1EAA
ENCODING 7850
SWIDTH 740 0
DWIDTH 24 0
BBX 22 34 1 1
BITMAP
008000
03C400
033E00
031E00
000800
007000
00F800
00DC00
070700
000000
002000
007000
00F800
00F800
018C00
018C00
018C00
038C00
030600
030600
070300
060380
0E0380
0C03C0
1FFFC0
3FFFC0
380060
380060
700030
700030
700030
C0003C
C0001C
C0001C
ENDCHAR
STARTCHAR $1EAB
ENCODING 7851
SWIDTH 666 0
DWIDTH 22 0
BBX 19 27 1 2
BITMAP
038800
07FC00
003000
000000
000000
01F000
031800
071C00
000000
03F840
0FFE60
1FFFE0
3C07E0
7803E0
7001E0
F001E0
E000E0
C00060
C00060
C00060
E000E0
F001E0
7001E0
7803E0
1C0660
0FFC60
03F860
ENDCHAR
STARTCHAR $1EAC
ENCODING 7852
SWIDTH 740 0
DWIDTH 24 0
BBX 22 36 1 -6
BITMAP
007000
00F800
00DC00
018C00
070780
000000
007000
00F800
00F800
00CC00
018C00
018C00
038C00
030600
030600
070300
060380
060380
0C03C0
0FFFC0
1FFFC0
3FFFC0
380060
380060
700030
700030
C00038
C0001C
C0001C
C00008
000000
000000
007000
007000
007000
002000
ENDCHAR
STARTCHAR $1EAD
ENCODING 7853
SWIDTH 666 0
DWIDTH 22 0
BBX 19 28 1 -3
BITMAP
00C000
01F000
033000
071800
0E0C00
000000
03F860
0FFE60
3C07E0
7803E0
7001E0
7001E0
F001E0
C00060
C00060
C00060
E000E0
F001E0
7001E0
7803E0
3C07E0
1E0E60
0FFC60
03F860
000000
00C000
00C000
00C000
ENDCHAR
STARTCHAR $1EAE
ENCODING 7854
SWIDTH 740 0
DWIDTH 24 0
BBX 22 36 1 0
BITMAP
000200
000E00
003E00
007C00
003000
000000
030600
030600
01FE00
007000
000000
000000
007000
00F800
00F800
00DC00
018C00
018C00
038C00
030600
030600
070700
060380
060380
0C03C0
0FFFC0
3FFFC0
380060
380060
300070
700030
700030
C0003C
C0001C
C0001C
C00018
ENDCHAR
STARTCHAR $1EAF
ENCODING 7855
SWIDTH 666 0
DWIDTH 22 0
BBX 19 30 1 1
BITMAP
000400
000C00
003C00
007C00
01F000
008000
000000
060C00
07F800
01F000
000000
000000
03F860
0FFE60
1C07E0
3803E0
7803E0
7001E0
F001E0
E00060
C00060
C00060
E000E0
F001E0
7001E0
7803E0
3C0660
0FFC60
07F860
01F060
ENDCHAR
STARTCHAR $1EB0
ENCODING 7856
SWIDTH 740 0
DWIDTH 24 0
BBX 22 36 1 0
BITMAP
020000
038000
01E000
00F000
003000
000000
030600
030600
01FE00
007000
000000
000000
007000
00F800
00F800
00DC00
018C00
018C00
038C00
030600
030600
070700
060380
060380
0C03C0
0FFFC0
3FFFC0
380060
380060
300070
700030
700030
C0003C
C0001C
C0001C
C00018
ENDCHAR
STARTCHAR $1EB1
ENCODING 7857
SWIDTH 666 0
DWIDTH 22 0
BBX 19 28 1 3
BITMAP
060000
078000
01C000
00C000
000000
000000
060C00
07F800
01F000
000000
01F060
03F860
0FFE60
3C07E0
7803E0
7001E0
7001E0
F001E0
C00060
C00060
C00060
E000E0
F001E0
7001E0
7803E0
3C0660
1FFC60
03F860
ENDCHAR
STARTCHAR $1EB2
ENCODING 7858
SWIDTH 740 0
DWIDTH 24 0
BBX 22 36 1 0
BITMAP
00F800
00EC00
00CC00
009C00
003800
003000
037600
030600
01FE00
007000
000000
000000
007000
00F800
00F800
00DC00
018C00
018C00
038C00
030600
030600
070700
060380
060380
0C03C0
0FFFC0
3FFFC0
380060
380060
300070
700030
700030
C0003C
C0001C
C0001C
C00018
ENDCHAR
STARTCHAR $1EB3
ENCODING 7859
SWIDTH 666 0
DWIDTH 22 0
BBX 19 28 1 2
BITMAP
01F000
033800
003800
003800
007000
00C000
060C00
07F800
01F000
000000
01F060
03F860
0FFE60
3C07E0
7803E0
7001E0
7001E0
F001E0
C00060
C00060
C00060
E000E0
F001E0
7001E0
7803E0
3C0660
1FFC60
03F860
ENDCHAR
STARTCHAR $1EB4
ENCODING 7860
SWIDTH 740 0
DWIDTH 24 0
BBX 22 34 1 1
BITMAP
008000
03FE00
033E00
001C00
000000
030600
030600
01FC00
007000
000000
002000
007000
00F800
00F800
018C00
018C00
018C00
038C00
030600
030600
070300
060380
0E0380
0C03C0
1FFFC0
3FFFC0
380060
380060
700030
700030
700030
C0003C
C0001C
C0001C
ENDCHAR
STARTCHAR $1EB5
ENCODING 7861
SWIDTH 666 0
DWIDTH 22 0
BBX 19 28 1 2
BITMAP
030000
078800
06FC00
007C00
001000
000000
060C00
07F800
01F000
000000
01F060
03F860
0FFE60
3C07E0
7803E0
7001E0
7001E0
F001E0
C00060
C00060
C00060
E000E0
F001E0
7001E0
7803E0
3C0660
1FFC60
03F860
ENDCHAR
STARTCHAR $1EB6
ENCODING 7862
SWIDTH 740 0
DWIDTH 24 0
BBX 22 36 1 -6
BITMAP
030600
030600
01FE00
00FC00
003000
000000
007000
00F800
00F800
00CC00
018C00
018C00
038C00
030600
030600
070300
060380
060380
0C03C0
0FFFC0
1FFFC0
3FFFC0
380060
380060
700030
700030
C00038
C0001C
C0001C
C00008
000000
000000
007000
007000
007000
002000
ENDCHAR
STARTCHAR $1EB7
ENCODING 7863
SWIDTH 666 0
DWIDTH 22 0
BBX 19 28 1 -3
BITMAP
060C00
060C00
03F800
03F800
00C000
000000
03F860
0FFE60
3C07E0
7803E0
7001E0
7001E0
F001E0
C00060
C00060
C00060
E000E0
F001E0
7001E0
7803E0
3C07E0
1E0E60
0FFC60
03F860
000000
00C000
00C000
00C000
ENDCHAR
STARTCHAR $1EB8
ENCODING 7864
SWIDTH 518 0
DWIDTH 17 0
BBX 13 30 2 -6
BITMAP
FFF8
FFF8
E000
C000
C000
C000
C000
C000
C000
C000
FFF0
FFF8
FFF8
C000
C000
C000
C000
C000
C000
C000
C000
E000
FFF8
FFF8
0000
0000
0600
0600
0600
0600
ENDCHAR
STARTCHAR $1EB9
ENCODING 7865
SWIDTH 666 0
DWIDTH 22 0
BBX 18 23 1 -5
BITMAP
03F800
0FFE00
1E0F00
380780
700380
6001C0
E001C0
FFFFC0
FFFFC0
E00000
C00000
E00000
7001C0
780380
3C0600
1FFC00
0FFC00
03F000
000000
00C000
00C000
00C000
004000
ENDCHAR
STARTCHAR $1EBA
ENCODING 7866
SWIDTH 518 0
DWIDTH 17 0
BBX 13 31 2 1
BITMAP
0F80
0880
0080
0180
0300
0200
0000
FFF8
FFF8
E000
C000
C000
C000
C000
C000
C000
C000
E000
FFF8
FFF8
E000
C000
C000
C000
C000
C000
C000
C000
FFF8
FFF8
FFF8
ENDCHAR
STARTCHAR $1EBB
ENCODING 7867
SWIDTH 666 0
DWIDTH 22 0
BBX 18 25 1 1
BITMAP
01F000
033000
003000
003000
007000
00C000
000000
03F800
0FFE00
1C0700
380380
780380
7001C0
C001C0
FFFFC0
FFFFC0
FFFFC0
C00000
C00000
7001C0
780380
380300
1C0600
0FFC00
03E000
ENDCHAR
STARTCHAR $1EBC
ENCODING 7868
SWIDTH 518 0
DWIDTH 17 0
BBX 13 30 2 1
BITMAP
0800
1E40
33C0
03C0
0080
0000
FFF8
FFF8
C000
C000
C000
C000
C000
C000
C000
C000
E000
FFF8
FFF8
E000
C000
C000
C000
C000
C000
C000
C000
FFF8
FFF8
FFF0
ENDCHAR
STARTCHAR $1EBD
ENCODING 7869
SWIDTH 666 0
DWIDTH 22 0
BBX 18 24 1 0
BITMAP
030000
078800
06FC00
007C00
001000
000000
03F800
0FFE00
3C0700
780380
700180
6001C0
E001C0
FFFFC0
FFFFC0
E00000
C00000
E00000
7001C0
780380
3C0700
1E0E00
0FFC00
03F000
ENDCHAR
STARTCHAR $1EBE
ENCODING 7870
SWIDTH 518 0
DWIDTH 17 0
BBX 13 36 2 0
BITMAP
0040
01F0
03C0
0780
0600
0400
0700
0F80
3CC0
7070
0000
0000
FFF8
FFF8
E000
C000
C000
C000
C000
C000
C000
C000
E000
FFF8
FFF8
C000
C000
C000
C000
C000
C000
C000
C000
FFF8
FFF8
FFF8
ENDCHAR
STARTCHAR $1EBF
ENCODING 7871
SWIDTH 666 0
DWIDTH 22 0
BBX 18 28 1 3
BITMAP
003C00
00F800
00E000
01C000
018000
000000
01F000
037800
060C00
000000
01F000
03F800
0FFE00
3C0780
780380
7001C0
6001C0
E001C0
FFFFC0
FFFFC0
E00000
C00000
E00000
700180
780300
3C0600
1FFC00
03F000
ENDCHAR
STARTCHAR $1EC0
ENCODING 7872
SWIDTH 518 0
DWIDTH 17 0
BBX 13 36 2 0
BITMAP
3000
7C00
1E00
0F00
0300
0100
0700
0F80
3CC0
7070
0000
0000
FFF8
FFF8
E000
C000
C000
C000
C000
C000
C000
C000
E000
FFF8
FFF8
C000
C000
C000
C000
C000
C000
C000
C000
FFF8
FFF8
FFF8
ENDCHAR
STARTCHAR $1EC1
ENCODING 7873
SWIDTH 666 0
DWIDTH 22 0
BBX 18 28 1 3
BITMAP
070000
038000
01E000
00E000
000000
000000
01F000
037800
060C00
000000
01F000
03F800
0FFE00
3C0780
780380
7001C0
6001C0
E001C0
FFFFC0
FFFFC0
E00000
C00000
E00000
700180
780300
3C0600
1FFC00
03F000
ENDCHAR
STARTCHAR $1EC2
ENCODING 7874
SWIDTH 518 0
DWIDTH 17 0
BBX 13 37 2 0
BITMAP
01C0
0370
0330
0030
0070
00C0
0000
0700
0F80
1CC0
3060
6060
0000
FFF8
FFF8
E000
C000
C000
C000
C000
C000
C000
C000
C000
FFF8
FFF8
C000
C000
C000
C000
C000
C000
C000
C000
FFF0
FFF8
FFF8
ENDCHAR
STARTCHAR $1EC3
ENCODING 7875
SWIDTH 666 0
DWIDTH 22 0
BBX 18 30 1 1
BITMAP
007C00
00E600
000E00
000C00
000800
001800
000000
00E000
037800
073C00
000000
000000
03F800
0FFE00
1C0780
380380
780380
7001C0
C001C0
FFFFC0
FFFFC0
FFFF80
C00000
C00000
7001C0
780380
3C0600
0FFC00
07F000
01E000
ENDCHAR
STARTCHAR $1EC4
ENCODING 7876
SWIDTH 518 0
DWIDTH 17 0
BBX 13 34 2 1
BITMAP
0800
1E40
33C0
03C0
0080
0700
0F80
1CC0
7070
0000
FFF0
FFF8
FFF8
C000
C000
C000
C000
C000
C000
C000
C000
E000
FFF8
FFF8
C000
C000
C000
C000
C000
C000
C000
C000
FFF8
FFF8
ENDCHAR
STARTCHAR $1EC5
ENCODING 7877
SWIDTH 666 0
DWIDTH 22 0
BBX 18 27 1 2
BITMAP
038800
07FC00
003000
000000
000000
01F000
037800
071C00
000000
03F800
0FFE00
1FFF00
3C0780
780380
7001C0
E001C0
E001C0
FFFFC0
FFFFC0
E00000
C00000
E00000
7001C0
780300
1C0600
0FFC00
03F000
ENDCHAR
STARTCHAR $1EC6
ENCODING 7878
SWIDTH 518 0
DWIDTH 17 0
BBX 13 36 2 -6
BITMAP
0700
0F80
1EC0
3860
7030
0000
FFF8
FFF8
C000
C000
C000
C000
C000
C000
C000
C000
E000
FFF8
FFF8
E000
C000
C000
C000
C000
C000
C000
C000
FFF8
FFF8
FFF0
0000
0000
0600
0600
0600
0600
ENDCHAR
STARTCHAR $1EC7
ENCODING 7879
SWIDTH 666 0
DWIDTH 22 0
BBX 18 28 1 -3
BITMAP
00C000
01F000
073000
071800
0E0C00
000000
03F800
0FFE00
3C0700
780380
700180
6001C0
E001C0
FFFFC0
FFFFC0
E00000
C00000
E00000
7001C0
780380
3C0700
1E0E00
0FFC00
03F000
000000
00C000
00C000
00C000
ENDCHAR
STARTCHAR $1EC8
ENCODING 7880
SWIDTH 222 0
DWIDTH 8 0
BBX 7 31 0 1
BITMAP
7C
E6
06
06
0C
38
00
18
38
38
38
38
38
38
38
38
38
38
38
38
38
38
38
38
38
38
38
38
38
38
18
ENDCHAR
STARTCHAR $1EC9
ENCODING 7881
SWIDTH 185 0
DWIDTH 6 0
BBX 6 25 0 1
BITMAP
7C
E4
0C
18
38
38
00
18
38
38
38
38
38
38
38
38
38
38
38
38
38
38
38
38
18
ENDCHAR
STARTCHAR $1ECA
ENCODING 7882
SWIDTH 222 0
DWIDTH 8 0
BBX 2 30 2 -6
BITMAP
C0
C0
C0
C0
C0
C0
C0
C0
C0
C0
C0
C0
C0
C0
C0
C0
C0
C0
C0
C0
C0
C0
C0
C0
00
00
C0
C0
C0
C0
ENDCHAR
STARTCHAR $1ECB
ENCODING 7883
SWIDTH 185 0
DWIDTH 6 0
BBX 2 30 2 -6
BITMAP
C0
C0
C0
C0
00
00
C0
C0
C0
C0
C0
C0
C0
C0
C0
C0
C0
C0
C0
C0
C0
C0
C0
C0
00
00
C0
C0
C0
C0
ENDCHAR
STARTCHAR $1ECC
ENCODING 7884
SWIDTH 851 0
DWIDTH 28 0
BBX 25 28 1 -3
BITMAP
007F8000
03FFE000
0700F800
07007C00
0E001E00
38000F00
78000700
70000300
70000380
E0000180
C0000180
C0000180
C0000180
C0000180
70000180
70000380
70000300
78000700
3C000F00
0E001E00
07007C00
0780F000
03FFC000
00FF0000
00000000
000C0000
000C0000
000C0000
ENDCHAR
STARTCHAR $1ECD
ENCODING 7885
SWIDTH 666 0
DWIDTH 22 0
BBX 19 23 1 -5
BITMAP
03F800
0FFE00
1E0F00
380780
7003C0
7001C0
F001C0
E001E0
C000E0
C000C0
E001C0
F001C0
7001C0
780380
3C0780
1FFF00
0FFE00
03F800
000000
00C000
00C000
00C000
004000
ENDCHAR
STARTCHAR $1ECE
ENCODING 7886
SWIDTH 851 0
DWIDTH 28 0
BBX 25 31 1 1
BITMAP
003E0000
00720000
00020000
00020000
00060000
000C0000
00000000
003F0000
03FFE000
0780F800
0F001C00
1E001E00
38000F00
78000300
70000380
70000380
60000180
C0000180
C0000180
C0000180
C0000180
E0000180
70000380
70000380
78000700
3C000F00
1E001E00
0F007C00
07FFE000
01FFE000
00FF0000
ENDCHAR
STARTCHAR $1ECF
ENCODING 7887
SWIDTH 666 0
DWIDTH 22 0
BBX 19 25 1 1
BITMAP
01F000
033800
003000
003000
007000
00C000
000000
03F800
0FFE00
1C0700
380380
7803C0
7001C0
F001C0
E001E0
C000E0
C000E0
E001C0
F001C0
7001C0
780380
380380
1C0700
0FFE00
03F800
ENDCHAR
STARTCHAR $1ED0
ENCODING 7888
SWIDTH 851 0
DWIDTH 28 0
BBX 25 34 1 2
BITMAP
0003C000
000F8000
001E0000
003C0000
00180000
00000000
001E0000
00370000
00E38000
00000000
003F0000
007F8000
03FFE000
07007C00
0E001E00
18000E00
38000700
78000300
70000380
70000180
E0000180
C0000180
C0000180
C0000180
E0000180
70000180
70000380
70000300
38000700
1C000F00
0E001E00
07007C00
03FFE000
00FF8000
ENDCHAR
STARTCHAR $1ED1
ENCODING 7889
SWIDTH 666 0
DWIDTH 22 0
BBX 19 28 1 3
BITMAP
003C00
00F800
00E000
01C000
018000
000000
01F000
033800
060C00
000000
01F000
03F800
0FFE00
3C0780
7803C0
7001C0
7001C0
F001C0
C001E0
C00060
C000C0
E001C0
F001C0
700180
780380
3C0780
1FFE00
03F800
ENDCHAR
STARTCHAR $1ED2
ENCODING 7890
SWIDTH 851 0
DWIDTH 28 0
BBX 25 36 1 0
BITMAP
00800000
00C00000
00F00000
00780000
001E0000
00040000
00000000
001E0000
00370000
0063C000
00000000
00000000
007F8000
03FFE000
07807800
0F001C00
1E001E00
38000F00
78000300
70000380
70000180
60000180
C0000180
C0000180
C0000180
E0000180
60000180
70000380
78000300
38000700
1C000F00
0E001E00
07007C00
03FFE000
00FF8000
007F0000
ENDCHAR
STARTCHAR $1ED3
ENCODING 7891
SWIDTH 666 0
DWIDTH 22 0
BBX 19 28 1 3
BITMAP
070000
038000
01E000
00E000
000000
000000
01F000
033800
060C00
000000
01F000
03F800
0FFE00
3C0780
7803C0
7001C0
7001C0
F001C0
C001E0
C00060
C000C0
E001C0
F001C0
700180
780380
3C0780
1FFE00
03F800
ENDCHAR
STARTCHAR $1ED4
ENCODING 7892
SWIDTH 851 0
DWIDTH 28 0
BBX 25 36 1 0
BITMAP
0007C000
000CC000
0000C000
0001C000
00038000
00038000
00000000
001E0000
00370000
0063C000
00000000
00000000
007F8000
03FFE000
07807800
0F001C00
1E001E00
38000F00
78000300
70000380
70000180
60000180
C0000180
C0000180
C0000180
E0000180
60000180
70000380
78000300
38000700
1C000F00
0E001E00
07007C00
03FFE000
00FF8000
007F0000
ENDCHAR
STARTCHAR $1ED5
ENCODING 7893
SWIDTH 666 0
DWIDTH 22 0
BBX 19 30 1 1
BITMAP
007C00
00E600
000600
000600
000C00
001800
000000
00E000
037800
070C00
000000
000000
03F800
0FFE00
1C0780
3803C0
7803C0
7001C0
F001C0
E001E0
C000E0
C000E0
E001C0
F001C0
7001C0
780380
3C0780
0FFE00
07F800
01F000
ENDCHAR
STARTCHAR $1ED6
ENCODING 7894
SWIDTH 851 0
DWIDTH 28 0
BBX 25 33 1 1
BITMAP
00798000
00FFC000
00030000
00020000
00000000
003E0000
00778000
00E3C000
00000000
003F0000
01FFE000
03FFE000
07007800
0E001C00
18000E00
38000700
78000300
70000380
70000180
E0000180
C0000180
C0000180
C0000180
C0000180
70000380
70000380
78000300
3C000F00
1E001E00
0F001C00
0700F800
03FFE000
00FF8000
ENDCHAR
STARTCHAR $1ED7
ENCODING 7895
SWIDTH 666 0
DWIDTH 22 0
BBX 19 27 1 2
BITMAP
038800
07FC00
003000
000000
000000
01F000
037800
071C00
000000
03F800
0FFE00
1FFF00
3C0780
7803C0
7001C0
F001C0
E001C0
C001E0
C00060
C001C0
E001C0
F001C0
7001C0
780380
1C0700
0FFE00
03F800
ENDCHAR
STARTCHAR $1ED8
ENCODING 7896
SWIDTH 851 0
DWIDTH 28 0
BBX 25 33 1 -4
BITMAP
003E0000
00770000
00E38000
0043C000
00000000
007F8000
03FFE000
0700F800
0E001C00
18000E00
38000700
78000700
70000380
70000380
E0000180
C0000180
C0000180
C0000180
C0000180
70000180
70000380
70000300
78000700
3C000F00
0F001C00
07007800
03FFE000
00FF8000
00000000
00000000
000C0000
000C0000
000C0000
ENDCHAR
STARTCHAR $1ED9
ENCODING 7897
SWIDTH 666 0
DWIDTH 22 0
BBX 19 28 1 -3
BITMAP
00C000
01F000
033000
071800
0E0C00
000000
03F800
0FFE00
3C0700
7803C0
7001C0
7001C0
F001C0
C001E0
C00060
C000C0
E001C0
F001C0
7001C0
780380
3C0780
1E0F00
0FFE00
03F800
000000
00C000
00C000
00C000
ENDCHAR
STARTCHAR $1EDA
ENCODING 7898
SWIDTH 851 0
DWIDTH 28 0
BBX 25 30 1 1
BITMAP
00018000
00078000
001F0000
003E0000
00180000
00000000
007F8180
03FFE180
0700F980
0F003F00
18001F00
38000F00
78000700
70000380
70000180
E0000180
C0000180
C0000180
C0000180
C0000180
60000180
70000380
70000300
78000700
1C000E00
0E001E00
07007C00
03FFE000
00FF8000
00FF0000
ENDCHAR
STARTCHAR $1EDB
ENCODING 7899
SWIDTH 666 0
DWIDTH 22 0
BBX 20 24 1 1
BITMAP
003C00
007800
00E000
01C000
018000
000000
03F830
0FFE20
3C07E0
7803C0
7001C0
7001C0
F001C0
C001E0
C00060
C000C0
E001C0
F001C0
7001C0
780380
3C0780
1E0F00
0FFE00
03F800
ENDCHAR
STARTCHAR $1EDC
ENCODING 7900
SWIDTH 851 0
DWIDTH 28 0
BBX 25 30 1 1
BITMAP
00C00000
00F80000
003C0000
001C0000
000C0000
00000000
007F8180
03FFE180
0700F980
0F003F00
18001F00
38000F00
78000700
70000380
70000180
E0000180
C0000180
C0000180
C0000180
C0000180
60000180
70000380
70000300
78000700
1C000E00
0E001E00
07007C00
03FFE000
00FF8000
00FF0000
ENDCHAR
STARTCHAR $1EDD
ENCODING 7901
SWIDTH 666 0
DWIDTH 22 0
BBX 20 24 1 1
BITMAP
060000
038000
01E000
00E000
000000
000000
03F830
0FFE20
3C07E0
7803C0
7001C0
7001C0
F001C0
C001E0
C00060
C000C0
E001C0
F001C0
7001C0
780380
3C0780
1E0F00
0FFE00
03F800
ENDCHAR
STARTCHAR $1EDE
ENCODING 7902
SWIDTH 851 0
DWIDTH 28 0
BBX 25 31 1 1
BITMAP
003E0000
00720000
00020000
00020000
00060000
000C0000
00000000
003F0100
03FFE180
0780F980
0F001F00
1E001F00
38000F00
78000300
70000380
70000380
60000180
C0000180
C0000180
C0000180
C0000180
E0000180
70000380
70000380
78000700
3C000E00
1E001E00
0F007C00
07FFE000
01FFE000
00FF0000
ENDCHAR
STARTCHAR $1EDF
ENCODING 7903
SWIDTH 666 0
DWIDTH 22 0
BBX 20 25 1 1
BITMAP
01F000
033800
003000
003000
007000
00C000
000000
03F830
0FFE20
1C07E0
3803C0
7803C0
7001C0
F001C0
E001E0
C000E0
C000E0
E001C0
F001C0
7001C0
780380
380380
1C0700
0FFE00
03F800
ENDCHAR
STARTCHAR $1EE0
ENCODING 7904
SWIDTH 851 0
DWIDTH 28 0
BBX 25 28 1 2
BITMAP
00798000
00FF8000
00030000
00020000
00000000
007F8180
03FFE180
0700F980
0E001F00
18000F00
38000700
78000700
70000380
70000380
E0000180
C0000180
C0000180
C0000180
C0000180
70000180
70000380
70000300
78000600
3C000E00
0F001C00
07007800
03FFE000
00FF8000
ENDCHAR
STARTCHAR $1EE1
ENCODING 7905
SWIDTH 666 0
DWIDTH 22 0
BBX 20 24 1 0
BITMAP
010000
078800
067C00
003C00
001000
000000
03F830
0FFE20
3C07E0
7803C0
7001C0
7001C0
F001C0
C001E0
C00060
C000C0
E001C0
F001C0
7001C0
780380
3C0780
1E0F00
0FFE00
03F800
ENDCHAR
STARTCHAR $1EE2
ENCODING 7906
SWIDTH 851 0
DWIDTH 28 0
BBX 25 28 1 -3
BITMAP
007F8180
03FFE180
0700F980
07007F00
0E001F00
38000F00
78000700
70000300
70000380
E0000180
C0000180
C0000180
C0000180
C0000180
70000180
70000380
70000300
78000600
3C000E00
0E001E00
07007C00
0780F000
03FFC000
00FF0000
00000000
000C0000
000C0000
000C0000
ENDCHAR
STARTCHAR $1EE3
ENCODING 7907
SWIDTH 666 0
DWIDTH 22 0
BBX 20 23 1 -5
BITMAP
03F830
0FFE20
1E0FE0
3807E0
7003C0
7001C0
F001C0
E001E0
C000E0
C000C0
E001C0
F001C0
7001C0
780380
3C0780
1FFF00
0FFE00
03F800
000000
00C000
00C000
00C000
004000
ENDCHAR
STARTCHAR $1EE4
ENCODING 7908
SWIDTH 666 0
DWIDTH 22 0
BBX 17 28 2 -3
BITMAP
C00380
C00380
C00380
C00380
C00380
C00380
C00380
C00380
C00380
C00380
C00380
C00380
C00380
C00380
C00380
C00380
C00300
E00600
F00600
700600
780C00
381C00
1FF800
07F000
000000
018000
018000
018000
ENDCHAR
STARTCHAR $1EE5
ENCODING 7909
SWIDTH 592 0
DWIDTH 19 0
BBX 15 23 2 -5
BITMAP
C006
C006
C006
C006
C006
C006
C006
C006
C006
C006
C006
C006
E00E
F00E
781E
3FF6
1FE6
0F86
0000
0300
0300
0300
0300
ENDCHAR
STARTCHAR $1EE6
ENCODING 7910
SWIDTH 666 0
DWIDTH 22 0
BBX 17 31 2 1
BITMAP
03C000
067000
00E000
00C000
008000
018000
000000
C00300
C00380
C00380
C00380
C00380
C00380
C00380
C00380
C00380
C00380
C00380
C00380
C00380
C00380
C00380
C00380
C00300
E00600
F00600
700600
700C00
3FF800
1FF000
07F000
ENDCHAR
STARTCHAR $1EE7
ENCODING 7911
SWIDTH 592 0
DWIDTH 19 0
BBX 15 25 2 1
BITMAP
0780
04C0
00C0
00C0
0180
0100
0000
C006
C006
C006
C006
C006
C006
C006
C006
C006
C006
C006
C006
C00E
E00E
F01E
783E
3FF6
0F86
ENDCHAR
STARTCHAR $1EE8
ENCODING 7912
SWIDTH 703 0
DWIDTH 23 0
BBX 20 30 2 2
BITMAP
007800
01F000
03C000
038000
030000
000000
C003B0
C003A0
C003E0
C003C0
C00380
C00380
C00380
C00380
C00380
C00380
C00380
C00380
C00380
C00380
C00380
C00380
C00300
C00600
F00600
700600
781C00
3FF800
07E000
07C000
ENDCHAR
STARTCHAR $1EE9
ENCODING 7913
SWIDTH 666 0
DWIDTH 22 0
BBX 19 25 2 1
BITMAP
003000
00F000
01E000
07C000
070000
000000
000000
C00660
C00660
C007C0
C007C0
C007C0
C00780
C00600
C00600
C00600
C00600
C00600
C00600
C00E00
E00E00
F01E00
783E00
3FF600
0F8600
ENDCHAR
STARTCHAR $1EEA
ENCODING 7914
SWIDTH 703 0
DWIDTH 23 0
BBX 20 30 2 2
BITMAP
0E0000
070000
03C000
03C000
008000
000000
C003B0
C003A0
C003E0
C003C0
C00380
C00380
C00380
C00380
C00380
C00380
C00380
C00380
C00380
C00380
C00380
C00380
C00300
C00600
F00600
700600
781C00
3FF800
07E000
07C000
ENDCHAR
STARTCHAR $1EEB
ENCODING 7915
SWIDTH 666 0
DWIDTH 22 0
BBX 19 25 2 1
BITMAP
080000
1C0000
0F0000
078000
038000
000000
000000
C00660
C00660
C007C0
C007C0
C007C0
C00780
C00600
C00600
C00600
C00600
C00600
C00600
C00E00
E00E00
F01E00
783E00
3FF600
0F8600
ENDCHAR
STARTCHAR $1EEC
ENCODING 7916
SWIDTH 703 0
DWIDTH 23 0
BBX 20 31 2 1
BITMAP
03C000
067000
00E000
00C000
008000
018000
000000
C00330
C003A0
C003E0
C003C0
C003C0
C00380
C00380
C00380
C00380
C00380
C00380
C00380
C00380
C00380
C00380
C00380
C00300
E00600
F00600
700600
701C00
3FF800
1FF000
07C000
ENDCHAR
STARTCHAR $1EED
ENCODING 7917
SWIDTH 666 0
DWIDTH 22 0
BBX 19 25 2 1
BITMAP
078000
04C000
00C000
00C000
018000
010000
000000
C00660
C00660
C007C0
C007C0
C007C0
C00780
C00600
C00600
C00600
C00600
C00600
C00600
C00E00
E00E00
F01E00
783E00
3FF600
0F8600
ENDCHAR
STARTCHAR $1EEE
ENCODING 7918
SWIDTH 703 0
DWIDTH 23 0
BBX 20 30 2 1
BITMAP
020000
0F1000
09F000
08F800
000000
000000
C003B0
C003A0
C003E0
C003C0
C00380
C00380
C00380
C00380
C00380
C00380
C00380
C00380
C00380
C00380
C00380
C00380
C00300
C00600
F00600
700600
781C00
3FF800
07E000
07C000
ENDCHAR
STARTCHAR $1EEF
ENCODING 7919
SWIDTH 666 0
DWIDTH 22 0
BBX 19 24 2 0
BITMAP
040000
1FF000
19E000
08C000
000000
000000
C00660
C00660
C007C0
C007C0
C00780
C00700
C00600
C00600
C00600
C00600
C00600
C00600
C00E00
F00E00
781E00
383E00
1FF600
0F8600
ENDCHAR
STARTCHAR $1EF0
ENCODING 7920
SWIDTH 703 0
DWIDTH 23 0
BBX 20 28 2 -3
BITMAP
C003B0
C003A0
C003E0
C003E0
C003C0
C00380
C00380
C00380
C00380
C00380
C00380
C00380
C00380
C00380
C00380
C00380
C00300
E00600
F00600
700600
781C00
383C00
1FF800
07C000
000000
018000
018000
018000
ENDCHAR
STARTCHAR $1EF1
ENCODING 7921
SWIDTH 666 0
DWIDTH 22 0
BBX 19 23 2 -5
BITMAP
C00660
C00660
C007C0
C007C0
C007C0
C00780
C00600
C00600
C00600
C00600
C00600
C00600
E00E00
F00E00
781E00
3FF600
1FE600
0F8600
000000
030000
030000
030000
030000
ENDCHAR
STARTCHAR $1EF2
ENCODING 7922
SWIDTH 592 0
DWIDTH 19 0
BBX 19 30 0 2
BITMAP
070000
038000
01E000
00E000
000000
000000
F001E0
7001C0
7801C0
380380
380780
1C0700
0C0600
0E0E00
060C00
071800
073800
03B800
03F000
01F000
00E000
00C000
00C000
00C000
00C000
00C000
00C000
00C000
00C000
00C000
ENDCHAR
STARTCHAR $1EF3
ENCODING 7923
SWIDTH 518 0
DWIDTH 17 0
BBX 17 31 0 -6
BITMAP
040000
0E0000
038000
03C000
01C000
000000
000000
E00300
700780
700700
300600
380600
380C00
3C0C00
0C1800
0C3800
0C3800
067800
067000
077000
03E000
03C000
03C000
018000
018000
038000
030000
030000
070000
060000
060000
ENDCHAR
STARTCHAR $1EF4
ENCODING 7924
SWIDTH 592 0
DWIDTH 19 0
BBX 19 30 0 -6
BITMAP
F001E0
7001C0
7001C0
7803C0
380380
3C0780
0C0600
0E0E00
060E00
071C00
073800
033800
03F000
01F000
00E000
00C000
00C000
00C000
00C000
00C000
00C000
00C000
00C000
00C000
000000
000000
00C000
00C000
00C000
00C000
ENDCHAR
STARTCHAR $1EF5
ENCODING 7925
SWIDTH 518 0
DWIDTH 17 0
BBX 17 24 0 -6
BITMAP
F00380
700780
700700
700600
380600
380C00
3C0C00
1C1800
0C3800
0E3800
063800
077000
077000
03C000
03C000
01C000
01C000
018000
018000
030000
030C00
070C00
060C00
060C00
ENDCHAR
STARTCHAR $1EF6
ENCODING 7926
SWIDTH 592 0
DWIDTH 19 0
BBX 19 31 0 1
BITMAP
01F000
033800
003800
003800
007000
00C000
000000
E000E0
7001C0
7003C0
380380
380380
1C0780
0C0600
0E0E00
060C00
071C00
073800
033800
03F000
01F000
00E000
00C000
00C000
00C000
00C000
00C000
00C000
00C000
00C000
00C000
ENDCHAR
STARTCHAR $1EF7
ENCODING 7927
SWIDTH 518 0
DWIDTH 17 0
BBX 17 31 0 -6
BITMAP
03F000
027000
007000
006000
00C000
008000
000000
E00300
700780
700700
300600
380600
380C00
3C0C00
0C1800
0C3800
0C3800
067800
067000
077000
03E000
03C000
03C000
018000
018000
038000
030000
030000
070000
060000
060000
ENDCHAR
STARTCHAR $1EF8
ENCODING 7928
SWIDTH 592 0
DWIDTH 19 0
BBX 19 30 0 1
BITMAP
010000
078800
067C00
003C00
001000
000000
F001E0
7001C0
7801C0
380380
380780
1C0700
0C0600
0E0E00
060C00
071800
073800
03B800
03F000
01F000
00E000
00C000
00C000
00C000
00C000
00C000
00C000
00C000
00C000
00C000
ENDCHAR
STARTCHAR $1EF9
ENCODING 7929
SWIDTH 518 0
DWIDTH 17 0
BBX 17 30 0 -6
BITMAP
020800
07F800
06F000
006000
000000
000000
F00380
700780
700700
300600
380600
380C00
1C0C00
0C3800
0C3800
063800
067800
067000
077000
03E000
03C000
01C000
018000
018000
038000
030000
030000
060000
060000
060000
ENDCHAR
STARTCHAR $2000
ENCODING 8192
SWIDTH 518 0
DWIDTH 17 0
BBX 0 0 0 0
BITMAP
ENDCHAR
STARTCHAR $2001
ENCODING 8193
SWIDTH 1000 0
DWIDTH 32 0
BBX 0 0 0 0
BITMAP
ENDCHAR
STARTCHAR $2002
ENCODING 8194
SWIDTH 518 0
DWIDTH 17 0
BBX 0 0 0 0
BITMAP
ENDCHAR
STARTCHAR $2003
ENCODING 8195
SWIDTH 1000 0
DWIDTH 32 0
BBX 0 0 0 0
BITMAP
ENDCHAR
STARTCHAR $2004
ENCODING 8196
SWIDTH 333 0
DWIDTH 11 0
BBX 0 0 0 0
BITMAP
ENDCHAR
STARTCHAR $2005
ENCODING 8197
SWIDTH 259 0
DWIDTH 9 0
BBX 0 0 0 0
BITMAP
ENDCHAR
STARTCHAR $2006
ENCODING 8198
SWIDTH 185 0
DWIDTH 6 0
BBX 0 0 0 0
BITMAP
ENDCHAR
STARTCHAR $2007
ENCODING 8199
SWIDTH 555 0
DWIDTH 18 0
BBX 0 0 0 0
BITMAP
ENDCHAR
STARTCHAR $2008
ENCODING 8200
SWIDTH 259 0
DWIDTH 9 0
BBX 0 0 0 0
BITMAP
ENDCHAR
STARTCHAR $2009
ENCODING 8201
SWIDTH 185 0
DWIDTH 6 0
BBX 0 0 0 0
BITMAP
ENDCHAR
STARTCHAR $200A
ENCODING 8202
SWIDTH 111 0
DWIDTH 4 0
BBX 0 0 0 0
BITMAP
ENDCHAR
STARTCHAR $200B
ENCODING 8203
SWIDTH 0 0
DWIDTH 0 0
BBX 0 0 0 0
BITMAP
ENDCHAR
STARTCHAR $200C
ENCODING 8204
SWIDTH 0 0
DWIDTH 0 0
BBX 0 0 0 0
BITMAP
ENDCHAR
STARTCHAR $200D
ENCODING 8205
SWIDTH 0 0
DWIDTH 0 0
BBX 0 0 0 0
BITMAP
ENDCHAR
STARTCHAR $2010
ENCODING 8208
SWIDTH 333 0
DWIDTH 11 0
BBX 8 2 1 8
BITMAP
FF
FF
ENDCHAR
STARTCHAR $2011
ENCODING 8209
SWIDTH 333 0
DWIDTH 11 0
BBX 8 2 1 8
BITMAP
FF
FF
ENDCHAR
STARTCHAR $2012
ENCODING 8210
SWIDTH 592 0
DWIDTH 19 0
BBX 14 2 2 11
BITMAP
FFFC
FFFC
ENDCHAR
STARTCHAR $2013
ENCODING 8211
SWIDTH 518 0
DWIDTH 17 0
BBX 15 2 0 8
BITMAP
FFFE
FFFE
ENDCHAR
STARTCHAR $2014
ENCODING 8212
SWIDTH 1000 0
DWIDTH 32 0
BBX 32 2 0 8
BITMAP
FFFFFFFF
FFFFFFFF
ENDCHAR
STARTCHAR $2015
ENCODING 8213
SWIDTH 1148 0
DWIDTH 37 0
BBX 32 2 2 8
BITMAP
FFFFFFFF
FFFFFFFF
ENDCHAR
STARTCHAR $2016
ENCODING 8214
SWIDTH 407 0
DWIDTH 14 0
BBX 8 26 2 -4
BITMAP
C3
C3
C3
C3
C3
C3
C3
C3
C3
C3
C3
C3
C3
C3
C3
C3
C3
C3
C3
C3
C3
C3
C3
C3
C3
C3
ENDCHAR
STARTCHAR $2017
ENCODING 8215
SWIDTH 444 0
DWIDTH 15 0
BBX 9 7 2 -8
BITMAP
FF80
FF80
0000
0000
0000
FF80
FF80
ENDCHAR
STARTCHAR $2018
ENCODING 8216
SWIDTH 333 0
DWIDTH 11 0
BBX 5 6 4 19
BITMAP
C0
C0
60
70
70
38
ENDCHAR
STARTCHAR $2019
ENCODING 8217
SWIDTH 333 0
DWIDTH 11 0
BBX 5 6 4 19
BITMAP
38
70
70
60
C0
C0
ENDCHAR
STARTCHAR $201A
ENCODING 8218
SWIDTH 370 0
DWIDTH 12 0
BBX 4 6 4 -1
BITMAP
70
70
70
60
C0
C0
ENDCHAR
STARTCHAR $201C
ENCODING 8220
SWIDTH 518 0
DWIDTH 17 0
BBX 9 6 4 19
BITMAP
C600
C600
6300
7300
7300
3980
ENDCHAR
STARTCHAR $201D
ENCODING 8221
SWIDTH 481 0
DWIDTH 16 0
BBX 8 6 4 19
BITMAP
73
73
77
66
C6
C6
ENDCHAR
STARTCHAR $201E
ENCODING 8222
SWIDTH 518 0
DWIDTH 17 0
BBX 8 6 4 -1
BITMAP
73
73
77
67
C6
C6
ENDCHAR
STARTCHAR $2020
ENCODING 8224
SWIDTH 555 0
DWIDTH 18 0
BBX 13 27 2 -2
BITMAP
0600
0600
0600
0600
0600
0600
FFF8
FFF8
0600
0600
0600
0600
0600
0600
0600
0600
0600
0600
0600
0600
0600
0600
0600
0600
0600
0600
0600
ENDCHAR
STARTCHAR $2021
ENCODING 8225
SWIDTH 555 0
DWIDTH 18 0
BBX 13 28 2 -3
BITMAP
0600
0600
0600
0600
0600
0600
FFF8
FFF8
0600
0600
FFF0
FFF8
FFF8
0600
0600
0600
0600
0600
0600
0600
0600
0600
0600
0600
0600
0600
0600
0600
ENDCHAR
STARTCHAR $2022
ENCODING 8226
SWIDTH 518 0
DWIDTH 17 0
BBX 12 12 2 3
BITMAP
0600
1F80
3FC0
7FE0
FFF0
FFF0
FFF0
FFF0
7FE0
7FC0
1F80
0F00
ENDCHAR
STARTCHAR $2026
ENCODING 8230
SWIDTH 814 0
DWIDTH 27 0
BBX 22 4 2 0
BITMAP
C0701C
C0701C
C0701C
C02018
ENDCHAR
STARTCHAR $202F
ENCODING 8239
SWIDTH 185 0
DWIDTH 6 0
BBX 0 0 0 0
BITMAP
ENDCHAR
STARTCHAR $2030
ENCODING 8240
SWIDTH 1185 0
DWIDTH 38 0
BBX 37 24 0 0
BITMAP
0F00600000
1FC0C00000
30C1C00000
6061C00000
C073800000
C073800000
C076000000
60E6000000
3FC6000000
1F8C000000
000C000000
000C000000
0018000000
00387C0F80
0073FE1FF0
00778E3878
0067073038
00C6033038
00C6032038
0186033038
0187073078
01878E1870
0183FC0FE0
0300F80780
ENDCHAR
STARTCHAR $2031
ENCODING 8241
SWIDTH 1555 0
DWIDTH 50 0
BBX 50 24 0 0
BITMAP
0F006000000000
1FC0C000000000
30C1C000000000
6061C000000000
C0738000000000
C0738000000000
C0760000000000
60E60000000000
3FC60000000000
1F8C0000000000
000C0000000000
000C0000000000
00180000000000
00387C0F803C00
0073FE1FF07F80
00778E3878C380
00670730398380
00C603303901C0
00C603203B01C0
018603303B01C0
01870730798380
01878E1870C380
0183FC0FE07F00
0300F807803C00
ENDCHAR
STARTCHAR $2032
ENCODING 8242
SWIDTH 259 0
DWIDTH 9 0
BBX 4 7 2 18
BITMAP
70
70
70
60
C0
C0
C0
ENDCHAR
STARTCHAR $2033
ENCODING 8243
SWIDTH 407 0
DWIDTH 14 0
BBX 8 7 2 18
BITMAP
73
73
73
67
C6
C6
C6
ENDCHAR
STARTCHAR $2034
ENCODING 8244
SWIDTH 555 0
DWIDTH 18 0
BBX 13 7 2 18
BITMAP
7338
7338
7338
6738
C670
C670
C670
ENDCHAR
STARTCHAR $2035
ENCODING 8245
SWIDTH 259 0
DWIDTH 9 0
BBX 4 7 2 18
BITMAP
C0
C0
C0
E0
70
70
70
ENDCHAR
STARTCHAR $2036
ENCODING 8246
SWIDTH 407 0
DWIDTH 14 0
BBX 8 7 2 18
BITMAP
C6
C6
C6
E7
73
73
73
ENDCHAR
STARTCHAR $2037
ENCODING 8247
SWIDTH 555 0
DWIDTH 18 0
BBX 13 7 2 18
BITMAP
C670
C670
C670
E730
7338
7338
7318
ENDCHAR
STARTCHAR $2039
ENCODING 8249
SWIDTH 259 0
DWIDTH 9 0
BBX 6 12 1 4
BITMAP
0C
18
38
78
70
C0
F0
70
38
38
18
0C
ENDCHAR
STARTCHAR $203A
ENCODING 8250
SWIDTH 259 0
DWIDTH 9 0
BBX 5 12 1 4
BITMAP
C0
70
70
70
38
38
38
38
70
70
E0
C0
ENDCHAR
STARTCHAR $203B
ENCODING 8251
SWIDTH 592 0
DWIDTH 19 0
BBX 17 17 1 0
BITMAP
018000
03C000
01C400
18C400
1C0C00
0E3800
077000
E3E700
F1C780
F7F380
0F7000
1E7800
3C1C00
398C00
03C000
01C000
00C000
ENDCHAR
STARTCHAR $203D
ENCODING 8253
SWIDTH 592 0
DWIDTH 19 0
BBX 14 26 2 1
BITMAP
0300
0300
0FC0
1FE0
3FF0
7318
F30C
E30C
C30C
030C
030C
030C
0318
0338
03E0
03C0
0380
0380
0300
0300
0000
0000
0000
0300
0300
0300
ENDCHAR
STARTCHAR $203F
ENCODING 8255
SWIDTH 518 0
DWIDTH 17 0
BBX 14 4 1 -6
BITMAP
C00C
FFF8
3FF0
1FE0
ENDCHAR
STARTCHAR $2040
ENCODING 8256
SWIDTH 518 0
DWIDTH 17 0
BBX 14 4 1 20
BITMAP
3FF0
7FF8
E01C
C00C
ENDCHAR
STARTCHAR $2044
ENCODING 8260
SWIDTH 518 0
DWIDTH 17 0
BBX 12 26 2 -4
BITMAP
0070
00E0
00C0
00C0
00C0
0180
0180
0180
0300
0300
0700
0700
0600
0600
0E00
0C00
0C00
0C00
3C00
3800
3800
3000
7000
7000
6000
C000
ENDCHAR
STARTCHAR $2045
ENCODING 8261
SWIDTH 333 0
DWIDTH 11 0
BBX 7 31 2 -7
BITMAP
FE
FE
E0
C0
C0
C0
C0
C0
C0
C0
C0
C0
C0
C0
FE
FE
FE
C0
C0
C0
C0
C0
C0
C0
C0
C0
C0
C0
FE
FE
FE
ENDCHAR
STARTCHAR $2046
ENCODING 8262
SWIDTH 333 0
DWIDTH 11 0
BBX 7 31 1 -7
BITMAP
FE
FE
0E
06
06
06
06
06
06
06
06
06
06
06
FE
FE
FE
06
06
06
06
06
06
06
06
06
06
06
FE
FE
FE
ENDCHAR
STARTCHAR $2052
ENCODING 8274
SWIDTH 555 0
DWIDTH 18 0
BBX 15 24 1 0
BITMAP
0006
F00C
F00C
F81C
F038
E078
0070
00E0
00C0
00C0
0180
0180
0300
0300
0600
0E00
0E00
0C00
3C0E
381E
701E
701E
600E
C000
ENDCHAR
STARTCHAR $2054
ENCODING 8276
SWIDTH 518 0
DWIDTH 17 0
BBX 14 4 1 -6
BITMAP
0FC0
7FF8
E01C
C00C
ENDCHAR
STARTCHAR $2057
ENCODING 8279
SWIDTH 703 0
DWIDTH 23 0
BBX 18 7 2 18
BITMAP
7339C0
7339C0
7339C0
6739C0
C67380
C67380
C67380
ENDCHAR
STARTCHAR $205F
ENCODING 8287
SWIDTH 222 0
DWIDTH 8 0
BBX 0 0 0 0
BITMAP
ENDCHAR
STARTCHAR $2060
ENCODING 8288
SWIDTH 0 0
DWIDTH 0 0
BBX 0 0 0 0
BITMAP
ENDCHAR
STARTCHAR $2061
ENCODING 8289
SWIDTH 1111 0
DWIDTH 36 0
BBX 31 31 2 -7
BITMAP
0E3870C0
0E3870C0
00000000
00000000
00000000
C000000E
C000000E
C000000E
00000000
0030CC00
C0018604
C083060E
C1C2030E
C106030E
01040100
01040100
01040100
C106010E
C102010E
C203860E
00018E00
00000C00
00000000
00000000
C000000E
C000000E
C000000E
00000000
0E1870C0
0E3870C0
0E1870C0
ENDCHAR
STARTCHAR $2062
ENCODING 8290
SWIDTH 0 0
DWIDTH 0 0
BBX 0 0 0 0
BITMAP
ENDCHAR
STARTCHAR $2063
ENCODING 8291
SWIDTH 0 0
DWIDTH 0 0
BBX 0 0 0 0
BITMAP
ENDCHAR
STARTCHAR $2064
ENCODING 8292
SWIDTH 0 0
DWIDTH 0 0
BBX 0 0 0 0
BITMAP
ENDCHAR
STARTCHAR $20A1
ENCODING 8353
SWIDTH 814 0
DWIDTH 27 0
BBX 23 28 1 -1
BITMAP
003800
003800
00FF00
00FF80
03FFE0
1F387C
1C381E
38380E
703800
703800
F03800
E03800
C03800
C03800
C03800
C03800
E03800
703800
703800
783800
3C380C
1E381C
0F383C
0738F8
03FFE0
00FF80
003800
003800
ENDCHAR
STARTCHAR $20A4
ENCODING 8356
SWIDTH 555 0
DWIDTH 18 0
BBX 19 24 0 0
BITMAP
01F800
07FE00
0F0F00
0E0780
0C0380
3801C0
3801C0
380000
FFFC00
FFFC00
1E0000
0C0000
060000
FFFC00
FFFC00
01C060
018060
018060
018060
0181E0
0183C0
03C380
3FFF00
3FFC00
ENDCHAR
STARTCHAR $20A6
ENCODING 8358
SWIDTH 740 0
DWIDTH 24 0
BBX 22 24 1 0
BITMAP
780030
7C0030
7E0030
7E0030
760030
730030
FFFFF8
FFFFFC
70E070
70F030
707030
707030
707830
FFFFFC
FFFFFC
701F38
700E30
700630
7003B0
7003F0
7001F0
7000F0
700070
600030
ENDCHAR
STARTCHAR $20A9
ENCODING 8361
SWIDTH 962 0
DWIDTH 31 0
BBX 31 24 0 0
BITMAP
C003801C
7003801C
7007801C
7007C01C
7007C018
3807C038
FFFFFFFE
FFFFFFFE
3C0EE060
1C0C6060
0C186060
0C186060
0C383060
FFFFFFFE
FFFFFFFE
07703DC0
06703CC0
06701DC0
03701D80
03701D80
03E00F80
03C00F00
03C00F00
01C00F00
ENDCHAR
STARTCHAR $20AB
ENCODING 8363
SWIDTH 666 0
DWIDTH 22 0
BBX 17 26 2 -2
BITMAP
000600
000600
003F00
003F00
000600
07E600
3FFE00
703E00
400E00
C00600
C00600
C00600
800600
800600
C00600
C00600
E00600
700E00
383E00
0FF600
010000
000000
000000
000000
FFFF80
FFFF80
ENDCHAR
STARTCHAR $20AC
ENCODING 8364
SWIDTH 555 0
DWIDTH 18 0
BBX 19 24 -1 0
BITMAP
007E00
01FFC0
03C1E0
0780E0
060060
060020
0C0000
0C0000
7FFF00
FFFF80
1E0000
0C0000
0C0000
7FFE00
FFFC00
1C0000
0C0000
0C0000
060000
060040
038040
01C0C0
00FFC0
00FE00
ENDCHAR
STARTCHAR $20B1
ENCODING 8369
SWIDTH 703 0
DWIDTH 23 0
BBX 19 24 1 0
BITMAP
7FF800
7FFE00
780F00
780780
780380
FFFFE0
7801C0
7801C0
FFFFE0
780380
780780
780700
7FFE00
7FF000
780000
780000
780000
780000
780000
780000
780000
780000
780000
780000
ENDCHAR
STARTCHAR $20B2
ENCODING 8370
SWIDTH 888 0
DWIDTH 29 0
BBX 25 28 1 -1
BITMAP
000C0000
000C0000
00FF0000
00FF8000
03FFF000
07007C00
0E001E00
18000F00
78000700
70000000
70000000
60000000
C0000000
C0000000
C0000000
C03FFF00
E07FFF80
F07FFF80
70000380
78000300
38000700
18000E00
0F003C00
07007800
03FFF000
00FF8000
000C0000
000C0000
ENDCHAR
STARTCHAR $20BD
ENCODING 8381
SWIDTH 666 0
DWIDTH 22 0
BBX 18 24 2 0
BITMAP
3FF800
3FFE00
380F00
380780
3803C0
3801C0
3801C0
3801C0
3801C0
3803C0
380780
380700
3FFE00
FFF000
380000
380000
380000
FFC000
380000
380000
380000
380000
380000
380000
ENDCHAR
STARTCHAR $20BF
ENCODING 8383
SWIDTH 592 0
DWIDTH 19 0
BBX 15 28 2 -1
BITMAP
04C0
04C0
FFC0
FFE0
FFF0
C038
C038
C03C
C00C
C01C
C038
C038
E078
FFF0
FFF8
E03C
C01C
C00C
C006
C006
C006
C00E
C00C
C03C
FFF8
FFE0
04C0
04C0
ENDCHAR
STARTCHAR $20D0
ENCODING 8400
SWIDTH 0 0
DWIDTH 0 0
BBX 13 6 -13 25
BITMAP
0600
0E00
3800
7800
FFF8
FFF8
ENDCHAR
STARTCHAR $20D1
ENCODING 8401
SWIDTH 0 0
DWIDTH 0 0
BBX 13 7 -13 24
BITMAP
0400
0600
0380
03C0
01F0
FFF8
FFF8
ENDCHAR
STARTCHAR $20D2
ENCODING 8402
SWIDTH 0 0
DWIDTH 0 0
BBX 2 26 -8 -4
BITMAP
C0
C0
C0
C0
C0
C0
C0
C0
C0
C0
C0
C0
C0
C0
C0
C0
C0
C0
C0
C0
C0
C0
C0
C0
C0
C0
ENDCHAR
STARTCHAR $20D3
ENCODING 8403
SWIDTH 0 0
DWIDTH 0 0
BBX 2 15 -8 2
BITMAP
C0
C0
C0
C0
C0
C0
C0
C0
C0
C0
C0
C0
C0
C0
C0
ENDCHAR
STARTCHAR $20D4
ENCODING 8404
SWIDTH 0 0
DWIDTH 0 0
BBX 15 8 -14 25
BITMAP
3800
3800
3180
37C0
7FF0
7C78
FF8C
FF86
ENDCHAR
STARTCHAR $20D5
ENCODING 8405
SWIDTH 0 0
DWIDTH 0 0
BBX 15 9 -14 26
BITMAP
0030
0030
0030
0038
0338
3FF8
787C
73FC
C7FE
ENDCHAR
STARTCHAR $20D6
ENCODING 8406
SWIDTH 0 0
DWIDTH 0 0
BBX 13 9 -13 22
BITMAP
0600
1E00
3800
7800
FFF8
FFF8
7C00
1E00
0200
ENDCHAR
STARTCHAR $20D7
ENCODING 8407
SWIDTH 0 0
DWIDTH 0 0
BBX 13 10 -13 21
BITMAP
0400
0600
0380
03C0
01F0
FFF8
FFF8
01E0
07C0
0700
ENDCHAR
STARTCHAR $20D8
ENCODING 8408
SWIDTH 0 0
DWIDTH 0 0
BBX 12 12 -13 3
BITMAP
0F00
1FC0
38E0
7870
F070
C070
C070
E070
78F0
3FE0
1F80
0F00
ENDCHAR
STARTCHAR $20DB
ENCODING 8411
SWIDTH 0 0
DWIDTH 0 0
BBX 14 4 -14 20
BITMAP
C30C
C30C
C30C
C30C
ENDCHAR
STARTCHAR $20DC
ENCODING 8412
SWIDTH 0 0
DWIDTH 0 0
BBX 20 4 -17 20
BITMAP
C30C30
C30C30
C30C30
C30C30
ENDCHAR
STARTCHAR $20DD
ENCODING 8413
SWIDTH 0 0
DWIDTH 0 0
BBX 27 27 -20 -5
BITMAP
007FC000
01FFF000
07C0F800
07807C00
0E001E00
3C000F00
38000780
70000380
700000C0
E00000C0
C00000C0
C00000C0
C00000E0
C0000060
C00000E0
C00000C0
C00000C0
E00000C0
700000C0
70000180
38000180
38000300
1C000600
0E001C00
07C0F800
01FFF000
007FC000
ENDCHAR
STARTCHAR $20DE
ENCODING 8414
SWIDTH 0 0
DWIDTH 0 0
BBX 26 26 -20 -4
BITMAP
FFFFFFC0
FFFFFFC0
E00000C0
C00000C0
C00000C0
C00000C0
C00000C0
C00000C0
C00000C0
C00000C0
C00000C0
C00000C0
C00000C0
C00000C0
C00000C0
C00000C0
C00000C0
C00000C0
C00000C0
C00000C0
C00000C0
C00000C0
C00000C0
C00000C0
FFFFFFC0
FFFFFFC0
ENDCHAR
STARTCHAR $20DF
ENCODING 8415
SWIDTH 0 0
DWIDTH 0 0
BBX 38 38 -26 -9
BITMAP
0000300000
0000780000
0000FC0000
0001FE0000
0003CF0000
0007838000
000E01C000
001C00E000
0038007000
0070003800
00E0001C00
01C0001E00
0380000F00
0700000380
0E000001C0
1C000000E0
3C000000F0
7800000078
F00000003C
F00000000C
780000001C
3800000038
1C00000070
0E000000E0
07000001C0
0380000380
01C0000700
00F0000E00
0078001C00
0038003800
001C007000
000E00E000
000781C000
0003C38000
0001E70000
0000EE0000
00007C0000
0000380000
ENDCHAR
STARTCHAR $20E1
ENCODING 8417
SWIDTH 0 0
DWIDTH 0 0
BBX 19 9 -17 22
BITMAP
030C00
0F0E00
3E0380
7C03C0
FFFFE0
FFFFE0
3C07C0
070F00
030800
ENDCHAR
STARTCHAR $20E4
ENCODING 8420
SWIDTH 0 0
DWIDTH 0 0
BBX 33 30 -24 -7
BITMAP
0001C00000
0001E00000
0001E00000
0003E00000
0007B00000
00063C0000
000E1C0000
000C1C0000
00180E0000
0038060000
0038030000
0070038000
00F0018000
00C001C000
01C001C000
01C000E000
0180006000
0300006000
0300003000
0600003800
0E00001C00
0C00001C00
1C00000E00
3C00000600
3800000300
7000000300
F000000180
FFFFFFFF80
FFFFFFFF80
FFFFFFFF80
ENDCHAR
STARTCHAR $20E5
ENCODING 8421
SWIDTH 0 0
DWIDTH 0 0
BBX 12 26 -13 -4
BITMAP
F000
7000
7000
7000
7800
3800
3800
1C00
0C00
0C00
0C00
0600
0600
0600
0300
0300
0300
0380
0180
0180
0180
00C0
00C0
00E0
00F0
0070
ENDCHAR
STARTCHAR $20E6
ENCODING 8422
SWIDTH 0 0
DWIDTH 0 0
BBX 8 26 -10 -4
BITMAP
C3
C3
C3
C3
C3
C3
C3
C3
C3
C3
C3
C3
C3
C3
C3
C3
C3
C3
C3
C3
C3
C3
C3
C3
C3
C3
ENDCHAR
STARTCHAR $20E8
ENCODING 8424
SWIDTH 0 0
DWIDTH 0 0
BBX 14 4 -14 -6
BITMAP
C30C
C30C
C30C
C30C
ENDCHAR
STARTCHAR $20E9
ENCODING 8425
SWIDTH 0 0
DWIDTH 0 0
BBX 24 4 -19 23
BITMAP
FFFFFF
FFFFFF
E00007
C00002
ENDCHAR
STARTCHAR $20EA
ENCODING 8426
SWIDTH 0 0
DWIDTH 0 0
BBX 25 11 -19 4
BITMAP
01000000
07000000
0F000000
1F000000
7C000000
FFFFFF80
FFFFFF80
7C000000
1F000000
0F000000
03000000
ENDCHAR
STARTCHAR $20EB
ENCODING 8427
SWIDTH 0 0
DWIDTH 0 0
BBX 18 26 -15 -4
BITMAP
00C3C0
00C380
00C380
00C380
018780
018600
018600
030E00
030E00
030C00
071800
061800
063800
063800
0C7000
0C7000
1C7000
3C7000
38C000
38C000
78C000
70C000
718000
718000
E18000
C30000
ENDCHAR
STARTCHAR $20EC
ENCODING 8428
SWIDTH 0 0
DWIDTH 0 0
BBX 13 6 -13 -11
BITMAP
FFF8
FFF8
01E0
01C0
0780
0600
ENDCHAR
STARTCHAR $20ED
ENCODING 8429
SWIDTH 0 0
DWIDTH 0 0
BBX 13 6 -13 -11
BITMAP
FFF8
FFF8
7E00
7C00
0E00
0200
ENDCHAR
STARTCHAR $20EE
ENCODING 8430
SWIDTH 0 0
DWIDTH 0 0
BBX 13 9 -13 -9
BITMAP
0600
1E00
3800
7800
FFF8
FFF8
7C00
1E00
0200
ENDCHAR
STARTCHAR $20EF
ENCODING 8431
SWIDTH 0 0
DWIDTH 0 0
BBX 13 10 -13 -10
BITMAP
0400
0600
0380
03C0
01F0
FFF8
FFF8
01E0
07C0
0700
ENDCHAR
STARTCHAR $20F0
ENCODING 8432
SWIDTH 0 0
DWIDTH 0 0
BBX 8 8 -10 20
BITMAP
38
3A
FF
FF
7C
FF
FA
38
ENDCHAR
STARTCHAR $2103
ENCODING 8451
SWIDTH 1148 0
DWIDTH 37 0
BBX 34 24 1 0
BITMAP
0E000FE000
7F807FFE00
6180F00F00
4081E00700
C083C00380
C0860001C0
418E000000
7F8C000000
3E0C000000
000C000000
000C000000
000C000000
000C000000
000C000000
000C000000
000E000000
000E000000
00060000C0
0007800180
0003C00380
0001F01F00
0000F81F00
00007FF800
00000FE000
ENDCHAR
STARTCHAR $2107
ENCODING 8455
SWIDTH 555 0
DWIDTH 18 0
BBX 15 24 1 0
BITMAP
07F0
0FFC
1E1C
380C
3800
3800
3800
3800
3C00
1F80
0F80
1F80
3800
7000
7000
E000
C000
E000
7000
7000
380E
381E
1FFC
07F0
ENDCHAR
STARTCHAR $2109
ENCODING 8457
SWIDTH 851 0
DWIDTH 28 0
BBX 25 24 1 0
BITMAP
0E07FF80
7F87FF80
61870000
40860000
C0860000
C0860000
41860000
7F860000
3E060000
00060000
0007FF00
0007FF80
0007FF80
00060000
00060000
00060000
00060000
00060000
00060000
00060000
00060000
00060000
00060000
00060000
ENDCHAR
STARTCHAR $210F
ENCODING 8463
SWIDTH 592 0
DWIDTH 19 0
BBX 18 24 0 0
BITMAP
380000
380000
380000
380000
3C0000
380000
79F800
BFFE00
3E0700
3C0380
380380
380380
3801C0
3801C0
3801C0
3801C0
3801C0
3801C0
3801C0
3801C0
3801C0
3801C0
3801C0
380080
ENDCHAR
STARTCHAR $2113
ENCODING 8467
SWIDTH 481 0
DWIDTH 16 0
BBX 10 24 2 0
BITMAP
0F00
1F80
3980
3980
3180
7180
7180
7180
7180
7380
7300
7300
7600
7E00
7C00
7800
7800
F000
F0C0
78C0
3880
3B80
1F80
0F00
ENDCHAR
STARTCHAR $2116
ENCODING 8470
SWIDTH 1148 0
DWIDTH 37 0
BBX 32 24 2 0
BITMAP
F0006000
F8006000
F8006000
F8006000
CC006000
CE006000
C60060FC
C30061FE
C3806303
C1806303
C0C06203
C0E06201
C0F06201
C0706303
C0386303
C01C63FE
C00C61FC
C00E60F8
C0066000
C003E000
C003E000
C001E000
C000EFFF
C0006FFF
ENDCHAR
STARTCHAR $2117
ENCODING 8471
SWIDTH 740 0
DWIDTH 24 0
BBX 23 23 1 0
BITMAP
01FC00
060300
080060
080060
300020
43FC10
431E08
83030C
83038C
830380
830702
830E02
83FC02
83000C
83000C
C3000C
C30008
430010
300030
080060
060380
060300
00FC00
ENDCHAR
STARTCHAR $2118
ENCODING 8472
SWIDTH 703 0
DWIDTH 23 0
BBX 19 26 1 -7
BITMAP
060000
0C0E00
181F80
383FC0
7071C0
70C060
70C060
E0C060
C18060
C38060
630060
730060
760060
3E0060
3C01E0
3CE1C0
3C71C0
3E7FC0
763E00
760000
630000
430000
C30000
C30000
7E0000
7C0000
ENDCHAR
STARTCHAR $211E
ENCODING 8478
SWIDTH 592 0
DWIDTH 19 0
BBX 17 24 2 0
BITMAP
FFC000
FFF800
E03C00
C01C00
C00600
C00600
C00780
C00380
C00780
C00700
C00600
C00600
C01C00
C7F800
C38000
C18000
C0C000
C0E380
C0FE00
C07C00
C07800
C07800
C0CC00
C08E00
ENDCHAR
STARTCHAR $2120
ENCODING 8480
SWIDTH 1037 0
DWIDTH 34 0
BBX 28 13 2 11
BITMAP
3E0E0030
7F0F0070
E18F8070
C08F80F0
E00DC0D0
700DC0D0
3E0C6190
038C6190
018C7310
C18C3210
C18C1E10
E18C1E10
7F0C1810
ENDCHAR
STARTCHAR $2122
ENCODING 8482
SWIDTH 1000 0
DWIDTH 32 0
BBX 27 13 2 11
BITMAP
FF3C0060
083C00E0
083E00E0
083E01A0
083A01A0
083B8320
08398320
0839C220
0838CE20
08384C20
08387C20
08383820
08183020
ENDCHAR
STARTCHAR $2126
ENCODING 8486
SWIDTH 814 0
DWIDTH 27 0
BBX 24 23 1 0
BITMAP
00FE00
03FFC0
0FC3E0
1F83E0
3C0070
38003C
70001E
70000E
C0000E
C0000E
C0000F
C0000F
C0000F
C0000E
F0000E
70001E
70001C
78001C
3C003C
0F01F0
7F83F8
7F83FC
7F83F8
ENDCHAR
STARTCHAR $2127
ENCODING 8487
SWIDTH 814 0
DWIDTH 27 0
BBX 24 22 1 0
BITMAP
7F83FC
7F83FC
1F01F8
1E00F8
3C003C
78001C
70001E
F0000E
C0000F
C0000F
C0000F
C0000F
E0000F
F0000E
70001E
78001C
38001C
1C0078
0F01F0
07FFC0
01FF00
00FE00
ENDCHAR
STARTCHAR $212A
ENCODING 8490
SWIDTH 592 0
DWIDTH 19 0
BBX 15 24 2 0
BITMAP
C006
C00E
C01E
C03C
C078
C070
C0E0
C0C0
C3C0
C780
C700
C600
EE00
FB00
F980
F1C0
E0E0
C070
C030
C038
C01C
C01E
C00E
C006
ENDCHAR
STARTCHAR $212B
ENCODING 8491
SWIDTH 740 0
DWIDTH 24 0
BBX 22 32 1 0
BITMAP
007800
008800
008C00
018C00
018C00
00C800
00F800
000000
003000
007800
00F800
00F800
018C00
018C00
038C00
038600
030600
030600
060380
060380
0C03C0
0E03C0
1FFFC0
3FFFC0
380060
380060
700030
700030
E00038
C0003C
C0001C
C0001C
ENDCHAR
STARTCHAR $212E
ENCODING 8494
SWIDTH 851 0
DWIDTH 28 0
BBX 24 24 2 0
BITMAP
01FE00
0601C0
080020
080020
300010
70000C
70000E
F0000E
F0000E
F0000E
F0000F
F0001F
FFFFE0
F00000
F00000
F00000
F00000
700000
70000C
380010
1C0020
0E0020
0601C0
01FE00
ENDCHAR
STARTCHAR $2135
ENCODING 8501
SWIDTH 777 0
DWIDTH 25 0
BBX 20 24 2 0
BITMAP
F00060
700060
300060
380060
1C0060
0E0060
060060
070060
0F8060
19C060
30C060
70E0E0
7071C0
C07BC0
C03F80
C01F00
C00E00
C00600
C00780
C003C0
C001C0
C000C0
C00060
C00070
ENDCHAR
STARTCHAR $2136
ENCODING 8502
SWIDTH 666 0
DWIDTH 22 0
BBX 17 24 2 0
BITMAP
FF8000
FFF000
007000
003800
003800
001C00
000C00
000C00
000C00
000C00
000C00
000C00
000C00
000C00
000C00
000C00
000C00
000C00
000C00
000C00
000C00
001E00
FFFF80
FFFF00
ENDCHAR
STARTCHAR $2137
ENCODING 8503
SWIDTH 592 0
DWIDTH 19 0
BBX 14 24 2 0
BITMAP
FC00
FE00
0F00
0700
0300
0180
0180
0180
01C0
00C0
00C0
00C0
00E0
00F0
00F0
00F0
00F0
01F0
03B8
0738
1F38
3C38
F81C
E00C
ENDCHAR
STARTCHAR $2138
ENCODING 8504
SWIDTH 666 0
DWIDTH 22 0
BBX 18 24 2 0
BITMAP
FFFFC0
FFFFC0
001E00
000C00
000800
003800
003800
003800
003800
003800
003800
003800
003800
003800
003800
003800
003800
003800
003800
003800
003800
003800
003800
001800
ENDCHAR
STARTCHAR $2190
ENCODING 8592
SWIDTH 962 0
DWIDTH 31 0
BBX 26 9 2 5
BITMAP
03000000
0F000000
3E000000
7C000000
FFFFFFC0
FFFFFFC0
7C000000
1F000000
03000000
ENDCHAR
STARTCHAR $2191
ENCODING 8593
SWIDTH 518 0
DWIDTH 17 0
BBX 11 25 2 -4
BITMAP
0600
0F00
1F00
3F80
3FC0
7FC0
76E0
E6E0
0600
0600
0600
0600
0600
0600
0600
0600
0600
0600
0600
0600
0600
0600
0600
0600
0600
ENDCHAR
STARTCHAR $2192
ENCODING 8594
SWIDTH 962 0
DWIDTH 31 0
BBX 26 9 2 5
BITMAP
00003000
00003E00
00001F00
00001F00
FFFFFFC0
FFFFFFC0
00001F00
00003E00
00003000
ENDCHAR
STARTCHAR $2193
ENCODING 8595
SWIDTH 518 0
DWIDTH 17 0
BBX 10 25 2 -4
BITMAP
0600
0600
0600
0600
0600
0600
0600
0600
0600
0600
0600
0600
0600
0600
0600
0600
0600
F6C0
76C0
3F80
3F80
1F80
0F00
0F00
0600
ENDCHAR
STARTCHAR $2194
ENCODING 8596
SWIDTH 1074 0
DWIDTH 35 0
BBX 30 9 2 5
BITMAP
03000300
0F0003C0
3E0003E0
7C0003E0
FFFFFFFC
FFFFFFFC
7C0001E0
1F0003C0
03000300
ENDCHAR
STARTCHAR $2195
ENCODING 8597
SWIDTH 518 0
DWIDTH 17 0
BBX 10 30 2 -7
BITMAP
0600
0F00
0F00
1F80
3F80
3FC0
76C0
F6C0
0600
0600
0600
0600
0600
0600
0600
0600
0600
0600
0600
0600
0600
0600
7FC0
7FC0
3F80
1F00
1F00
0E00
0600
0600
ENDCHAR
STARTCHAR $2196
ENCODING 8598
SWIDTH 777 0
DWIDTH 25 0
BBX 19 19 2 0
BITMAP
700000
FF0000
7FC000
7FC000
7D8000
7E0000
770000
3B8000
39C000
30F000
007000
007800
001C00
000E00
000780
0003C0
0003C0
0001E0
000060
ENDCHAR
STARTCHAR $2197
ENCODING 8599
SWIDTH 777 0
DWIDTH 25 0
BBX 18 19 4 0
BITMAP
0001C0
001FC0
00FFC0
007FC0
0007C0
000DC0
001B80
003380
00E380
00C180
018000
030000
060000
0C0000
180000
300000
600000
C00000
800000
ENDCHAR
STARTCHAR $2198
ENCODING 8600
SWIDTH 777 0
DWIDTH 25 0
BBX 19 19 2 0
BITMAP
400000
F00000
700000
780000
1C0000
0E0000
070000
038000
01C000
00F0C0
0071C0
0079C0
001DC0
000FE0
0007E0
003FE0
007FE0
007FE0
0003E0
ENDCHAR
STARTCHAR $2199
ENCODING 8601
SWIDTH 777 0
DWIDTH 25 0
BBX 19 19 2 0
BITMAP
000020
000060
0000C0
0001C0
000380
000600
000C00
001800
003000
006000
30C000
398000
730000
760000
7C0000
7F8000
7F8000
FF8000
F80000
ENDCHAR
STARTCHAR $219A
ENCODING 8602
SWIDTH 962 0
DWIDTH 31 0
BBX 26 12 2 3
BITMAP
00003000
03003000
0F007000
1F007000
7C006000
FFFFFFC0
FFFFFFC0
7C01C000
1F01C000
07038000
00038000
00030000
ENDCHAR
STARTCHAR $219B
ENCODING 8603
SWIDTH 962 0
DWIDTH 31 0
BBX 26 12 2 3
BITMAP
00700000
00E03000
00C03C00
00C03E00
00E01F00
FFFFFFC0
FFFFFFC0
01C01F00
03003E00
03003000
07000000
07000000
ENDCHAR
STARTCHAR $219C
ENCODING 8604
SWIDTH 962 0
DWIDTH 31 0
BBX 25 10 2 3
BITMAP
78007E00
FF83FF00
7FC7C780
7FC7C300
7E0E0000
77FC0000
3BF00000
38000000
30000000
30000000
ENDCHAR
STARTCHAR $219D
ENCODING 8605
SWIDTH 962 0
DWIDTH 31 0
BBX 25 9 2 3
BITMAP
0F000F80
7FC0FF80
F0E1FF80
E070FF80
003C1F80
000FFF00
0007E700
00000300
00000200
ENDCHAR
STARTCHAR $219E
ENCODING 8606
SWIDTH 1074 0
DWIDTH 35 0
BBX 30 12 2 3
BITMAP
00004000
0300C000
0F07C000
1F07C000
7C3E0000
FFFFFFFC
FFFFFFFC
7C3F0000
1F078000
0701C000
0000C000
00004000
ENDCHAR
STARTCHAR $219F
ENCODING 8607
SWIDTH 518 0
DWIDTH 17 0
BBX 12 30 2 -7
BITMAP
0600
0F00
0F00
1F80
3F80
3FC0
76C0
F6C0
0600
0600
0F00
0F00
0F00
3F80
7F80
77C0
76E0
F670
0600
0600
0600
0600
0600
0600
0600
0600
0600
0600
0600
0600
ENDCHAR
STARTCHAR $21A0
ENCODING 8608
SWIDTH 1074 0
DWIDTH 35 0
BBX 30 9 2 5
BITMAP
000C0300
000F03C0
0003E3E0
0003E3E0
FFFFFFFC
FFFFFFFC
0003E1E0
000F83C0
000E0300
ENDCHAR
STARTCHAR $21A1
ENCODING 8609
SWIDTH 518 0
DWIDTH 17 0
BBX 9 30 4 -7
BITMAP
0C00
0C00
0C00
0C00
0C00
0C00
0C00
0C00
0C00
0C00
0C00
0C00
CD80
CF80
7F80
7F00
3F00
3E00
3C00
0C00
0C00
0C00
FD80
FF80
7F00
7E00
3E00
0C00
0C00
0C00
ENDCHAR
STARTCHAR $21A2
ENCODING 8610
SWIDTH 1074 0
DWIDTH 35 0
BBX 30 11 2 4
BITMAP
0000000C
0300003C
0F00007C
1F0000F8
7C0003E0
FFFFFFC0
FFFFFFC0
7C0003E0
1F00007C
0700003C
0000000C
ENDCHAR
STARTCHAR $21A3
ENCODING 8611
SWIDTH 1074 0
DWIDTH 35 0
BBX 30 12 2 3
BITMAP
80000000
C0000300
F0000380
F80003E0
1E0003F0
0FFFFFFC
0FFFFFFC
1F0003E0
F80003C0
E0000300
C0000000
80000000
ENDCHAR
STARTCHAR $21A4
ENCODING 8612
SWIDTH 962 0
DWIDTH 31 0
BBX 26 12 2 3
BITMAP
000000C0
030000C0
0F0000C0
1F0000C0
7C0000C0
FFFFFFC0
FFFFFFC0
7C0000C0
1F0000C0
070000C0
000000C0
000000C0
ENDCHAR
STARTCHAR $21A5
ENCODING 8613
SWIDTH 518 0
DWIDTH 17 0
BBX 12 25 2 -4
BITMAP
0600
0F00
0F00
1F80
3F80
7FC0
76E0
F6E0
0600
0600
0600
0600
0600
0600
0600
0600
0600
0600
0600
0600
0600
0600
0F00
FFF0
FFE0
ENDCHAR
STARTCHAR $21A6
ENCODING 8614
SWIDTH 962 0
DWIDTH 31 0
BBX 26 12 2 3
BITMAP
C0000000
C0003000
C0003C00
C0003E00
E0001F00
FFFFFFC0
FFFFFFC0
E0001F00
C0003E00
C0003000
C0000000
C0000000
ENDCHAR
STARTCHAR $21A7
ENCODING 8615
SWIDTH 518 0
DWIDTH 17 0
BBX 12 25 2 -4
BITMAP
FFF0
FFF0
0F00
0600
0600
0600
0600
0600
0600
0600
0600
0600
0600
0600
0600
0600
0600
F6F0
76C0
7F80
3F80
3F80
1F00
0F00
0600
ENDCHAR
STARTCHAR $21A9
ENCODING 8617
SWIDTH 1000 0
DWIDTH 32 0
BBX 27 12 2 3
BITMAP
00000F80
00000FC0
000000C0
010000E0
0F000060
3E0000C0
FFFFFFC0
FFFFFF80
7C000000
1F000000
07000000
03000000
ENDCHAR
STARTCHAR $21AA
ENCODING 8618
SWIDTH 1000 0
DWIDTH 32 0
BBX 27 12 2 3
BITMAP
3E000000
7E000000
F0000000
E0001800
E0001E00
F0000F80
7FFFFFE0
3FFFFFE0
00000F80
00001F00
00001C00
00001800
ENDCHAR
STARTCHAR $21AB
ENCODING 8619
SWIDTH 1000 0
DWIDTH 32 0
BBX 27 13 2 3
BITMAP
00000F80
00001FC0
000038C0
010030E0
0F003060
3E0030C0
FFFFFFC0
FFFFFF80
7C007000
1F003000
07003000
03003000
00003000
ENDCHAR
STARTCHAR $21AC
ENCODING 8620
SWIDTH 1000 0
DWIDTH 32 0
BBX 27 13 2 3
BITMAP
3E000000
7F000000
F3800000
E3801800
E1801E00
F1C00F80
7FFFFFE0
3FFFFFE0
01C00F80
01801F00
01801C00
01801800
01800000
ENDCHAR
STARTCHAR $21AD
ENCODING 8621
SWIDTH 1148 0
DWIDTH 37 0
BBX 32 11 2 4
BITMAP
01000080
031E00C0
0F3E00F0
1F7F00F8
7CF3803C
FFC383FF
FF81C7FF
7C01C73C
1F01FEF8
0F00FCE0
030000C0
ENDCHAR
STARTCHAR $21AE
ENCODING 8622
SWIDTH 1074 0
DWIDTH 35 0
BBX 30 12 2 3
BITMAP
0001C000
0301C300
0F018380
1F0383E0
7C0383F0
FFFFFFFC
FFFFFFFC
7C0703E0
1F0E03C0
070C0300
000C0000
000C0000
ENDCHAR
STARTCHAR $21AF
ENCODING 8623
SWIDTH 666 0
DWIDTH 22 0
BBX 16 30 2 -7
BITMAP
0800
0C00
1C00
3800
3800
3800
3800
3800
7000
7000
7004
700C
73FC
7FFC
FC3C
C038
8038
0038
0038
0038
0270
0370
0370
0377
01FE
01FC
01F8
00F0
00E0
00C0
ENDCHAR
STARTCHAR $21B0
ENCODING 8624
SWIDTH 555 0
DWIDTH 18 0
BBX 13 23 2 -2
BITMAP
0300
0F00
3E00
7C00
FFF8
FFF8
7C38
1F38
0338
0038
0038
0038
0038
0038
0038
0038
0038
0038
0038
0038
0038
0038
0018
ENDCHAR
STARTCHAR $21B1
ENCODING 8625
SWIDTH 555 0
DWIDTH 18 0
BBX 13 23 2 -2
BITMAP
0600
0780
01E0
01F0
FFF8
FFF8
E1F0
C7C0
C600
C000
C000
C000
C000
C000
C000
C000
C000
C000
C000
C000
C000
C000
C000
ENDCHAR
STARTCHAR $21B2
ENCODING 8626
SWIDTH 555 0
DWIDTH 18 0
BBX 13 23 2 -5
BITMAP
0038
0038
0038
0038
0038
0038
0038
0038
0038
0038
0038
0038
0038
0338
0F38
3C38
7C38
FFF8
FFF8
7C00
1F00
0F00
0300
ENDCHAR
STARTCHAR $21B3
ENCODING 8627
SWIDTH 555 0
DWIDTH 18 0
BBX 13 23 2 -5
BITMAP
C000
C000
C000
C000
C000
C000
C000
C000
C000
C000
C000
C000
C000
C600
C780
C1E0
E1F0
FFF8
FFF8
01F0
0780
0780
0600
ENDCHAR
STARTCHAR $21B4
ENCODING 8628
SWIDTH 777 0
DWIDTH 25 0
BBX 20 15 2 2
BITMAP
FFFE00
FFFE00
000E00
000600
000600
000600
000600
002630
007E60
003E60
003FC0
001FC0
000FC0
000780
000780
ENDCHAR
STARTCHAR $21B5
ENCODING 8629
SWIDTH 666 0
DWIDTH 22 0
BBX 15 19 2 -3
BITMAP
0006
0006
0006
0006
0006
0006
0006
0006
0006
0306
0F06
1F06
7C06
FFFE
FFFE
7C00
3C00
0F00
0300
ENDCHAR
STARTCHAR $21B6
ENCODING 8630
SWIDTH 851 0
DWIDTH 28 0
BBX 23 10 2 10
BITMAP
00FE00
C3FFC0
C703E0
C703E0
EC0070
F9003C
FF801C
FF001C
FC000E
F0000E
ENDCHAR
STARTCHAR $21B7
ENCODING 8631
SWIDTH 851 0
DWIDTH 28 0
BBX 23 10 2 10
BITMAP
01FC00
07FF0E
0F038E
1F03CE
3C01EE
78023E
7007FE
7001FE
C000FE
C0003E
ENDCHAR
STARTCHAR $21BA
ENCODING 8634
SWIDTH 888 0
DWIDTH 29 0
BBX 24 23 2 -4
BITMAP
010FFC
070FF0
0F0FC0
1E0FC0
3C07F0
3807BC
70039C
7003CC
C0018E
C0000E
C00007
C00007
E0000E
F0000E
70000E
70001E
30001C
380018
3C0070
0F01E0
03FFC0
01FF80
007E00
ENDCHAR
STARTCHAR $21BB
ENCODING 8635
SWIDTH 888 0
DWIDTH 29 0
BBX 24 23 2 -4
BITMAP
3FF180
3FF1E0
03F1F0
07E0F8
0FC03C
3D801C
7B800E
73000E
C1000E
C0000E
C00007
C00007
E0000E
F0000E
70000E
70001E
30001C
380018
3C0070
0F01E0
03FFC0
01FF80
007E00
ENDCHAR
STARTCHAR $21BC
ENCODING 8636
SWIDTH 962 0
DWIDTH 31 0
BBX 26 6 2 9
BITMAP
03000000
0F000000
3E000000
7C000000
FFFFFFC0
FFFFFFC0
ENDCHAR
STARTCHAR $21BD
ENCODING 8637
SWIDTH 962 0
DWIDTH 31 0
BBX 26 6 2 3
BITMAP
FFFFFFC0
FFFFFFC0
7E000000
7C000000
0F000000
03000000
ENDCHAR
STARTCHAR $21BE
ENCODING 8638
SWIDTH 370 0
DWIDTH 12 0
BBX 7 25 2 -4
BITMAP
C0
F0
F0
F8
F8
FC
EC
C6
C0
C0
C0
C0
C0
C0
C0
C0
C0
C0
C0
C0
C0
C0
C0
C0
C0
ENDCHAR
STARTCHAR $21BF
ENCODING 8639
SWIDTH 370 0
DWIDTH 12 0
BBX 7 25 2 -4
BITMAP
06
0E
1E
3E
3E
7E
76
E6
06
06
06
06
06
06
06
06
06
06
06
06
06
06
06
06
06
ENDCHAR
STARTCHAR $21C0
ENCODING 8640
SWIDTH 962 0
DWIDTH 31 0
BBX 26 6 2 9
BITMAP
00003000
00003800
00001F00
00001F00
FFFFFFC0
FFFFFFC0
ENDCHAR
STARTCHAR $21C1
ENCODING 8641
SWIDTH 962 0
DWIDTH 31 0
BBX 26 6 2 3
BITMAP
FFFFFFC0
FFFFFFC0
00001F00
00001E00
00003800
00003000
ENDCHAR
STARTCHAR $21C2
ENCODING 8642
SWIDTH 370 0
DWIDTH 12 0
BBX 7 25 2 -4
BITMAP
C0
C0
C0
C0
C0
C0
C0
C0
C0
C0
C0
C0
C0
C0
C0
C0
C0
CE
CC
F8
F8
F0
F0
E0
C0
ENDCHAR
STARTCHAR $21C3
ENCODING 8643
SWIDTH 370 0
DWIDTH 12 0
BBX 7 25 2 -4
BITMAP
06
06
06
06
06
06
06
06
06
06
06
06
06
06
06
06
06
F6
76
3E
3E
1E
0E
0E
06
ENDCHAR
STARTCHAR $21C4
ENCODING 8644
SWIDTH 962 0
DWIDTH 31 0
BBX 26 19 2 -1
BITMAP
00004000
00003000
00003C00
00003E00
00001F00
FFFFFFC0
FFFFFFC0
00001F00
00003C00
03003000
0F000000
1F000000
3C000000
FFFFFFC0
FFFFFFC0
7C000000
3C000000
0F000000
03000000
ENDCHAR
STARTCHAR $21C5
ENCODING 8645
SWIDTH 777 0
DWIDTH 25 0
BBX 20 25 2 -4
BITMAP
060600
0F0600
1F0600
3F8600
3FC600
7FC600
76E600
E6E600
060600
060600
060600
060600
060600
060600
060600
060600
060600
067670
063E60
063FC0
061FC0
061F80
060F80
060700
060600
ENDCHAR
STARTCHAR $21C6
ENCODING 8646
SWIDTH 962 0
DWIDTH 31 0
BBX 26 19 2 -1
BITMAP
01000000
03000000
0F000000
1F000000
7C000000
FFFFFFC0
FFFFFFC0
7C000000
1F000000
07003000
00003800
00003C00
00001F00
FFFFFFC0
FFFFFFC0
00001F00
00001E00
00003E00
00003000
ENDCHAR
STARTCHAR $21C7
ENCODING 8647
SWIDTH 962 0
DWIDTH 31 0
BBX 26 19 2 -1
BITMAP
01000000
03000000
0F000000
1F000000
7C000000
FFFFFFC0
FFFFFFC0
7C000000
1F000000
07000000
0F000000
1F000000
3C000000
FFFFFFC0
FFFFFFC0
7C000000
3C000000
0F000000
03000000
ENDCHAR
STARTCHAR $21C8
ENCODING 8648
SWIDTH 777 0
DWIDTH 25 0
BBX 20 25 2 -4
BITMAP
060600
0F0F00
1F0F80
3F9FC0
3FFFC0
7FFFE0
76F660
E6F630
060600
060600
060600
060600
060600
060600
060600
060600
060600
060600
060600
060600
060600
060600
060600
060600
060600
ENDCHAR
STARTCHAR $21C9
ENCODING 8649
SWIDTH 962 0
DWIDTH 31 0
BBX 26 19 2 -1
BITMAP
00004000
00003000
00003C00
00003E00
00001F00
FFFFFFC0
FFFFFFC0
00001F00
00003C00
00003000
00003800
00003C00
00001F00
FFFFFFC0
FFFFFFC0
00001F00
00001E00
00003E00
00003000
ENDCHAR
STARTCHAR $21CA
ENCODING 8650
SWIDTH 777 0
DWIDTH 25 0
BBX 20 25 2 -4
BITMAP
060600
060600
060600
060600
060600
060600
060600
060600
060600
060600
060600
060600
060600
060600
060600
060600
060600
F6F670
76FE60
3FBFC0
3F9FC0
1F9F80
0F0F80
0F0700
060600
ENDCHAR
STARTCHAR $21CB
ENCODING 8651
SWIDTH 962 0
DWIDTH 31 0
BBX 26 17 2 0
BITMAP
03000000
0F000000
3E000000
7C000000
FFFFFFC0
FFFFFFC0
00000000
00000000
00000000
00000000
FFFFFF80
FFFFFFC0
FFFFFFC0
00001F00
00003C00
00003800
00003000
ENDCHAR
STARTCHAR $21CC
ENCODING 8652
SWIDTH 962 0
DWIDTH 31 0
BBX 26 17 2 0
BITMAP
00003000
00003800
00001F00
00001F00
FFFFFFC0
FFFFFFC0
00000000
00000000
00000000
00000000
FFFFFF80
FFFFFFC0
FFFFFFC0
7C000000
0F000000
03000000
03000000
ENDCHAR
STARTCHAR $21CD
ENCODING 8653
SWIDTH 962 0
DWIDTH 31 0
BBX 26 15 2 2
BITMAP
00380E00
00F81E00
00F01C00
01F01C00
0FFFFFC0
3FFFFFC0
7C003000
F8003000
7C006000
3FFFFFC0
0FFFFFC0
07FFFFC0
01F1C000
00F9C000
0039C000
ENDCHAR
STARTCHAR $21CE
ENCODING 8654
SWIDTH 1296 0
DWIDTH 42 0
BBX 37 15 2 2
BITMAP
00380EC000
00F81CF000
00F01CF800
01F01CFC00
0FFFFFFF00
3FFFFFFFC0
7C003000F8
F8007000F8
7C006000F8
3FFFFFFFE0
0FFFFFFF00
07FFFFFF00
01F1C07800
00F9C0F000
003BC0C000
ENDCHAR
STARTCHAR $21CF
ENCODING 8655
SWIDTH 962 0
DWIDTH 31 0
BBX 26 15 2 2
BITMAP
00C40000
00C70000
00C3E000
01C3E000
FFFFFC00
FFFFFE00
03000F80
030007C0
03000F80
FFFFFE00
FFFFFC00
FFFFF800
0603E000
0C078000
0C060000
ENDCHAR
STARTCHAR $21D0
ENCODING 8656
SWIDTH 962 0
DWIDTH 31 0
BBX 26 15 2 2
BITMAP
00380000
00F80000
00F00000
01F00000
0FFFFFC0
3FFFFFC0
7C000000
F8000000
7C000000
3FFFFFC0
0FFFFFC0
07FFFFC0
01F00000
00F80000
00380000
ENDCHAR
STARTCHAR $21D1
ENCODING 8657
SWIDTH 666 0
DWIDTH 22 0
BBX 15 25 2 -4
BITMAP
0180
03C0
03C0
07E0
0FF0
0E78
0E78
1E7C
3E7C
7E76
F676
E676
0670
0670
0670
0670
0670
0670
0670
0670
0670
0670
0670
0670
0620
ENDCHAR
STARTCHAR $21D2
ENCODING 8658
SWIDTH 962 0
DWIDTH 31 0
BBX 26 15 2 2
BITMAP
00040000
00070000
0003E000
0003E000
FFFFFC00
FFFFFE00
00000F80
000007C0
00000F80
FFFFFE00
FFFFFC00
FFFFF800
0003E000
00078000
00060000
ENDCHAR
STARTCHAR $21D3
ENCODING 8659
SWIDTH 666 0
DWIDTH 22 0
BBX 17 25 2 -4
BITMAP
067000
067000
067000
067000
067000
067000
067000
067000
067000
067000
067000
067000
F67780
767600
7E7E00
3E7C00
3E7C00
1E7800
0E7800
067000
07F000
07E000
03C000
03C000
008000
ENDCHAR
STARTCHAR $21D4
ENCODING 8660
SWIDTH 1074 0
DWIDTH 35 0
BBX 29 15 2 2
BITMAP
00386000
00F87000
00F07C00
01F03E00
0FFFFF80
3FFFFFE0
7C0000F0
F80000F8
7C0000F8
3FFFFFF0
0FFFFFC0
07FFFF00
01F03E00
00F87000
00386000
ENDCHAR
STARTCHAR $21D5
ENCODING 8661
SWIDTH 666 0
DWIDTH 22 0
BBX 17 30 2 -7
BITMAP
018000
03C000
03C000
07E000
07F000
067000
0E7800
1E7800
3E7C00
7E7E00
7E7E00
667700
C67780
067000
067000
067000
067000
F67600
767600
3E7C00
3E7C00
1E7C00
0E7800
0E7800
076000
07E000
03C000
01C000
018000
008000
ENDCHAR
STARTCHAR $21D6
ENCODING 8662
SWIDTH 814 0
DWIDTH 27 0
BBX 22 21 2 -3
BITMAP
700000
FF0000
7FE000
7FF000
71FE00
70FC00
787800
3C3C00
3E0E00
3F0700
3F8380
1F83C0
0DE1E0
0CF070
087838
003C1C
001C18
000E00
000780
0003C0
000180
ENDCHAR
STARTCHAR $21D7
ENCODING 8663
SWIDTH 814 0
DWIDTH 27 0
BBX 22 22 2 -4
BITMAP
00003C
0003FC
003FFC
007FFC
01FE38
00BC30
007830
00F070
01E0F0
03C3E0
0787E0
0707E0
0E0E60
3C3C40
787800
F07000
E0E000
41C000
038000
070000
070000
040000
ENDCHAR
STARTCHAR $21D8
ENCODING 8664
SWIDTH 814 0
DWIDTH 27 0
BBX 20 20 4 1
BITMAP
0C0000
0E0000
0F0000
078000
83C000
C1E000
70F180
3879C0
1C3DC0
0E0FC0
0F0FC0
0707C0
0383E0
01C1E0
00F060
03F870
03F8F0
01FFF0
003FF0
0001F0
ENDCHAR
STARTCHAR $21D9
ENCODING 8665
SWIDTH 814 0
DWIDTH 27 0
BBX 22 22 2 -1
BITMAP
000180
0003C0
000780
000700
000E00
003C1C
007838
08F078
0DE0E0
0FC3C0
1F8780
3F0700
3E0E00
3C3C00
787800
707000
70F000
71FC00
7FFC00
FF8000
F80000
F00000
ENDCHAR
STARTCHAR $21DA
ENCODING 8666
SWIDTH 1111 0
DWIDTH 36 0
BBX 31 21 2 -1
BITMAP
00018000
00038000
000F8000
001F8000
007FFFFE
00FFFFFE
03E00000
0F000000
7C000000
FFFFFFFE
FFFFFFFE
FFFFFFFE
7C000000
0F000000
03C00000
00FFFFFC
007FFFFE
007FFFFE
000F8000
00038000
00018000
ENDCHAR
STARTCHAR $21DB
ENCODING 8667
SWIDTH 1111 0
DWIDTH 36 0
BBX 31 21 2 -1
BITMAP
00020000
00030000
0003E000
0003E000
FFFFFC00
FFFFFE00
00000F80
000003E0
000000FC
FFFFFFFE
FFFFFFFE
FFFFFFFE
00000078
000001E0
00000F80
FFFFFE00
FFFFFC00
FFFFF800
0003E000
00038000
00030000
ENDCHAR
STARTCHAR $21DC
ENCODING 8668
SWIDTH 1111 0
DWIDTH 36 0
BBX 31 11 2 4
BITMAP
00000200
03000F00
0F000F80
1F001FE0
7C0018F0
FFE0307E
FFF8703E
7C3C6000
1F0FC000
0707C000
00018000
ENDCHAR
STARTCHAR $21DD
ENCODING 8669
SWIDTH 1111 0
DWIDTH 36 0
BBX 31 12 2 3
BITMAP
00800000
03C00180
07C001E0
07E001E0
0E7000F0
FC381FFE
F0183FFE
001C78F8
000FE1E0
00078180
00030000
00020000
ENDCHAR
STARTCHAR $21E6
ENCODING 8678
SWIDTH 1111 0
DWIDTH 36 0
BBX 31 17 2 -1
BITMAP
00080000
00180000
00F80000
00F80000
03F80000
1F3FFFFE
3C1FFFFE
F000000E
C000000E
F000000E
3C0FFFFE
1F1FFFFE
073FFFFE
01F80000
00F80000
00380000
00180000
ENDCHAR
STARTCHAR $21E7
ENCODING 8679
SWIDTH 703 0
DWIDTH 23 0
BBX 17 31 2 -7
BITMAP
01C000
03C000
036000
077000
063000
063800
0C1800
0C1C00
380600
700600
7C0F00
7E1F80
FE3F80
063800
063800
063800
063800
063800
063800
063800
063800
063800
063800
063800
063800
063800
063800
063800
07F800
07F800
07F800
ENDCHAR
STARTCHAR $21E8
ENCODING 8680
SWIDTH 1111 0
DWIDTH 36 0
BBX 31 17 2 -1
BITMAP
00002000
00003000
00003C00
00003E00
00003F80
FFFFF1E0
FFFFF070
E000001C
C000000E
C000001E
FFFFE0F8
FFFFF0F0
FFFFF1C0
00003F00
00003E00
00003800
00003000
ENDCHAR
STARTCHAR $21E9
ENCODING 8681
SWIDTH 703 0
DWIDTH 23 0
BBX 17 31 2 -7
BITMAP
07F800
07F800
073800
063800
063800
063800
063800
063800
063800
063800
063800
063800
063800
063800
063800
063800
063800
063800
FE3F80
7E1F80
380700
380E00
180C00
0C0C00
0C3800
063800
063000
037000
01E000
01C000
008000
ENDCHAR
STARTCHAR $21F3
ENCODING 8691
SWIDTH 703 0
DWIDTH 23 0
BBX 17 30 2 -7
BITMAP
01C000
03C000
036000
077000
063000
063800
0C1800
0C1C00
380600
700600
7C0F00
7E1F80
FE3F80
063800
063800
063800
063800
FE3F80
7E3F80
380600
380C00
180C00
0C0C00
0C3800
063800
067000
037000
01E000
01C000
008000
ENDCHAR
STARTCHAR $21F5
ENCODING 8693
SWIDTH 777 0
DWIDTH 25 0
BBX 20 25 2 -4
BITMAP
060600
060F00
060F80
061FC0
063FC0
063FE0
067660
06F630
060600
060600
060600
060600
060600
060600
060600
060600
060600
F6C600
76C600
3F8600
3F8600
1F8600
0F0600
0F0600
060600
ENDCHAR
STARTCHAR $21F6
ENCODING 8694
SWIDTH 962 0
DWIDTH 31 0
BBX 26 26 2 -4
BITMAP
00003000
00003E00
00001F00
00001F00
FFFFFFC0
FFFFFFC0
00001F00
00003C00
00003000
00003800
00001E00
00001F00
FFFFFFC0
FFFFFFC0
00001F00
00003C00
00003800
00003000
00003C00
00001F00
FFFFFFC0
FFFFFFC0
FFFFFFC0
00001F00
00003C00
00003000
ENDCHAR
STARTCHAR $2200
ENCODING 8704
SWIDTH 703 0
DWIDTH 23 0
BBX 18 24 2 0
BITMAP
C001C0
C001C0
6001C0
7001C0
700380
700380
380380
380700
3FFE00
1FFE00
0E1E00
0C0C00
0C0C00
060C00
061800
063800
073800
033800
037000
037000
01F000
01E000
01C000
01C000
ENDCHAR
STARTCHAR $2201
ENCODING 8705
SWIDTH 592 0
DWIDTH 19 0
BBX 14 24 2 0
BITMAP
07C0
1FF0
3870
7838
701C
C00C
C00C
C000
C000
C000
C000
C000
C000
C000
C000
C000
C000
C00C
C00C
701C
7878
3870
1FF0
07C0
ENDCHAR
STARTCHAR $2202
ENCODING 8706
SWIDTH 481 0
DWIDTH 16 0
BBX 15 25 0 1
BITMAP
7F80
7FC0
0060
0030
0018
000C
000C
000C
0006
0006
0006
0006
0FFE
383E
7006
7006
6006
C004
C00C
C00C
6018
7030
7070
3FC0
0F80
ENDCHAR
STARTCHAR $2203
ENCODING 8707
SWIDTH 592 0
DWIDTH 19 0
BBX 14 24 2 0
BITMAP
FFFC
FFFC
001C
000C
000C
000C
000C
000C
000C
000C
FFFC
FFFC
FFFC
000C
000C
000C
000C
000C
000C
000C
000C
001C
FFFC
FFFC
ENDCHAR
STARTCHAR $2204
ENCODING 8708
SWIDTH 592 0
DWIDTH 19 0
BBX 14 28 2 -1
BITMAP
0038
0038
FFFC
FFFC
FFFC
007C
00EC
00CC
00CC
00CC
018C
018C
018C
FFFC
FFFC
039C
030C
060C
060C
060C
0C0C
0C0C
0C0C
1C0C
FFFC
FFFC
3800
7000
ENDCHAR
STARTCHAR $2205
ENCODING 8709
SWIDTH 592 0
DWIDTH 19 0
BBX 14 31 2 -3
BITMAP
003C
0038
0038
0038
0FF8
3FF0
7878
70FC
C0EC
C0CC
C0CC
C18C
C18C
C18C
C38C
C30C
C30C
C30C
C60C
C60C
C60C
EC0C
FC0C
7C3C
7C78
3FF0
3FE0
3800
7000
7000
7000
ENDCHAR
STARTCHAR $2206
ENCODING 8710
SWIDTH 629 0
DWIDTH 21 0
BBX 20 22 0 0
BITMAP
00F000
00F000
00F000
01F800
01B800
019C00
030C00
030E00
070600
070600
060300
060380
0C0380
0C03C0
1C01C0
3801E0
3800E0
780060
700060
7FFFF0
FFFFF0
FFFFE0
ENDCHAR
STARTCHAR $2207
ENCODING 8711
SWIDTH 629 0
DWIDTH 21 0
BBX 20 22 0 0
BITMAP
FFFFF0
7FFFF0
7000F0
700060
780060
3801E0
3C01C0
1C03C0
0C0380
0E0380
060700
070600
070600
030E00
038C00
018C00
019C00
01B800
00F800
00F800
00F000
006000
ENDCHAR
STARTCHAR $2208
ENCODING 8712
SWIDTH 740 0
DWIDTH 24 0
BBX 19 18 2 -1
BITMAP
03FFE0
0FFFE0
1E0000
380000
700000
600000
E00000
FFFFE0
FFFFE0
E00000
600000
700000
700000
780000
3E0000
1FFFE0
0FFFE0
03FFE0
ENDCHAR
STARTCHAR $2209
ENCODING 8713
SWIDTH 740 0
DWIDTH 24 0
BBX 19 25 2 -4
BITMAP
000C00
000C00
000C00
001C00
03FFE0
1FFFE0
3C3800
783000
707000
E07000
FFFFE0
FFFFE0
FFFFE0
C1C000
718000
718000
718000
7B8000
3F0000
0FFFE0
07FFE0
07FFE0
060000
060000
0E0000
ENDCHAR
STARTCHAR $220A
ENCODING 8714
SWIDTH 555 0
DWIDTH 18 0
BBX 13 12 2 3
BITMAP
0FF8
1FF8
3800
7800
F000
FFF8
FFF8
F000
7800
3FF8
1FF8
0FF8
ENDCHAR
STARTCHAR $220B
ENCODING 8715
SWIDTH 740 0
DWIDTH 24 0
BBX 19 18 2 -1
BITMAP
FFF800
FFFE00
000F00
000780
0003C0
0001C0
000060
FFFFE0
FFFFE0
0000E0
0000C0
0001C0
0001C0
000380
000F80
FFFF00
FFFE00
FFF800
ENDCHAR
STARTCHAR $220C
ENCODING 8716
SWIDTH 740 0
DWIDTH 24 0
BBX 19 25 2 -4
BITMAP
000C00
000C00
000C00
001C00
FFF800
FFFE00
003F80
0033C0
0071C0
0070C0
FFFFE0
FFFFE0
FFFFE0
01C060
0181C0
0181C0
0181C0
038380
030F80
FFFE00
FFF800
FFF000
060000
060000
0E0000
ENDCHAR
STARTCHAR $220D
ENCODING 8717
SWIDTH 555 0
DWIDTH 18 0
BBX 13 12 2 3
BITMAP
FF80
FFC0
00E0
0070
0078
FFF8
FFF8
0038
0030
FFE0
FFC0
FF80
ENDCHAR
STARTCHAR $220E
ENCODING 8718
SWIDTH 814 0
DWIDTH 27 0
BBX 22 20 2 1
BITMAP
FFFFFC
FFFFFC
FFFFFC
FFFFFC
FFFFFC
FFFFFC
FFFFFC
FFFFFC
FFFFFC
FFFFFC
FFFFFC
FFFFFC
FFFFFC
FFFFFC
FFFFFC
FFFFFC
FFFFFC
FFFFFC
FFFFFC
FFFFF8
ENDCHAR
STARTCHAR $220F
ENCODING 8719
SWIDTH 1000 0
DWIDTH 32 0
BBX 27 34 2 -8
BITMAP
FFFFFFE0
FFFFFFE0
E00000E0
C0000060
C0000060
C0000060
C0000060
C0000060
C0000060
C0000060
C0000060
C0000060
C0000060
C0000060
C0000060
C0000060
C0000060
C0000060
C0000060
C0000060
C0000060
C0000060
C0000060
C0000060
C0000060
C0000060
C0000060
C0000060
C0000060
C0000060
C0000060
C0000060
C0000060
C0000060
ENDCHAR
STARTCHAR $2210
ENCODING 8720
SWIDTH 1000 0
DWIDTH 32 0
BBX 27 34 2 -8
BITMAP
C0000060
C0000060
C0000060
C0000060
C0000060
C0000060
C0000060
C0000060
C0000060
C0000060
C0000060
C0000060
C0000060
C0000060
C0000060
C0000060
C0000060
C0000060
C0000060
C0000060
C0000060
C0000060
C0000060
C0000060
C0000060
C0000060
C0000060
C0000060
C0000060
C0000060
C0000060
C0000060
FFFFFFE0
FFFFFFE0
ENDCHAR
STARTCHAR $2211
ENCODING 8721
SWIDTH 777 0
DWIDTH 25 0
BBX 20 36 2 -9
BITMAP
3FFFF0
3FFFF0
3E0000
1C0000
0C0000
060000
060000
030000
038000
018000
01C000
00C000
00E000
00F000
007000
007000
007000
007000
00F000
00E000
008000
018000
018000
030000
070000
060000
0E0000
0C0000
180000
380000
380000
700000
F00000
FFFFF0
FFFFF0
FFFFF0
ENDCHAR
STARTCHAR $2212
ENCODING 8722
SWIDTH 703 0
DWIDTH 23 0
BBX 18 2 2 8
BITMAP
FFFFC0
FFFFC0
ENDCHAR
STARTCHAR $2213
ENCODING 8723
SWIDTH 703 0
DWIDTH 23 0
BBX 18 23 2 -1
BITMAP
FFFFC0
FFFFC0
000000
000000
000000
00C000
00C000
00C000
00C000
00C000
00C000
00E000
FFFFC0
FFFFC0
00E000
00C000
00C000
00C000
00C000
00C000
00C000
00C000
004000
ENDCHAR
STARTCHAR $2214
ENCODING 8724
SWIDTH 703 0
DWIDTH 23 0
BBX 18 25 2 -1
BITMAP
00C000
00C000
00C000
004000
000000
000000
000000
00C000
00C000
00C000
00C000
00C000
00C000
00C000
FFFFC0
FFFFC0
FFFFC0
00C000
00C000
00C000
00C000
00C000
00C000
00C000
00C000
ENDCHAR
STARTCHAR $2215
ENCODING 8725
SWIDTH 518 0
DWIDTH 17 0
BBX 12 26 2 -4
BITMAP
0070
00E0
00C0
00C0
00C0
0180
0180
0180
0300
0300
0700
0700
0600
0600
0E00
0C00
0C00
0C00
3C00
3800
3800
3000
7000
7000
6000
C000
ENDCHAR
STARTCHAR $2216
ENCODING 8726
SWIDTH 740 0
DWIDTH 24 0
BBX 17 24 2 -4
BITMAP
F00000
700000
300000
380000
1C0000
0C0000
060000
070000
030000
018000
01C000
00C000
00E000
007000
007800
003800
003800
001C00
000C00
000600
000700
000780
000380
000080
ENDCHAR
STARTCHAR $2217
ENCODING 8727
SWIDTH 518 0
DWIDTH 17 0
BBX 10 12 2 3
BITMAP
0600
0600
0600
6740
FFC0
3F80
1F00
3FC0
F6C0
0600
0600
0600
ENDCHAR
STARTCHAR $2218
ENCODING 8728
SWIDTH 555 0
DWIDTH 18 0
BBX 12 12 2 3
BITMAP
0F00
1FC0
38E0
7870
F070
C070
C070
E070
78F0
3FE0
1F80
0F00
ENDCHAR
STARTCHAR $2219
ENCODING 8729
SWIDTH 518 0
DWIDTH 17 0
BBX 12 12 2 3
BITMAP
0600
1F80
3FC0
7FE0
FFF0
FFF0
FFF0
FFF0
7FE0
7FC0
1F80
0F00
ENDCHAR
STARTCHAR $221A
ENCODING 8730
SWIDTH 629 0
DWIDTH 21 0
BBX 18 37 4 -7
BITMAP
0003C0
0003C0
000380
000380
000380
000380
000600
000600
000600
000600
000600
000C00
000C00
000C00
000C00
001C00
003C00
003800
003800
003800
F83800
F83000
F87000
0C7000
0C7000
0C7000
0CF000
0EE000
06C000
06C000
06C000
06C000
038000
038000
038000
038000
038000
ENDCHAR
STARTCHAR $221D
ENCODING 8733
SWIDTH 814 0
DWIDTH 27 0
BBX 22 13 2 2
BITMAP
0F803C
1FC0FC
38E1C0
7873C0
703F80
C01E00
C00C00
C00E00
601F00
7033C0
3FE1F0
1FC0F8
078038
ENDCHAR
STARTCHAR $221E
ENCODING 8734
SWIDTH 1000 0
DWIDTH 32 0
BBX 26 13 2 2
BITMAP
0F803E00
1FC0FF80
38E1C3C0
7873C1C0
703F80C0
C01E00C0
C00C00C0
C00E00C0
601F00C0
7033C180
3FE1FF80
1FC0FF00
07803E00
ENDCHAR
STARTCHAR $221F
ENCODING 8735
SWIDTH 740 0
DWIDTH 24 0
BBX 19 19 2 1
BITMAP
C00000
C00000
C00000
C00000
C00000
C00000
C00000
C00000
C00000
C00000
C00000
C00000
C00000
C00000
C00000
C00000
E00000
FFFFE0
FFFFE0
ENDCHAR
STARTCHAR $2220
ENCODING 8736
SWIDTH 777 0
DWIDTH 25 0
BBX 19 19 2 2
BITMAP
000060
0000E0
0001C0
0003C0
000780
000E00
001C00
003800
00F000
00E000
01C000
038000
070000
0E0000
1C0000
380000
780000
FFFFE0
FFFFE0
ENDCHAR
STARTCHAR $2221
ENCODING 8737
SWIDTH 777 0
DWIDTH 25 0
BBX 19 21 2 0
BITMAP
000060
0000E0
0001C0
0003C0
000780
000E00
021C00
03F800
01F000
01F000
01F000
03F000
073800
0E3800
1C3800
381C00
781C00
FFFFE0
FFFFE0
000C00
001800
ENDCHAR
STARTCHAR $2222
ENCODING 8738
SWIDTH 703 0
DWIDTH 23 0
BBX 18 17 2 0
BITMAP
004000
0073C0
007FC0
007FC0
00FC00
03F800
3F1C00
FC1C00
F80C00
7E0C00
1F9800
0FB800
01F800
007E00
0077C0
007180
002000
ENDCHAR
STARTCHAR $2223
ENCODING 8739
SWIDTH 222 0
DWIDTH 8 0
BBX 2 26 2 -4
BITMAP
C0
C0
C0
C0
C0
C0
C0
C0
C0
C0
C0
C0
C0
C0
C0
C0
C0
C0
C0
C0
C0
C0
C0
C0
C0
C0
ENDCHAR
STARTCHAR $2224
ENCODING 8740
SWIDTH 370 0
DWIDTH 12 0
BBX 7 26 2 -4
BITMAP
38
38
38
38
38
38
38
3A
3E
3E
3E
3C
3C
38
78
F8
F8
F8
F8
B8
38
38
38
38
38
18
ENDCHAR
STARTCHAR $2225
ENCODING 8741
SWIDTH 407 0
DWIDTH 14 0
BBX 8 26 2 -4
BITMAP
C3
C3
C3
C3
C3
C3
C3
C3
C3
C3
C3
C3
C3
C3
C3
C3
C3
C3
C3
C3
C3
C3
C3
C3
C3
C3
ENDCHAR
STARTCHAR $2226
ENCODING 8742
SWIDTH 555 0
DWIDTH 18 0
BBX 13 26 2 -4
BITMAP
38C0
38C0
38C0
38F8
38F8
38F8
38F0
38F0
38E0
38C0
39C0
39C0
3BC0
3FC0
3EC0
3CC0
3CC0
3CC0
38C0
78C0
F8C0
F8C0
F8C0
B8C0
B8C0
18C0
ENDCHAR
STARTCHAR $2227
ENCODING 8743
SWIDTH 703 0
DWIDTH 23 0
BBX 18 19 2 0
BITMAP
00C000
00C000
01E000
01F000
03F000
033000
033800
073800
060C00
0C0C00
0C0E00
1C0E00
3C0600
380600
380380
300380
700380
7003C0
C001C0
ENDCHAR
STARTCHAR $2228
ENCODING 8744
SWIDTH 703 0
DWIDTH 23 0
BBX 18 18 2 -1
BITMAP
F001C0
7003C0
700380
780380
380780
380600
0C0600
0C0C00
0E0C00
0E1C00
073800
073800
037800
037000
01F000
01E000
01C000
01C000
ENDCHAR
STARTCHAR $2229
ENCODING 8745
SWIDTH 703 0
DWIDTH 23 0
BBX 18 19 2 0
BITMAP
03F000
0FFC00
1E1E00
380F00
700780
7003C0
F001C0
E001C0
C001C0
C001C0
C001C0
C001C0
C001C0
C001C0
C001C0
C001C0
C001C0
C001C0
C001C0
ENDCHAR
STARTCHAR $222A
ENCODING 8746
SWIDTH 703 0
DWIDTH 23 0
BBX 18 19 2 0
BITMAP
C001C0
C001C0
C001C0
C001C0
C001C0
C001C0
C001C0
C001C0
C001C0
C001C0
C001C0
E001C0
F001C0
7003C0
780380
3C0F00
1C1E00
0FFC00
03F000
ENDCHAR
STARTCHAR $222B
ENCODING 8747
SWIDTH 592 0
DWIDTH 19 0
BBX 14 36 2 -9
BITMAP
000C
007C
00F0
00E0
00C0
0180
0180
0180
0180
0180
0180
0180
0180
0380
0380
0300
0300
0300
0300
0300
0300
0300
0300
0300
0300
0300
0700
0600
0600
0600
0600
0600
0E00
FC00
F000
E000
ENDCHAR
STARTCHAR $222C
ENCODING 8748
SWIDTH 851 0
DWIDTH 28 0
BBX 23 36 2 -9
BITMAP
000C0E
007C3E
00F078
00E0F0
00C1E0
0181C0
0181C0
0181C0
0181C0
0181C0
0181C0
0181C0
0183C0
038380
038380
030380
030380
030380
030380
030380
030380
030380
030380
030380
030380
030780
070600
060600
060600
060600
060600
060600
0E0C00
FCFC00
F0F000
E06000
ENDCHAR
STARTCHAR $222D
ENCODING 8749
SWIDTH 1111 0
DWIDTH 36 0
BBX 31 36 2 -9
BITMAP
000C0E1E
007C3E3E
00F07870
00E0F0E0
00C1E0C0
0181C0C0
0181C0C0
0181C0C0
0181C0C0
0181C0C0
0181C1C0
0181C1C0
0183C180
03838180
03838180
03038180
03038180
03038180
03038180
03038180
03038180
03038180
03038180
03038380
03038300
03078300
07060300
06060300
06060300
06060300
06060300
06060300
0E0C0E00
FCFC7C00
F0F07800
E0607000
ENDCHAR
STARTCHAR $222E
ENCODING 8750
SWIDTH 666 0
DWIDTH 22 0
BBX 17 36 2 -9
BITMAP
000600
001E00
003800
007800
00F000
00C000
00C000
00C000
00C000
03F000
0FF000
1FF800
3DEC00
71C600
718380
E18380
C18380
C18380
C18380
C18380
618380
718300
718600
39CC00
0FF800
07F000
030000
030000
030000
030000
030000
030000
060000
7E0000
780000
780000
ENDCHAR
STARTCHAR $222F
ENCODING 8751
SWIDTH 925 0
DWIDTH 30 0
BBX 25 36 2 -9
BITMAP
00060F00
001E1F00
00383800
00783000
00F06000
00C06000
00C06000
00C06000
00C06000
00FE6000
01FFE000
03FFF000
0FE1F800
39C1CC00
7181C600
6181C300
4181C180
C181C180
C181C180
C181C180
6181C300
3181C700
1981CE00
0FC1F800
07FFF000
03FF8000
03038000
03038000
03038000
03038000
03038000
03038000
06060000
7E7C0000
78780000
78380000
ENDCHAR
STARTCHAR $2230
ENCODING 8752
SWIDTH 1185 0
DWIDTH 38 0
BBX 33 36 2 -9
BITMAP
00060F0F00
001E1F1F00
0038383800
0078303000
00F0606000
00C0606000
00C0606000
00C0606000
00C0606000
00CFF8E000
00FFFFC000
01FFFFC000
07E1C1F000
3FC1C0FE00
7981C0CF00
6181C0C700
4181C0C300
C181C0C180
C181C0C180
7181C0C180
7981C0C300
3B81C1C700
1FC1C1FE00
07E3C3FC00
01FFFFE000
038FFF8000
0303838000
0303818000
0303818000
0303818000
0303818000
0303838000
06060F0000
7C7C3E0000
7878380000
7838300000
ENDCHAR
STARTCHAR $2231
ENCODING 8753
SWIDTH 777 0
DWIDTH 25 0
BBX 20 36 2 -9
BITMAP
000380
000F80
001E00
003C00
007800
007000
007000
007000
01F800
07FE10
0F7F10
1E7790
38F3D0
70CDF0
70FFF0
E0E3F0
C0C3F0
C0C1F0
00C030
00C000
00C000
00C000
00C000
00C000
00C000
01C000
01C000
018000
018000
018000
018000
018000
030000
1F0000
3E0000
180000
ENDCHAR
STARTCHAR $2232
ENCODING 8754
SWIDTH 777 0
DWIDTH 25 0
BBX 20 36 2 -9
BITMAP
000380
000F80
001E00
003C00
007800
007000
007000
007000
01F800
07FE10
0F7F10
1E7790
38F3F0
70CFF0
70C7F0
E0C3F0
C0C3F0
C0C070
C0C020
C0C000
40C000
60C000
70C1C0
78C380
1CE700
0FFE00
03F800
01C000
018000
018000
018000
018000
030000
1F0000
3E0000
180000
ENDCHAR
STARTCHAR $2233
ENCODING 8755
SWIDTH 740 0
DWIDTH 24 0
BBX 20 36 2 -9
BITMAP
000380
000F80
001E00
003C00
007800
007000
007000
007000
01F800
07FE00
0F7F00
1E7780
38F3C0
70C1C0
70C000
E0C000
C0C000
C0C020
C0C070
C0C3F0
40CFF0
60CFF0
70CDF0
78C3F0
1CE730
0FFE30
03F800
01C000
018000
018000
018000
018000
030000
1F0000
3E0000
180000
ENDCHAR
STARTCHAR $2234
ENCODING 8756
SWIDTH 518 0
DWIDTH 17 0
BBX 12 12 2 3
BITMAP
0600
0600
0600
0600
0000
0000
0000
0000
C030
C070
C070
C060
ENDCHAR
STARTCHAR $2235
ENCODING 8757
SWIDTH 518 0
DWIDTH 17 0
BBX 12 12 2 3
BITMAP
C070
C070
C070
C020
0000
0000
0000
0000
0600
0600
0600
0600
ENDCHAR
STARTCHAR $2236
ENCODING 8758
SWIDTH 222 0
DWIDTH 8 0
BBX 2 13 2 2
BITMAP
C0
C0
C0
C0
00
00
00
00
00
C0
C0
C0
C0
ENDCHAR
STARTCHAR $2237
ENCODING 8759
SWIDTH 518 0
DWIDTH 17 0
BBX 12 13 2 2
BITMAP
C070
C070
C070
C020
0000
0000
0000
0000
0000
C030
C070
C070
C070
ENDCHAR
STARTCHAR $2238
ENCODING 8760
SWIDTH 703 0
DWIDTH 23 0
BBX 18 9 2 9
BITMAP
00C000
00C000
00C000
004000
000000
000000
000000
FFFFC0
FFFFC0
ENDCHAR
STARTCHAR $2239
ENCODING 8761
SWIDTH 777 0
DWIDTH 25 0
BBX 20 12 2 3
BITMAP
000030
000030
000030
000030
000000
FFFC00
FFFC00
000000
000030
000030
000030
000030
ENDCHAR
STARTCHAR $223A
ENCODING 8762
SWIDTH 703 0
DWIDTH 23 0
BBX 18 17 2 0
BITMAP
C001C0
C001C0
C001C0
C000C0
000000
000000
000000
FFFFC0
FFFFC0
000000
000000
000000
000000
C001C0
C001C0
C001C0
C000C0
ENDCHAR
STARTCHAR $223B
ENCODING 8763
SWIDTH 740 0
DWIDTH 24 0
BBX 19 18 2 -1
BITMAP
00C000
00C000
00C000
004000
000000
1E0000
3F8000
79C040
F0F0E0
007FC0
003F80
001F00
000000
000000
004000
00C000
00C000
004000
ENDCHAR
STARTCHAR $223C
ENCODING 8764
SWIDTH 740 0
DWIDTH 24 0
BBX 18 7 4 6
BITMAP
3E0000
FF0000
E38080
C3C1C0
81E3C0
00FF80
001E00
ENDCHAR
STARTCHAR $223D
ENCODING 8765
SWIDTH 740 0
DWIDTH 24 0
BBX 18 7 4 6
BITMAP
003E00
00FF00
80E380
81C3C0
E381C0
FF0000
7E0000
ENDCHAR
STARTCHAR $223E
ENCODING 8766
SWIDTH 777 0
DWIDTH 25 0
BBX 19 9 2 5
BITMAP
0E0380
1F03E0
3981E0
78C0E0
F0E060
F0F060
F079E0
7C3FC0
1C0780
ENDCHAR
STARTCHAR $223F
ENCODING 8767
SWIDTH 703 0
DWIDTH 23 0
BBX 18 12 2 3
BITMAP
0E0000
1F0000
318000
718000
71C000
C0C000
00C1C0
00C1C0
007180
007F80
003F00
001E00
ENDCHAR
STARTCHAR $2240
ENCODING 8768
SWIDTH 333 0
DWIDTH 11 0
BBX 6 18 2 -1
BITMAP
70
78
3C
1C
0C
0C
0C
18
78
70
E0
C0
E0
F0
78
38
18
08
ENDCHAR
STARTCHAR $2241
ENCODING 8769
SWIDTH 740 0
DWIDTH 24 0
BBX 19 14 2 3
BITMAP
000C00
001C00
003800
003800
0E7800
3FF000
79F040
F0F0E0
01FFC0
01FF80
018000
038000
030000
070000
ENDCHAR
STARTCHAR $2242
ENCODING 8770
SWIDTH 740 0
DWIDTH 24 0
BBX 19 12 2 2
BITMAP
7FFFE0
7FFFE0
000000
000000
000000
3F0000
7FE040
F0E060
4079C0
003F80
000E00
000400
ENDCHAR
STARTCHAR $2243
ENCODING 8771
SWIDTH 740 0
DWIDTH 24 0
BBX 19 12 2 4
BITMAP
040000
1F0000
3BC000
7BE040
F0F060
003FC0
001F80
000000
000000
7FFFC0
7FFFE0
7FFFE0
ENDCHAR
STARTCHAR $2244
ENCODING 8772
SWIDTH 740 0
DWIDTH 24 0
BBX 19 18 2 -1
BITMAP
003800
043800
1F3800
3FB800
73F040
E0F060
007FC0
00FF80
00E000
00C000
3FFFE0
7FFFE0
7FFFE0
01C000
038000
030000
030000
030000
ENDCHAR
STARTCHAR $2245
ENCODING 8773
SWIDTH 740 0
DWIDTH 24 0
BBX 18 17 4 1
BITMAP
3E0000
FF0000
E38080
C3C1C0
81E3C0
00FF80
001C00
000000
FFFF80
FFFFC0
000000
000000
000000
000000
FFFFC0
FFFFC0
FFFFC0
ENDCHAR
STARTCHAR $2246
ENCODING 8774
SWIDTH 740 0
DWIDTH 24 0
BBX 19 19 2 1
BITMAP
3F0000
7F8000
F1C060
E0E0E0
40F9E0
003FC0
000E00
000000
001800
7FFFC0
7FFFE0
7FFFE0
007000
00C000
00C000
3FFFE0
7FFFE0
7FFFE0
030000
ENDCHAR
STARTCHAR $2247
ENCODING 8775
SWIDTH 740 0
DWIDTH 24 0
BBX 18 19 4 0
BITMAP
3E0000
FF7000
E3F080
C3F1C0
81F3C0
00FF80
00FE00
00E000
FFFF80
FFFFC0
03C000
018000
030000
030000
FFFFC0
FFFFC0
FFFFC0
060000
060000
ENDCHAR
STARTCHAR $2248
ENCODING 8776
SWIDTH 740 0
DWIDTH 24 0
BBX 19 14 2 3
BITMAP
040000
1F0000
3BC000
7BE040
F0F060
003FC0
001F80
0F0000
7F8000
71C040
E0E0E0
C0F1E0
007FC0
000F80
ENDCHAR
STARTCHAR $2249
ENCODING 8777
SWIDTH 740 0
DWIDTH 24 0
BBX 19 18 2 -1
BITMAP
003C00
043800
1F3800
3FB800
73F040
E0F060
007FC0
00FF80
0EE000
7FC000
73C060
61E0E0
C1F1E0
01FFC0
038F80
030000
030000
030000
ENDCHAR
STARTCHAR $224A
ENCODING 8778
SWIDTH 740 0
DWIDTH 24 0
BBX 18 17 4 1
BITMAP
3E0000
FF0000
E38080
C3C1C0
81E3C0
00FF80
3E1E00
FF0000
C38080
81C3C0
00FF80
00FF00
001C00
000000
FFFFC0
FFFFC0
FFFFC0
ENDCHAR
STARTCHAR $224B
ENCODING 8779
SWIDTH 740 0
DWIDTH 24 0
BBX 19 19 2 0
BITMAP
060000
1F8000
3BC000
7BE0C0
F0F1E0
003FC0
0E1F80
1F8000
79C000
F0F0C0
007FC0
007FC0
0E1F80
3F8000
71C040
E0E0E0
C071E0
007FC0
003F80
ENDCHAR
STARTCHAR $224C
ENCODING 8780
SWIDTH 740 0
DWIDTH 24 0
BBX 19 17 2 1
BITMAP
000F80
007FC0
C0F1E0
E0E0E0
71C060
7F8000
0E0000
000000
7FFFE0
7FFFE0
000000
000000
000000
000000
7FFFE0
7FFFE0
3FFFE0
ENDCHAR
STARTCHAR $224D
ENCODING 8781
SWIDTH 703 0
DWIDTH 23 0
BBX 18 12 2 3
BITMAP
800000
F803C0
7FFFC0
7FFFC0
0FFC00
000000
000000
07FC00
7FFF80
F803C0
C000C0
800040
ENDCHAR
STARTCHAR $224E
ENCODING 8782
SWIDTH 703 0
DWIDTH 23 0
BBX 18 17 2 0
BITMAP
01F000
07F800
0F3C00
1E1C00
FC0FC0
FC07C0
000000
000000
000000
000000
F80780
FC07C0
FC0FC0
0E0C00
07F800
03F000
03E000
ENDCHAR
STARTCHAR $224F
ENCODING 8783
SWIDTH 703 0
DWIDTH 23 0
BBX 18 13 2 4
BITMAP
01F000
07F800
0F3C00
1E1C00
FC0FC0
FC07C0
000000
000000
000000
000000
FFFF80
FFFFC0
FFFFC0
ENDCHAR
STARTCHAR $2250
ENCODING 8784
SWIDTH 703 0
DWIDTH 23 0
BBX 18 17 2 4
BITMAP
00C000
00C000
00C000
004000
000000
000000
000000
FFFFC0
FFFFC0
000000
000000
000000
000000
000000
FFFFC0
FFFFC0
FFFFC0
ENDCHAR
STARTCHAR $2251
ENCODING 8785
SWIDTH 703 0
DWIDTH 23 0
BBX 18 24 2 -4
BITMAP
00C000
00C000
00C000
004000
000000
000000
000000
FFFFC0
FFFFC0
000000
000000
000000
000000
000000
FFFFC0
FFFFC0
FFFFC0
000000
000000
000000
00C000
00C000
00C000
00C000
ENDCHAR
STARTCHAR $2252
ENCODING 8786
SWIDTH 703 0
DWIDTH 23 0
BBX 18 24 2 -4
BITMAP
C00000
C00000
C00000
C00000
000000
000000
000000
FFFFC0
FFFFC0
000000
000000
000000
000000
000000
FFFFC0
FFFFC0
FFFFC0
000000
000000
000000
0000C0
0001C0
0001C0
000080
ENDCHAR
STARTCHAR $2253
ENCODING 8787
SWIDTH 703 0
DWIDTH 23 0
BBX 18 24 2 -4
BITMAP
0001C0
0001C0
0001C0
0000C0
000000
000000
000000
FFFFC0
FFFFC0
000000
000000
000000
000000
000000
FFFFC0
FFFFC0
FFFFC0
000000
000000
000000
C00000
C00000
C00000
C00000
ENDCHAR
STARTCHAR $2254
ENCODING 8788
SWIDTH 777 0
DWIDTH 25 0
BBX 20 12 2 3
BITMAP
C00000
C3FFF0
C3FFF0
C3FFF0
000000
000000
000000
000000
C3FFF0
C3FFF0
C00000
C00000
ENDCHAR
STARTCHAR $2255
ENCODING 8789
SWIDTH 777 0
DWIDTH 25 0
BBX 20 12 2 3
BITMAP
000030
FFFC30
FFFC30
FFFC30
000000
000000
000000
000000
FFFC30
FFFC30
000030
000030
ENDCHAR
STARTCHAR $2256
ENCODING 8790
SWIDTH 703 0
DWIDTH 23 0
BBX 18 9 2 5
BITMAP
FFFFC0
FE3FC0
1C1F00
0C0E00
0C0600
0C0600
0C0600
FE0FC0
FFFFC0
ENDCHAR
STARTCHAR $2257
ENCODING 8791
SWIDTH 703 0
DWIDTH 23 0
BBX 18 25 2 4
BITMAP
01F000
07F800
0F3C00
0E1C00
0C0E00
0C0600
0C0600
0C0600
0C0E00
0E1C00
0FF800
07F800
01F000
000000
000000
FFFFC0
FFFFC0
FFFFC0
000000
000000
000000
000000
000000
FFFFC0
FFFFC0
ENDCHAR
STARTCHAR $2258
ENCODING 8792
SWIDTH 703 0
DWIDTH 23 0
BBX 18 17 2 0
BITMAP
0FFC00
7FFFC0
F803C0
F803C0
800000
000000
000000
FFFFC0
FFFFC0
000000
000000
000000
000000
000000
FFFFC0
FFFFC0
FFFFC0
ENDCHAR
STARTCHAR $2259
ENCODING 8793
SWIDTH 703 0
DWIDTH 23 0
BBX 18 19 2 0
BITMAP
01C000
01F000
037000
073000
073800
061C00
0E0C00
000000
000000
000000
FFFF80
FFFFC0
FFFFC0
000000
000000
000000
000000
FFFFC0
FFFFC0
ENDCHAR
STARTCHAR $225A
ENCODING 8794
SWIDTH 703 0
DWIDTH 23 0
BBX 18 19 2 0
BITMAP
0E0C00
061C00
073800
07B800
03F000
01F000
01E000
000000
000000
000000
FFFF80
FFFFC0
FFFFC0
000000
000000
000000
000000
FFFFC0
FFFFC0
ENDCHAR
STARTCHAR $225B
ENCODING 8795
SWIDTH 703 0
DWIDTH 23 0
BBX 18 23 2 5
BITMAP
008000
008000
00C000
00E000
07FC00
03F000
01F000
037000
023000
000000
000000
000000
000000
FFFFC0
FFFFC0
000000
000000
000000
000000
000000
FFFFC0
FFFFC0
FFFFC0
ENDCHAR
STARTCHAR $225C
ENCODING 8796
SWIDTH 703 0
DWIDTH 23 0
BBX 18 24 2 4
BITMAP
008000
00C000
00C000
01E000
013000
033000
021800
061800
040C00
07FC00
000000
000000
000000
000000
FFFFC0
FFFFC0
FFFFC0
000000
000000
000000
000000
000000
FFFFC0
FFFF80
ENDCHAR
STARTCHAR $225D
ENCODING 8797
SWIDTH 962 0
DWIDTH 31 0
BBX 26 24 2 4
BITMAP
008000C0
00800100
1E87E380
3E87E3C0
418C3100
C0881100
809FF100
80B80100
C0881100
608C2100
3E8FC100
1E87C100
00000000
00000000
0FFFFE00
0FFFFE00
0FFFFC00
00000000
00000000
00000000
00000000
00000000
0FFFFE00
0FFFFC00
ENDCHAR
STARTCHAR $225E
ENCODING 8798
SWIDTH 703 0
DWIDTH 23 0
BBX 18 22 2 4
BITMAP
373C00
39C600
38C200
388200
308200
308200
308200
308200
000000
000000
000000
000000
FFFFC0
FFFFC0
000000
000000
000000
000000
000000
FFFFC0
FFFFC0
FFFF80
ENDCHAR
STARTCHAR $225F
ENCODING 8799
SWIDTH 703 0
DWIDTH 23 0
BBX 18 25 2 4
BITMAP
03F000
033800
061800
060800
040800
003800
007000
00E000
00C000
000000
000000
008000
008000
000000
000000
000000
000000
FFFFC0
FFFFC0
000000
000000
000000
000000
FFFFC0
FFFFC0
ENDCHAR
STARTCHAR $2260
ENCODING 8800
SWIDTH 703 0
DWIDTH 23 0
BBX 18 26 2 -4
BITMAP
000C00
000C00
000C00
001C00
003800
003800
007800
007000
FFFF80
FFFFC0
00F000
00E000
00C000
00C000
018000
FFFFC0
FFFFC0
FFFFC0
030000
030000
070000
070000
060000
060000
0E0000
0C0000
ENDCHAR
STARTCHAR $2261
ENCODING 8801
SWIDTH 703 0
DWIDTH 23 0
BBX 18 15 2 2
BITMAP
FFFFC0
FFFFC0
000000
000000
000000
000000
FFFFC0
FFFFC0
000000
000000
000000
000000
000000
FFFFC0
FFFFC0
ENDCHAR
ENDFONT
